/* XPM */
static char *biped_64_99_OnK0[] = {
/* columns rows colors chars-per-pixel */
"10 13 16 1",
"  c #77EF44",
". c #7BFD44",
"X c #7FFF44",
"o c #80FF44",
"O c #83FF44",
"+ c #85FF44",
"@ c #86FF44",
"# c #87FF44",
"$ c #88FF44",
"% c #8AFF44",
"& c #8BFF44",
"* c #8CFF44",
"= c #8DFF44",
"- c #8EFF44",
"; c #8FFF44",
": c gray75",
/* pixels */
"::::::::::",
":o=;;;;;;:",
":o;;;;;;=:",
":+;;;;;;=:",
":+;;;;;;=:",
":&;;;;;;&:",
":=;;;;;;&:",
":=;;;;;;+:",
":;;;;;;=o:",
":;;;;;;=o:",
":;;;;;=&.:",
":;;;;;;+ :",
"::::::::::"
};
