/* XPM */
static char *biped_284_120_OnK1[] = {
/* columns rows colors chars-per-pixel */
"10 10 2 1",
"  c #FFFF66",
". c gray75",
/* pixels */
"..........",
".        .",
".        .",
".        .",
".        .",
".        .",
".        .",
".        .",
".        .",
".........."
};
