/* XPM */
static char *biped_126_159_OffK0[] = {
/* columns rows colors chars-per-pixel */
"11 11 38 1",
"  c #B77D37",
". c #B77D38",
"X c #B77D39",
"o c #B77D3A",
"O c #B77D3B",
"+ c #B77E3B",
"@ c #B67E3C",
"# c #B67E3D",
"$ c #B77E3C",
"% c #B87A32",
"& c #B87A33",
"* c #B87B33",
"= c #B87B35",
"- c #B87D37",
"; c #AF8859",
": c #AF885A",
"> c #B3834B",
", c #B3844C",
"< c #B3844D",
"1 c #B18553",
"2 c #B28450",
"3 c #B28550",
"4 c #B28551",
"5 c #B08755",
"6 c #B08859",
"7 c #A7937C",
"8 c #A7947D",
"9 c #A99175",
"0 c #A99177",
"q c #A89279",
"w c gray62",
"e c #9F9E9E",
"r c #A69683",
"t c #A59684",
"y c #A09D99",
"u c #A09D9A",
"i c #A09D9B",
"p c gray75",
/* pixels */
"ppppppppppp",
"pei7>-,7iep",
"pi85-*-57ep",
"pr6X***X:tp",
"p;o*****@:p",
"pX****%%*@p",
"po**%%%%=@p",
"p2=*%%%*X1p",
"p02 ***=2qp",
"pi9>=**>9ip",
"ppppppppppp"
};
