/* XPM */
static char *biped_252_221_OnK0[] = {
/* columns rows colors chars-per-pixel */
"13 13 72 1",
"  c #7F9F44",
". c #7FA044",
"X c #7FA144",
"o c #7FA344",
"O c #7EA444",
"+ c #7EA544",
"@ c #7EA644",
"# c #7DAA44",
"$ c #7DAB44",
"% c #7EA844",
"& c #7EA944",
"* c #7DAE44",
"= c #7BB644",
"- c #7BB744",
"; c #7CB244",
": c #7CB344",
"> c #7CB444",
", c #7ABE44",
"< c #77CD44",
"1 c #77CF44",
"2 c #79C044",
"3 c #7AC044",
"4 c #79C544",
"5 c #78C744",
"6 c #78CA44",
"7 c #78CB44",
"8 c #78CC44",
"9 c #77D044",
"0 c #76D244",
"q c #76D344",
"w c #77D244",
"e c #76D644",
"r c #76D744",
"t c #75D844",
"y c #75DB44",
"u c #74DD44",
"i c #74DE44",
"p c #75DE44",
"a c #73E244",
"s c #73E344",
"d c #73E444",
"f c #74E044",
"g c #74E144",
"h c #74E244",
"j c #877444",
"k c #867944",
"l c #867A44",
"z c #867B44",
"x c #857C44",
"c c #857D44",
"v c #857E44",
"b c #857F44",
"n c #867C44",
"m c #858044",
"M c #848344",
"N c #848444",
"B c #848644",
"V c #838844",
"C c #838B44",
"Z c #838C44",
"A c #838D44",
"S c #828F44",
"D c #819344",
"F c #829144",
"G c #829244",
"H c #829344",
"J c #819544",
"K c #819844",
"L c #809B44",
"P c #809C44",
"I c #809E44",
"U c gray75",
/* pixels */
"UUUUUUUUUUUUU",
"Ussw= S ,rdsU",
"Uh4Pbzkjz#wsU",
"Uw.BS@#Jkk#uU",
"U-SP8hhr#kB7U",
"U.P3hdsdrSz:U",
"UPo6ssssp z#U",
"U@P3hssswDz;U",
"U,S.8hhr$zS8U",
"Ur#SD@#DbV;pU",
"Udw#SBBbS;rdU",
"Uddr4$@=7psdU",
"UUUUUUUUUUUUU"
};
