/* XPM */
static char *biped_234_221_OffK0[] = {
/* columns rows colors chars-per-pixel */
"13 13 82 1",
"  c #BB6F6F",
". c #BF6969",
"X c #BE6A6A",
"o c #BD6D6D",
"O c #BC6E6E",
"+ c #BC6F6F",
"@ c #B37E7E",
"# c #B57979",
"$ c #B57B7B",
"% c #B97373",
"& c #BB7070",
"* c #D73F3F",
"= c #DD3636",
"- c #DE3434",
"; c #DE3535",
": c #DE3636",
"> c #DB3939",
", c #D83E3E",
"< c #DC3838",
"1 c #E12F2F",
"2 c #E32D2D",
"3 c #E03131",
"4 c #E13030",
"5 c #CF4E4E",
"6 c #C55F5F",
"7 c #C65D5D",
"8 c #C75C5C",
"9 c #C65E5E",
"0 c #C65F5F",
"q c #CB5454",
"w c #CB5555",
"e c #CD5252",
"r c #C85959",
"t c #C95858",
"y c #C85A5A",
"u c #D34747",
"i c #D64242",
"p c #D44646",
"a c #D14A4A",
"s c #D14B4B",
"d c #D24848",
"f c #D04C4C",
"g c #D04D4D",
"h c #D84040",
"j c #C36161",
"k c #C36262",
"l c #C36363",
"z c #C16464",
"x c #C06666",
"c c #C46161",
"v c #C46262",
"b c #C46363",
"n c #9F9D9D",
"m c gray62",
"M c #9F9E9E",
"N c #9F9F9F",
"B c #AD8787",
"V c #AE8686",
"C c #AB8989",
"Z c #AA8B8B",
"A c #AB8A8A",
"S c #A98D8D",
"D c #A98E8E",
"F c #AA8D8D",
"G c #AC8888",
"H c #AD8888",
"J c #A59393",
"K c #A79191",
"L c #A69393",
"P c #A79292",
"I c #A59696",
"U c #A19B9B",
"Y c #A39898",
"T c #A39999",
"R c #A09C9C",
"E c #A09D9D",
"W c #A09E9E",
"Q c #A29C9C",
"! c #B08181",
"~ c #B18080",
"^ c #B18282",
"/ c gray75",
/* pixels */
"/////////////",
"/mmD wgt#Pmm/",
"/W!t>;32;lZm/",
"/D7ig7v53;lT/",
"/%g7CTWZ02hV/",
"/7t@WmmWVp; /",
"/tlCmmmmKw3v/",
"/v7@mWmWCa< /",
"/$wlDWWPx>uC/",
"/J.et..t,p T/",
"/NZ.gapha KW/",
"/NNJ!.v&CTWN/",
"/////////////"
};
