/* XPM */
static char *biped_73_221_OnK0[] = {
/* columns rows colors chars-per-pixel */
"13 13 77 1",
"  c #7F9F44",
". c #7FA044",
"X c #7EA344",
"o c #7FA244",
"O c #7FA344",
"+ c #7EA544",
"@ c #7EA644",
"# c #7EA744",
"$ c #7DAA44",
"% c #7EA844",
"& c #7EA944",
"* c #7DAD44",
"= c #7DAE44",
"- c #7BB644",
"; c #7CB044",
": c #7DB144",
"> c #7CB244",
", c #7CB344",
"< c #7CB444",
"1 c #7BB844",
"2 c #7ABE44",
"3 c #77CC44",
"4 c #77CD44",
"5 c #77CE44",
"6 c #77CF44",
"7 c #79C344",
"8 c #7AC044",
"9 c #79C544",
"0 c #78C644",
"q c #78C744",
"w c #78CA44",
"e c #78CC44",
"r c #77D044",
"t c #77D144",
"y c #76D344",
"u c #76D544",
"i c #76D644",
"p c #75D844",
"a c #75DB44",
"s c #75DC44",
"d c #75DD44",
"f c #74DF44",
"g c #75DE44",
"h c #73E244",
"j c #73E344",
"k c #73E444",
"l c #74E144",
"z c #74E244",
"x c #74E344",
"c c #877244",
"v c #877444",
"b c #867644",
"n c #867844",
"m c #867944",
"M c #867A44",
"N c #857D44",
"B c #857E44",
"V c #848344",
"C c #848444",
"Z c #848544",
"A c #848744",
"S c #838A44",
"D c #838B44",
"F c #828D44",
"G c #828F44",
"H c #829044",
"J c #829244",
"K c #819444",
"L c #819744",
"P c #809844",
"I c #809A44",
"U c #809B44",
"Y c #809C44",
"T c #809D44",
"R c #809E44",
"E c #809F44",
"W c gray75",
/* pixels */
"WWWWWWWWWWWWW",
"Wjjp2 JU-ijjW",
"Wjr+NcbMNUqjW",
"Ws&MbJ+XJA.iW",
"WwCc.rzswUL1W",
"W=MSwzkkzqU.W",
"W&MUikkjze&UW",
"W=MG5zjjzq++W",
"WeSN&ijjr+U2W",
"Wz=SVU==UU=pW",
"Wkp-JVSGL=rjW",
"Wkksw-&=qpkkW",
"WWWWWWWWWWWWW"
};
