/* XPM */
static char *biped_18_29_OnK0[] = {
/* columns rows colors chars-per-pixel */
"22 18 2 1",
"  c #73E344",
". c gray75",
/* pixels */
"......................",
".                    .",
".                    .",
".                    .",
".                    .",
".                    .",
".                    .",
".                    .",
".                    .",
".                    .",
".                    .",
".                    .",
".                    .",
".                    .",
".                    .",
".                    .",
".                    .",
"......................"
};
