/* XPM */
static char *biped_182_225_OffK1[] = {
/* columns rows colors chars-per-pixel */
"15 13 44 1",
"  c #D27D7D",
". c #D37D7D",
"X c #D57E7E",
"o c #D67F7F",
"O c #D77F7F",
"+ c #D87F7F",
"@ c gray75",
"# c #D98080",
"$ c #DB8080",
"% c #DB8181",
"& c #DC8181",
"* c #DD8181",
"= c #DE8282",
"- c #DF8282",
"; c #E18383",
": c #E28383",
"> c #E38484",
", c #E88686",
"< c #EA8686",
"1 c #EC8787",
"2 c #ED8888",
"3 c #EE8888",
"4 c #F68B8B",
"5 c #F68B8C",
"6 c #F98C8D",
"7 c #FF9393",
"8 c #FF9494",
"9 c #FF9595",
"0 c #FF9898",
"q c #FF9A9A",
"w c #FF9C9C",
"e c #FF9E9E",
"r c #FFA0A0",
"t c #FFA0A1",
"y c #FFA1A2",
"u c #FFA2A2",
"i c #FFA4A4",
"p c #FFA6A6",
"a c #FFA7A7",
"s c #FFA7A8",
"d c #FFA8A7",
"f c #FFA8A8",
"g c #FFA9A9",
"h c #FFAAAA",
/* pixels */
"@@@@@@@@@@@@@@@",
"@tttte7,Xo=>>>@",
"@hhhhiie83#=>>@",
"@hhhhhhha04=#>@",
"@hhhhhhhhhe4#;@",
"@hhhhhhhhhh8;=@",
"@hhhhhhhhhh0,=@",
"@hhhhhhhhhhe,#@",
"@hhhhhhhhhhe3#@",
"@hhihhihaaa0,#@",
"@88888888886==@",
"@   X       o>@",
"@@@@@@@@@@@@@@@"
};
