/* XPM */
static char *biped_18_29_OffK1[] = {
/* columns rows colors chars-per-pixel */
"22 18 2 1",
"  c gray75",
". c #E38484",
/* pixels */
"                      ",
" .................... ",
" .................... ",
" .................... ",
" .................... ",
" .................... ",
" .................... ",
" .................... ",
" .................... ",
" .................... ",
" .................... ",
" .................... ",
" .................... ",
" .................... ",
" .................... ",
" .................... ",
" .................... ",
"                      "
};
