/* XPM */
static char *biped_288_10_OnK1[] = {
/* columns rows colors chars-per-pixel */
"24 18 2 1",
"  c #FFFF66",
". c gray75",
/* pixels */
"........................",
".                      .",
".                      .",
".                      .",
".                      .",
".                      .",
".                      .",
".                      .",
".                      .",
".                      .",
".                      .",
".                      .",
".                      .",
".                      .",
".                      .",
".                      .",
".                      .",
"........................"
};
