/* XPM */
static char *biped_30_131_OnK0[] = {
/* columns rows colors chars-per-pixel */
"38 46 45 1",
"  c #6DCF44",
". c #6DD044",
"X c #6ED044",
"o c #6ED144",
"O c #6ED344",
"+ c #6FD344",
"@ c #6FD444",
"# c #6FD544",
"$ c #6FD644",
"% c #70D744",
"& c #70D844",
"* c #70DA44",
"= c #71DA44",
"- c #71DD44",
"; c #72E044",
": c #72E144",
"> c #73E244",
", c #73E344",
"< c #74E544",
"1 c #74E644",
"2 c #76EB44",
"3 c #76EE44",
"4 c #77EF44",
"5 c #7AFC44",
"6 c #7BFF44",
"7 c #7DFF44",
"8 c #7EFF44",
"9 c #7FFF44",
"0 c #80FF44",
"q c #81FF44",
"w c #82FF44",
"e c #83FF44",
"r c #84FF44",
"t c #85FF44",
"y c #86FF44",
"u c #87FF44",
"i c #88FF44",
"p c #89FF44",
"a c #8AFF44",
"s c #8BFF44",
"d c #8CFF44",
"f c #8DFF44",
"g c #8EFF44",
"h c #8FFF44",
"j c gray75",
/* pixels */
"jjjjjjjjjjjjjjjjjjjjjjjjjjjjjjjjjjjjjj",
"jhhhhhhhhhhhhhhhhhhhhhhhhhhhhhhhhhhhhj",
"jhhhhhhhhhhhhhhhhhhhhhhhhhhhhhhhhhhhhj",
"jhhhhhhhhhhhhhhhhhhhhhhhhhhhhhhhhhhhhj",
"jhhhhhhhhhhhhhhhhhhhhhhhhhhhhhhhhhhhhj",
"jhhhhhhhhhhhhhhhhhhhhhhhhhhhhhhhhhhhhj",
"jhhhhhhhhhhhhhhhhhhhhhhhhhhhhhhhhhhhhj",
"jhhhhhhhhhhhhhhhhhhhhhhhhhhhhhhhhhhhhj",
"jhhhhhhhhhhhhhhhhhhhhhhhhhhhhhhhhhhhhj",
"jhhhhhhhhhhhhhhhhhhhhhhhhhhhhhhhhhhhhj",
"jhhhhhhhhhhhhhhhhhhhhhhhhhhhhhhhhhhhaj",
"jhhhhhhhhhhhhhhhhhhhhhhhhhhhhhhhhhhhhj",
"jhhhhhhhhhhhhhhhhhhhhhhhhhhhhhhhhhhhhj",
"jhhhhhhhhhhhhhhhhhhhhhhhhhhhhhhhhhhhhj",
"jhhhhhhhhhhhhhhhhhhhhhhhhhhhhhhhhhhhhj",
"jhhhhhhhhhhhhhhhhhhhhhhhhhhhhhhhhhhhhj",
"jhhhhhhhhhhhhhhhhhhhhhhhhhhhhhhhhhhhhj",
"jhhhhhhhhhhhhhhhhhhhhhhhhhhhhhhhhhhhhj",
"jhhhhhhhhhhhhhhhhhhhhhhhhhhhhhhhhhhhhj",
"jhhhhhhhhhhhhhhhhhhhhhhhhhhhhhhhhhhhhj",
"jhhhhhhhhhhhhhhhhhhhhhhhhhhhhhhhhhhhhj",
"jhhhhhhhhhhhhhhhhhhhhhhhhhhhhhhhhhhhhj",
"jhhhhhhhhhhhhhhhhhhhhhhhhhhhhhhhhhhhhj",
"jahhhhhhhhhhhhhhhhhhhhhhhhhhhhhhhhhhhj",
"juhhhhhhhhhhhhhhhhhhhhhhhhhhhhhhhhhhhj",
"juhhhhhhhhhhhhhhhhhhhhhhhhhhhhhhhhhhhj",
"j9hhhhhhhhhhhhhhhhhhhhhhhhhhhhhhhhhhhj",
"j6hhhhhhhhhhhhhhhhhhhhhhhhhhhhhhhhhhhj",
"j3ahhhhhhhhhhhhhhhhhhhhhhhhhhhhhhhhhhj",
"j;ahhhhhhhhhhhhhhhhhhhhhhhhhhhhhhhhhhj",
"j#uhhhhhhhhhhhhhhhhhhhhhhhhhhhhhhhhhhj",
"j uhhhhhhhhhhhhhhhhhhhhhhhhhhhhhhhhhhj",
"jX9hhhhhhhhhhhhhhhhhhhhhhhhhhhhhhhhhhj",
"j=;whhhhhhhhhhhhhhhhhhhhhhhhhhhhhhhhhj",
"j;#3uhhhhhhhhhhhhhhhhhhhhhhhhhhhhhhhhj",
"j,;#9ahhhhhhhhhhhhhhhhhhhhhhhhhhhhhhhj",
"j,,X9ahhhhhhhhhhhhhhhhhhhhhhhhhhhhhhhj",
"j,,Xwhhhhhhhhhhhhhhhhhhhhhhhhhhhhhhauj",
"j,,#uhhhhhhhhhhhhhhhhhhhhhhhhhhhhaa9,j",
"j,;*uhhhhhhhhhhhhhhhhhhhhhhhhhhhaw3X*j",
"j,,#whhhhhhhhhhhhhhhhhhhhhhhhhhh9-*;,j",
"j,,Xwhhhhhhhhhhhhhhhhhhhhhhhhhhw<*,,,j",
"j,,Xwhhhhhhhhhhhhhhhhhhhhhhhhhh9#;,,,j",
"j,;Xwhhhhhhhhhhhhhhhhhhhhhhhhhu6#,,,,j",
"j,,.wahhhhhhhhhhhhhhhhhhhhhhhhu2=;,,;j",
"jjjjjjjjjjjjjjjjjjjjjjjjjjjjjjjjjjjjjj"
};
