/* XPM */
static char *biped_71_47_OffK1[] = {
/* columns rows colors chars-per-pixel */
"32 15 63 1",
"  c #D07C7C",
". c #D17C7C",
"X c #D27D7D",
"o c #D37E7E",
"O c #D47E7E",
"+ c #D57E7E",
"@ c #D77F7F",
"# c #D87F7F",
"$ c gray75",
"% c #D98080",
"& c #DA8080",
"* c #DB8181",
"= c #DE8282",
"- c #DF8282",
"; c #E08383",
": c #E18383",
"> c #E28383",
", c #E38483",
"< c #E28484",
"1 c #E38484",
"2 c #E88685",
"3 c #EC8787",
"4 c #EF8888",
"5 c #F18A89",
"6 c #F18A8A",
"7 c #FA8D8D",
"8 c #FD8E8F",
"9 c #FF9090",
"0 c #FF9091",
"q c #FF9191",
"w c #FF9192",
"e c #FF9292",
"r c #FF9393",
"t c #FF9494",
"y c #FF9595",
"u c #FF9797",
"i c #FF9898",
"p c #FF9899",
"a c #FF9999",
"s c #FF9A9A",
"d c #FF9C9B",
"f c #FF9C9C",
"g c #FF9D9D",
"h c #FF9D9E",
"j c #FF9E9E",
"k c #FF9F9F",
"l c #FFA0A0",
"z c #FFA0A1",
"x c #FFA1A1",
"c c #FFA2A2",
"v c #FFA4A4",
"b c #FFA5A5",
"n c #FFA6A5",
"m c #FFA6A6",
"M c #FFA7A7",
"N c #FFA7A8",
"B c #FFA8A8",
"V c #FFA8A9",
"C c #FFA9A8",
"Z c #FFA9A9",
"A c #FFA9AA",
"S c #FFAAA9",
"D c #FFAAAA",
/* pixels */
"$$$$$$$$$$$$$$$$$$$$$$$$$$$$$$$$",
"$=>>1111111111>=@o   o++#=12446$",
"$1=#@+++++++oo@>37wwuuahhhhhkkk$",
"$auurwwwwww000uuhkmmMMCCCCCCDDD$",
"$DDCCCCMMMMMmmCDCCDDDDDDDDDDDDD$",
"$DDDCCDCDDDDCDDDDCDDDDDDDDDDDDD$",
"$DDDDDDDDDDDDDDDDDDDDDDDDDDDDDD$",
"$DDDDDDDDDDDDDDDDDDDDDDDDDDDDDD$",
"$DDDDDDDDDDDDDDDDDDDDDDDDDDDDDD$",
"$DDDDDDDDDDDDDDDDDDDDDDDDDDDDDD$",
"$DDDDDDDDDDDDDDDDDDDDDDDDDDDDDD$",
"$MCDDDDDDDDDDDDCDDDDDDDDDDDDDDD$",
"$pMCMCMCMMMMMCMCCCCCCCDDDDDDDDD$",
"$4ahhhhfffaphhhhhhhhkkkckckkmkm$",
"$$$$$$$$$$$$$$$$$$$$$$$$$$$$$$$$"
};
