/* XPM */
static char *biped_261_98_OnK0[] = {
/* columns rows colors chars-per-pixel */
"11 13 6 1",
"  c #88FF44",
". c #89FF44",
"X c #8AFF44",
"o c #8BFF44",
"O c #8FFF44",
"+ c gray75",
/* pixels */
"+++++++++++",
"+ OOOOOOO +",
"+ OOOOOOO +",
"+ OOOOOOO +",
"+ OOOOOOO +",
"+ OOOOOOO +",
"+ OOOOOOO +",
"+ OOOOOOO +",
"+ OOOOOOO +",
"+ OOOOOOO +",
"+ OOOOOOO +",
"+OOOOOOOOO+",
"+++++++++++"
};
