/* XPM */
static char *biped_181_46_OnK0[] = {
/* columns rows colors chars-per-pixel */
"34 20 60 1",
"  c #6DCF44",
". c #6ED044",
"X c #6ED144",
"o c #6ED244",
"O c #6FD344",
"+ c #6FD444",
"@ c #6FD544",
"# c #6FD644",
"$ c #6FD744",
"% c #70D744",
"& c #70D844",
"* c #70D944",
"= c #71DA44",
"- c #71DB44",
"; c #71DC44",
": c #71DD44",
"> c #72DE44",
", c #72DF44",
"< c #72E044",
"1 c #73E244",
"2 c #73E344",
"3 c #74E644",
"4 c #74E744",
"5 c #74E844",
"6 c #75E844",
"7 c #75E944",
"8 c #75EA44",
"9 c #76ED44",
"0 c #77F044",
"q c #77F244",
"w c #78F244",
"e c #78F444",
"r c #79F644",
"t c #79F744",
"y c #79F844",
"u c #7AF944",
"i c #7AFB44",
"p c #7BFC44",
"a c #7BFD44",
"s c #7CFF44",
"d c #7DFF44",
"f c #7EFF44",
"g c #7FFF44",
"h c #80FF44",
"j c #81FF44",
"k c #82FF44",
"l c #83FF44",
"z c #84FF44",
"x c #85FF44",
"c c #86FF44",
"v c #87FF44",
"b c #88FF44",
"n c #89FF44",
"m c #8AFF44",
"M c #8BFF44",
"N c #8CFF44",
"B c #8DFF44",
"V c #8EFF44",
"C c #8FFF44",
"Z c gray75",
/* pixels */
"ZZZZZZZZZZZZZZZZZZZZZZZZZZZZZZZZZZ",
"Zdue972>-%+XXXXXXXXXX   XX++-->>>Z",
"ZCbbbbbbbbxxxkkkkkxxkkkkdauq97223Z",
"ZCCCCCCCCCCCCCCCCCCCCCbbbCxbbxxxxZ",
"ZCCCCCCCCCCCCCCCCCCCCCCCCCCCCCCCCZ",
"ZCCCCCCCCCCCCCCCCCCCCCCCCCCCCCCCCZ",
"ZCCCCCCCCCCCCCCCCCCCCCCCCCCCCCCCCZ",
"ZCCCCCCCCCCCCCCCCCCCCCCCCCCCCCCCCZ",
"ZCCCCCCCCCCCCCCCCCCCCCCCCCCCCCCCCZ",
"ZCCCCCCCCCCCCCCCCCCCCCCCCCCCCCCCCZ",
"ZCCCCCCCCCCCCCCCCCCCCCCCCCCCCCCCCZ",
"ZCCCCCCCCCCCCCCCCCCCCCCCCCCCCCCCCZ",
"ZCCCCCCCCCCCCCCCCCCCCCCCCCCCCCCCCZ",
"ZCCCCCCCCCCCCCCCCCCCCCCCCCCCCCCCCZ",
"ZCCCCCCCCCCCCCCCCCCCCCCCCCCbCbbbxZ",
"ZCCCCCCCCCCCCCCCCCCbxxkdkddaddueqZ",
"ZCCCCCCCCCCbbxxkddduq42-+++++++++Z",
"ZCCbCbbxkdduq3>$+XX++>>2222222222Z",
"Zkkde7>+X  X%>2222222222222222222Z",
"ZZZZZZZZZZZZZZZZZZZZZZZZZZZZZZZZZZ"
};
