/* XPM */
static char *biped_73_221_OffK1[] = {
/* columns rows colors chars-per-pixel */
"13 13 58 1",
"  c #FF5757",
". c #FF5858",
"X c #FF5959",
"o c #FF5A5A",
"O c #FF5B5B",
"+ c #FF5C5C",
"@ c #FF5D5D",
"# c #FF5E5E",
"$ c #FF5F5F",
"% c #EB7F7F",
"& c #ED7D7D",
"* c #EC7E7E",
"= c #EC7F7F",
"- c #EE7D7D",
"; c #EF7D7D",
": c #FF6060",
"> c #FF6161",
", c #FF6262",
"< c #FF6363",
"1 c #FF6464",
"2 c #FF6565",
"3 c #FF6666",
"4 c #FF6767",
"5 c #FF6868",
"6 c #FF6969",
"7 c #FF6A6A",
"8 c #FF6B6B",
"9 c #FF6C6C",
"0 c #FF6D6D",
"q c #FF6E6E",
"w c #FF6F6F",
"e c #F07B7B",
"r c #F17B7B",
"t c #F27B7B",
"y c #F37A7A",
"u c #F07C7C",
"i c #F57878",
"p c #F57979",
"a c #F47A7A",
"s c #F67878",
"d c #F87777",
"f c #F97676",
"g c #FA7575",
"h c #FD7373",
"j c #FF7070",
"k c #FF7171",
"l c #FF7272",
"z c gray75",
"x c #E38484",
"c c #E48383",
"v c #E58383",
"b c #E68282",
"n c #E68383",
"m c #E48484",
"M c #E58484",
"N c #E88181",
"B c #E98181",
"V c #E88282",
/* pixels */
"zzzzzzzzzzzzz",
"zxm%g8,3l%ccz",
"zmu8o ooo8dcz",
"zN9o ,88,$8&z",
"zu$ 8-bby8,hz",
"z9o,ybxxxd88z",
"z9o3-mxxcy88z",
"zlo,ymxxbd88z",
"zy,o9%cm-83gz",
"zNl,$399839Nz",
"zx-l,$,,3lumz",
"zxbbyl99iNmmz",
"zzzzzzzzzzzzz"
};
