/* XPM */
static char *biped_214_9_OnK1[] = {
/* columns rows colors chars-per-pixel */
"21 22 35 1",
"  c #FF6666",
". c #FF6766",
"X c #FF7366",
"o c #FF7466",
"O c #FF7966",
"+ c #FF7B66",
"@ c #FF7E66",
"# c #FF8166",
"$ c #FF8466",
"% c #FF8E66",
"& c #FF9266",
"* c #FFB266",
"= c #FFBD66",
"- c #FFBE66",
"; c #FFC966",
": c #FFCA66",
"> c #FFCE66",
", c #FFD366",
"< c #FFD766",
"1 c #FFD866",
"2 c #FFD966",
"3 c #FFE066",
"4 c #FFE666",
"5 c #FFE966",
"6 c #FFEA66",
"7 c #FFEE66",
"8 c #FFEF66",
"9 c #FFF366",
"0 c #FFF566",
"q c #FFF766",
"w c #FFFA66",
"e c #FFFD66",
"r c #FFFE66",
"t c #FFFF66",
"y c gray75",
/* pixels */
"yyyyyyyyyyyyyyyyyyyyy",
"yttttttttt>>wttttttty",
"ytttttttt0++6ttttttty",
"ytttttttt0..4ttttttty",
"ytttttttt0  4ttttttty",
"ytttttttt9 .4ttttttty",
"ytttttttt0..4ttttttty",
"ytttttttt0..4ttttttty",
"ytttttttt0  4ttttttty",
"yt00999094 .<9999090y",
"y;&#$$####..+$###$#%y",
"y=+................Xy",
"y7<,,,,,,;  ;,,,,,,<y",
"ytttttwtw7  2tttwttty",
"ytttttttt0  4ttttttty",
"ytttttttt0  4ttttttty",
"ytttttttt0. 4ttttttty",
"ytttttttt0..4ttttttty",
"ytttttttt0 .4ttttttty",
"ytttttttt0XX4ttttttty",
"yttttttttt**0ttttttty",
"yyyyyyyyyyyyyyyyyyyyy"
};
