/* XPM */
static char *biped_198_146_OffK0[] = {
/* columns rows colors chars-per-pixel */
"15 15 47 1",
"  c #0E00EF",
". c #0F00EE",
"X c blue",
"o c #0B00F2",
"O c #0C02F3",
"+ c #1207EF",
"@ c #1B05E4",
"# c #1C06E4",
"$ c #5130C0",
"% c #6B45AF",
"& c #6D47AE",
"* c #6E48AD",
"= c #714BAB",
"- c #714CAB",
"; c #6B6BBD",
": c #6B6BBE",
"> c #6C69BC",
", c #6F6CBB",
"< c #6D6DBC",
"1 c #7260B3",
"2 c #7266B5",
"3 c #7367B4",
"4 c #706DB9",
"5 c #716CB8",
"6 c #786DB2",
"7 c #796EB1",
"8 c #786EB2",
"9 c #7A6FB0",
"0 c #554AC7",
"q c gray62",
"w c #9E9E9F",
"e c #9183A2",
"r c #918EA5",
"t c #918EA6",
"y c #958AA1",
"u c #958BA0",
"i c #968BA0",
"p c #9696A3",
"a c #9796A3",
"s c #9595A4",
"d c #9595A5",
"f c #9695A4",
"g c #9696A4",
"h c #9696A5",
"j c #9896A1",
"k c #9996A1",
"l c gray75",
/* pixels */
"lllllllllllllll",
"lqqqqh4+,sqqqql",
"lqqqqh:X>dqqqql",
"lqqqqh:X>sqqqql",
"lqqqwh<X<pqqqql",
"laaaar>X>raqaal",
"l966620X036669l",
"l#....oXo.+..#l",
"l=***%$X$%***=l",
"liyyye1X1eyyyyl",
"lqqqwa4X5pqwqql",
"lqqqqh<X:hqqqql",
"lqqqqh>X:hqqqql",
"lqqqqh>o,pqqqql",
"lllllllllllllll"
};
