/* XPM */
static char *biped_71_47_OnK1[] = {
/* columns rows colors chars-per-pixel */
"32 15 12 1",
"  c #FFF166",
". c #FFF266",
"X c #FFF366",
"o c #FFF466",
"O c #FFF566",
"+ c #FFF666",
"@ c #FFF866",
"# c #FFF966",
"$ c #FFFA66",
"% c #FFFC66",
"& c #FFFF66",
"* c gray75",
/* pixels */
"********************************",
"*&&&&&&&&&&&&&&&#o    o#&&&&&&&*",
"*&&&#oooo#oooo#&&&&&&&&&&&&&&&&*",
"*&&&&&&&&&&&&&&&&&&&&&&&&&&&&&&*",
"*&&&&&&&&&&&&&&&&&&&&&&&&&&&&&&*",
"*&&&&&&&&&&&&&&&&&&&&&&&&&&&&&&*",
"*&&&&&&&&&&&&&&&&&&&&&&&&&&&&&&*",
"*&&&&&&&&&&&&&&&&&&&&&&&&&&&&&&*",
"*&&&&&&&&&&&&&&&&&&&&&&&&&&&&&&*",
"*&&&&&&&&&&&&&&&&&&&&&&&&&&&&&&*",
"*&&&&&&&&&&&&&&&&&&&&&&&&&&&&&&*",
"*&&&&&&&&&&&&&&&&&&&&&&&&&&&&&&*",
"*&&&&&&&&&&&&&&&&&&&&&&&&&&&&&&*",
"*&&&&&&&&&&&&&&&&&&&&&&&&&&&&&&*",
"********************************"
};
