/* XPM */
static char *biped_89_221_OffK1[] = {
/* columns rows colors chars-per-pixel */
"13 13 50 1",
"  c #FF5656",
". c #FF5858",
"X c #FF5959",
"o c #FF5A5A",
"O c #FF5B5B",
"+ c #FF5D5D",
"@ c #FF5E5E",
"# c #FF5F5F",
"$ c #EA7F7F",
"% c #EB7F7F",
"& c #EC7F7F",
"* c #ED7E7E",
"= c #EF7C7C",
"- c #EF7D7D",
"; c #FF6060",
": c #FF6161",
"> c #FF6262",
", c #FF6363",
"< c #FF6464",
"1 c #FF6666",
"2 c #FF6767",
"3 c #FF6868",
"4 c #FF6969",
"5 c #FF6A6A",
"6 c #FF6B6B",
"7 c #FF6C6C",
"8 c #FF6D6D",
"9 c #FF6E6E",
"0 c #F17B7B",
"q c #F27B7B",
"w c #F07C7C",
"e c #F47979",
"r c #F57979",
"t c #F67878",
"y c #F97676",
"u c #FB7575",
"i c #FF7070",
"p c #FF7171",
"a c #FE7272",
"s c #FF7272",
"d c gray75",
"f c #E38484",
"g c #E58383",
"h c #E68282",
"j c #E48484",
"k c #E88181",
"l c #E88282",
"z c #EA8080",
"x c #EA8181",
"c c #EB8080",
/* pixels */
"ddddddddddddd",
"dff%u6,1s*ggd",
"djw6o o o6wfd",
"dx7oo,66,,7xd",
"dtOo6*gxt61wd",
"d7o,*gffgt7sd",
"d6o1gjfff*s6d",
"d7o1*fffj*77d",
"dw,o7xjjxs7ud",
"dh7,O6ss77sxd",
"dj&s,O,16s*jd",
"djfxqs6stxjjd",
"ddddddddddddd"
};
