/* XPM */
static char *biped_230_124_OnK1[] = {
/* columns rows colors chars-per-pixel */
"17 12 11 1",
"  c #FFF466",
". c #FFF666",
"X c #FFF766",
"o c #FFF866",
"O c #FFF966",
"+ c #FFFA66",
"@ c #FFFC66",
"# c #FFFD66",
"$ c #FFFE66",
"% c #FFFF66",
"& c gray75",
/* pixels */
"&&&&&&&&&&&&&&&&&",
"&%%%%%%%%%%%%%%%&",
"&%%%%%%O.%%%%%%%&",
"&O%%%%%%%%O%%%%%&",
"&%%%%%%%%%%O%%%%&",
"&%%%%%%%%%%%O%%%&",
"&%%%%%%%%%%%% %%&",
"&%%%%%%%%%%%%%O%&",
"&%%%%%%%%%%%%%%O&",
"&.%%%%%%%%%%%%%%&",
"&O%%%%%%%%%%%%%%&",
"&&&&&&&&&&&&&&&&&"
};
