/* XPM */
static char *biped_165_42_OnK0[] = {
/* columns rows colors chars-per-pixel */
"14 13 32 1",
"  c #6FD544",
". c #6FD644",
"X c #70D644",
"o c #70D744",
"O c #70D844",
"+ c #71DA44",
"@ c #71DD44",
"# c #72DE44",
"$ c #73E244",
"% c #73E344",
"& c #74E644",
"* c #75E844",
"= c #75EB44",
"- c #77EF44",
"; c #78F244",
": c #78F444",
"> c #79F644",
", c #7BFD44",
"< c #7CFF44",
"1 c #7DFF44",
"2 c #7FFF44",
"3 c #80FF44",
"4 c #82FF44",
"5 c #84FF44",
"6 c #86FF44",
"7 c #87FF44",
"8 c #8AFF44",
"9 c #8CFF44",
"0 c #8DFF44",
"q c #8EFF44",
"w c #8FFF44",
"e c gray75",
/* pixels */
"eeeeeeeeeeeeee",
"e;+ @%%%%%%%%e",
"e73:@+   +++@e",
"eww71,,:-=&&%e",
"ewwwww8873711e",
"ewwwwwwwwwwwwe",
"ewwwwwwwwwwwwe",
"ewwwwwwwwwwwwe",
"ewwwwwwwwwwwwe",
"ewwwwwwwwwwwwe",
"ewwwwwwwwwwwwe",
"ewwwwwwwwwwwwe",
"eeeeeeeeeeeeee"
};
