/* XPM */
static char *biped_103_73_OnK1[] = {
/* columns rows colors chars-per-pixel */
"34 18 2 1",
"  c #FFFF66",
". c gray75",
/* pixels */
"..................................",
".                                .",
".                                .",
".                                .",
".                                .",
".                                .",
".                                .",
".                                .",
".                                .",
".                                .",
".                                .",
".                                .",
".                                .",
".                                .",
".                                .",
".                                .",
".                                .",
".................................."
};
