/* XPM */
static char *biped_26_120_OffK0[] = {
/* columns rows colors chars-per-pixel */
"10 10 38 1",
"  c gray75",
". c #C3C3C3",
"X c #C9CACA",
"o c gray84",
"O c #DADBDB",
"+ c #E6E6E6",
"@ c #E8E9E8",
"# c #EDECEC",
"$ c #F1F1F2",
"% c #F2F2F3",
"& c #F3F3F4",
"* c gray97",
"= c #FAFBFA",
"- c #FAFBFB",
"; c #FBFBFA",
": c gray99",
"> c #FCFDFC",
", c #FCFDFD",
"< c #FDFDFD",
"1 c #FDFDFE",
"2 c #FDFDFF",
"3 c #FCFFFC",
"4 c #FDFEFD",
"5 c #FDFFFD",
"6 c #FDFEFE",
"7 c #FDFEFF",
"8 c #FDFFFE",
"9 c #FEFCFC",
"0 c #FEFCFD",
"q c #FFFDFD",
"w c #FEFCFE",
"e c #FEFDFE",
"r c #FEFDFF",
"t c #FEFEFC",
"y c #FEFEFD",
"u c #FFFEFD",
"i c #FEFEFF",
"p c #FFFEFF",
/* pixels */
"          ",
" 88>889#. ",
" 888889*o ",
" 8988899+ ",
" 98-9989% ",
" $8,9889, ",
" +,98,899 ",
" O,899889 ",
" X$888898 ",
"          "
};
