/* XPM */
static char *biped_123_225_OffK0[] = {
/* columns rows colors chars-per-pixel */
"15 13 86 1",
"  c #8E8E8E",
". c #8F9090",
"X c gray57",
"o c #929292",
"O c #939393",
"+ c gray58",
"@ c #959595",
"# c gray59",
"$ c #979797",
"% c #989898",
"& c gray60",
"* c #9A9A9A",
"= c gray61",
"- c #9D9D9D",
"; c gray62",
": c #9F9F9F",
"> c gray64",
", c #A4A5A5",
"< c #A5A5A5",
"1 c gray66",
"2 c #A8A9A8",
"3 c #A9A8A8",
"4 c #B1B1B1",
"5 c #B3B2B2",
"6 c #B4B4B4",
"7 c gray75",
"8 c #C3C3C3",
"9 c #C6C7C7",
"0 c gray79",
"q c #C9C9CA",
"w c #C9CACA",
"e c #CAC9C9",
"r c #D1D2D1",
"t c #D5D5D5",
"y c #D6D6D5",
"u c #D6D7D6",
"i c #D8D8D8",
"p c #DBDADB",
"a c #DCDCDB",
"s c gainsboro",
"d c #DFE0DF",
"f c #E4E5E5",
"g c #E5E6E4",
"h c #E7E7E9",
"j c #E9E9E9",
"k c #EEEEEE",
"l c #F4F3F3",
"z c #F6F6F7",
"x c #F7F6F6",
"c c #F7F6F7",
"v c #F7F7F6",
"b c gray97",
"n c #F8F8F7",
"m c #F9F9F8",
"M c #FBFCFB",
"N c #FCFBFD",
"B c #FCFDFD",
"V c #FDFCFD",
"C c #FDFDFC",
"Z c #FDFDFD",
"A c #FDFCFE",
"S c #FDFDFE",
"D c #FDFDFF",
"F c #FCFEFD",
"G c #FDFEFC",
"H c #FDFEFD",
"J c #FDFFFD",
"K c #FDFEFE",
"L c #FDFEFF",
"P c #FDFFFF",
"I c #FEFCFC",
"U c #FEFDFC",
"Y c #FEFDFD",
"T c #FFFCFD",
"R c #FFFDFC",
"E c #FFFDFD",
"W c #FEFDFE",
"Q c #FFFCFF",
"! c #FEFEFD",
"~ c #FEFFFD",
"^ c #FFFEFC",
"/ c #FFFEFD",
"( c #FEFEFE",
") c #FEFFFE",
"_ c #FFFEFF",
"` c gray100",
/* pixels */
"778777777777777",
"7;;;* .,8ifjhf7",
"7;;@@29skc!!BB7",
"7;@*6ylN!!!!!!7",
"7=O4dm!!!!!!B!7",
"7*:rM!!!!N!N!B7",
"7$>u!NN!!!!!!B7",
"7O3p!!!!!!!!B!7",
"7O3p!!!!!!!!!B7",
"7@,yccmccccccc7",
"7%*6eeeeqweeqq7",
"7=O           7",
"777777777777777"
};
