/* XPM */
static char *biped_183_159_OffK1[] = {
/* columns rows colors chars-per-pixel */
"11 11 25 1",
"  c #FB775C",
". c #FB775D",
"X c #FD7659",
"o c #FC765B",
"O c #FD765A",
"+ c #FD765B",
"@ c #FC775C",
"# c #EE7E73",
"$ c #ED7F75",
"% c #EE7F74",
"& c #F57A67",
"* c #F77965",
"= c #F67A65",
"- c #F77A65",
"; c #F67A66",
": c #F47B68",
"> c #F57B68",
", c #F87963",
"< c #EC8076",
"1 c #EC8077",
"2 c #EA8079",
"3 c gray75",
"4 c #E58382",
"5 c #E58383",
"6 c #E48484",
/* pixels */
"33333333333",
"3651,O,1443",
"351&OOO&143",
"32:@XOOO:23",
"3: XXXXX :3",
"3 OXXXXXOo3",
"3 OOXXXXXo3",
"3&OXXXXXO,3",
"3<=OXXXO&<3",
"34#,OXO,#43",
"33333333333"
};
