/* XPM */
static char *biped_123_225_OnK1[] = {
/* columns rows colors chars-per-pixel */
"15 13 11 1",
"  c #FFF466",
". c #FFF666",
"X c #FFF766",
"o c #FFF866",
"O c #FFF966",
"+ c #FFFA66",
"@ c #FFFB66",
"# c #FFFC66",
"$ c #FFFD66",
"% c #FFFF66",
"& c gray75",
/* pixels */
"&&&&&&&&&&&&&&&",
"&%%%%  %%%%%%%&",
"&%%%%%%%%%%%%%&",
"&%%%%%%%%%%%%%&",
"&%X%%%%%%%%%%%&",
"&%%%%%%%%%%%%%&",
"&%%%%%%%%%%%%%&",
"&X%%%%%%%%%%%%&",
"&X%%%%%%%%%%%%&",
"&%%%%%%%%%%%%%&",
"&%%%%%%%%%%%%%&",
"&%X           &",
"&&&&&&&&&&&&&&&"
};
