/* XPM */
static char *biped_189_111_OffK1[] = {
/* columns rows colors chars-per-pixel */
"17 17 25 1",
"  c #FF4444",
". c #FF4545",
"X c #FF4646",
"o c #FF4848",
"O c #FF4C4C",
"+ c #FF4E4E",
"@ c #FF4F4F",
"# c #FF5151",
"$ c #FF5555",
"% c #FF5757",
"& c #FF5858",
"* c #EC7F7F",
"= c #ED7E7E",
"- c #FF6464",
"; c #FF6565",
": c #FF6B6B",
"> c #FF6C6C",
", c #FA7575",
"< c #FB7575",
"1 c gray75",
"2 c #E38484",
"3 c #E48484",
"4 c #E88181",
"5 c #E98080",
"6 c #E98181",
/* pixels */
"11111111111111111",
"1226,;&#O#&;,6221",
"12*>&OXXXXXo&>*21",
"16>$X X XXX o$>61",
"1,&oXX      XX&,1",
"1;o           O;1",
"1$oX          o&1",
"1#XX         XX#1",
"1#X           XO1",
"1OXX          X#1",
"1&oX          o&1",
"1;o          XO;1",
"1,$oX        o$,1",
"16:$oX     XX$>61",
"12*>$OoXXXoO&:*21",
"1226,;&#O#&;,6221",
"11111111111111111"
};
