/* XPM */
static char *biped_47_8_OffK0[] = {
/* columns rows colors chars-per-pixel */
"23 23 58 1",
"  c #BC6D6D",
". c #BD6C6C",
"X c #BE6C6C",
"o c #B37C7C",
"O c #B37D7D",
"+ c #B47C7C",
"@ c #B47D7D",
"# c #DF3232",
"$ c #DD3636",
"% c #DD3737",
"& c #DE3535",
"* c #DE3636",
"= c #DC3838",
"- c #F70B0B",
"; c #F70C0C",
": c #FB0505",
"> c #FA0707",
", c #FE0000",
"< c red",
"1 c #F90808",
"2 c #F21313",
"3 c #F31313",
"4 c #F21414",
"5 c #F31414",
"6 c #E62727",
"7 c #E52929",
"8 c #E62828",
"9 c #E62929",
"0 c #E03030",
"q c #E13030",
"w c #E13131",
"e c #E03232",
"r c #CD5151",
"t c #CD5252",
"y c #CE5151",
"u c #D34747",
"i c #D44646",
"p c #C36262",
"a c #C46161",
"s c #C56161",
"d c gray62",
"f c #9F9E9E",
"g c #A59393",
"h c #A79191",
"j c #A69393",
"k c #A79292",
"l c #A79393",
"z c #A59595",
"x c #A49696",
"c c #A09B9B",
"v c #A19B9B",
"b c #A29B9B",
"n c #A09C9C",
"m c #A09D9D",
"M c #A19C9C",
"N c #A09E9E",
"B c #A89191",
"V c gray75",
/* pixels */
"VVVVVVVVVVVVVVVVVVVVVVV",
"VdddddjOpu%e%upOjmddddV",
"VdddxOy82;1:1;28tOxdddV",
"Vdmj =4:<<<<<<<:4= gddV",
"Vdz.#-<<<<<<<<<<<-# xdV",
"Vb+=-<<<<<<<<<<<<<-=obV",
"Vjy4<<<<<<<<<<<<<<<2yjV",
"VO8:<<<<<<<<<<<<<<<:6OV",
"Vp4<<<<<<<<<<<<<<<<<2sV",
"Vu;<<<<<<<<<<<<<<<<<;uV",
"V%1<<<<<<<<<<<<<<<<<1%V",
"Ve:<<<<<<<<<<<<<<<<<:#V",
"V%:<<<<<<<<<<<<<<<<<:%V",
"Vi;<<<<<<<<<<<<<<<<<;iV",
"Vs2<<<<<<<<<<<<<<<<<4sV",
"V+6:<<<<<<<<<<<<<<<:8OV",
"Vjy2<<<<<<<<<<<<<<<2yBV",
"Vb+%1<<<<<<<<<<<<<;=+mV",
"VdzX#-<<<<<<<<<<<-e.zdV",
"Vdmj.=4:<<<<<<<:2%.BmdV",
"Vddmz+y6311:1;38y+zmddV",
"VddmdmB+si%e%is+BbmdddV",
"VVVVVVVVVVVVVVVVVVVVVVV"
};
