/* XPM */
static char *biped_156_38_OnK0[] = {
/* columns rows colors chars-per-pixel */
"8 17 2 1",
"  c #8FFF44",
". c gray75",
/* pixels */
"........",
".      .",
".      .",
".      .",
".      .",
".      .",
".      .",
".      .",
".      .",
".      .",
".      .",
".      .",
".      .",
".      .",
".      .",
".      .",
"........"
};
