/* XPM */
static char *biped_69_146_OffK0[] = {
/* columns rows colors chars-per-pixel */
"11 20 92 1",
"  c #8D8D8D",
". c #8E8E8E",
"X c gray56",
"o c #909090",
"O c gray57",
"+ c #919192",
"@ c #929292",
"# c gray58",
"$ c #959595",
"% c #959695",
"& c gray59",
"* c #979797",
"= c #979897",
"- c #989898",
"; c gray60",
": c #9A9A9A",
"> c #9A9A9B",
", c #9B9B9B",
"< c gray61",
"1 c #9D9D9D",
"2 c gray62",
"3 c gray63",
"4 c #A5A5A5",
"5 c #A6A5A6",
"6 c #A7A6A6",
"7 c #AAAAAA",
"8 c #ADADAE",
"9 c #AEAEAF",
"0 c #B2B2B2",
"q c #B6B6B6",
"w c #B8B8B9",
"e c #BEBDBE",
"r c gray",
"t c gray75",
"y c #C1C2C2",
"u c gray79",
"i c #CBCCCC",
"p c gray82",
"a c #D1D1D2",
"s c #D5D5D5",
"d c gray85",
"f c gray87",
"g c #E4E4E4",
"h c #E7E6E6",
"j c #E7E7E6",
"k c gray91",
"l c #ECECEC",
"z c gray94",
"x c gray96",
"c c #F6F6F6",
"v c #F7F8F7",
"b c #F9F8F8",
"n c #FAFBFB",
"m c #FBFBFB",
"M c #FBFBFC",
"N c #FBFCFC",
"B c gray99",
"V c #FCFCFD",
"C c #FCFDFC",
"Z c #FCFDFD",
"A c #FDFCFC",
"S c #FDFCFD",
"D c #FDFDFD",
"F c #FCFCFF",
"G c #FCFDFE",
"H c #FCFDFF",
"J c #FDFCFF",
"K c #FDFDFE",
"L c #FDFDFF",
"P c #FCFEFD",
"I c #FDFEFC",
"U c #FDFEFD",
"Y c #FDFFFC",
"T c #FDFFFD",
"R c #FCFEFE",
"E c #FCFFFE",
"W c #FDFEFE",
"Q c #FDFEFF",
"! c #FDFFFE",
"~ c #FEFCFC",
"^ c #FEFDFC",
"/ c #FEFCFE",
"( c #FFFCFE",
") c #FFFDFE",
"_ c #FFFDFF",
"` c #FEFEFC",
"' c #FEFEFD",
"] c #FEFFFD",
"[ c #FFFEFD",
"{ c #FFFFFD",
"} c #FEFEFE",
"| c #FFFEFF",
/* pixels */
"ttttttttttt",
"t]]]H^^ni#t",
"eF](H^^xy.t",
"e](]]C^lw t",
"e]]HHHHg0 t",
"e]HHFH]f8 t",
"y]]]H(]d7ot",
"e]H]^]mp4@t",
"t]]](]ce,=t",
"t]H]n(s3o2t",
"t(]]ch2#22t",
"t]]Fh6$=22t",
"tHnjto=222t",
"tHlu=*2222t",
"tnp4o32222t",
"tf9$=22222t",
"tq==322222t",
"t=$2222222t",
"t$22222222t",
"ttttttttttt"
};
