/* XPM */
static char *biped_217_47_OnK0[] = {
/* columns rows colors chars-per-pixel */
"32 15 47 1",
"  c #6ED044",
". c #6ED144",
"X c #6ED244",
"o c #6ED344",
"O c #6FD444",
"+ c #6FD544",
"@ c #6FD644",
"# c #70D744",
"$ c #70D944",
"% c #70DA44",
"& c #71DA44",
"* c #71DB44",
"= c #71DD44",
"- c #71DE44",
"; c #72DF44",
": c #72E044",
"> c #72E144",
", c #73E244",
"< c #73E344",
"1 c #73E544",
"2 c #74E844",
"3 c #75EB44",
"4 c #75EC44",
"5 c #76EE44",
"6 c #77F144",
"7 c #7AF944",
"8 c #7BFD44",
"9 c #7CFF44",
"0 c #7DFF44",
"q c #7EFF44",
"w c #7FFF44",
"e c #80FF44",
"r c #81FF44",
"t c #82FF44",
"y c #83FF44",
"u c #84FF44",
"i c #85FF44",
"p c #86FF44",
"a c #87FF44",
"s c #88FF44",
"d c #89FF44",
"f c #8BFF44",
"g c #8CFF44",
"h c #8DFF44",
"j c #8EFF44",
"k c #8FFF44",
"l c gray75",
/* pixels */
"llllllllllllllllllllllllllllllll",
"l6642,-*@ooo oo@,,<,<<<<<<<<,,=l",
"lssayaaayywyww72,*oooooo@o@@@,<l",
"lkkkkkkkkkksksaayw888wwwwwwwwwyl",
"lkkkkkkkkkkkkkkkkksskkkskskkkkkl",
"lkkkkkkkkkkkkkkkkkkkkkkkkkkkkkkl",
"lkkkkkkkkkkkkkkkkkkkkkkkkkkkkkkl",
"lkkkkkkkkkkkkkkkkkkkkkkkkkkkkkkl",
"lkkkkkkkkkkkkkkkkkkkkkkkkkkkkkkl",
"lkkkkkkkkkkkkkkkkkkkkkkkkkkkkkkl",
"lkkkkkkkkkkkkkkkkkkkkkkkkkkkkkkl",
"lkkkkkkkkkkkkkkkkkkkkkkkkkkkkkkl",
"lkkkkkkkkkkkkskkkkkkkkskkkskkkyl",
"lsssssssksaaaaaaayayyyayyaaayy4l",
"llllllllllllllllllllllllllllllll"
};
