/* XPM */
static char *biped_165_42_OffK1[] = {
/* columns rows colors chars-per-pixel */
"14 13 34 1",
"  c #D57E7E",
". c #D67E7E",
"X c #D67E7F",
"o c #D77F7F",
"O c gray75",
"+ c #D98080",
"@ c #DA8080",
"# c #DB8080",
"$ c #DD8181",
"% c #DE8282",
"& c #E28383",
"* c #E38484",
"= c #E68585",
"- c #E88686",
"; c #EB8787",
": c #EF8989",
"> c #F28A8A",
", c #F48B8B",
"< c #F78C8C",
"1 c #FE8E8E",
"2 c #FF8F8F",
"3 c #FF9191",
"4 c #FF9494",
"5 c #FF9696",
"6 c #FF9899",
"7 c #FF9B9B",
"8 c #FF9E9E",
"9 c #FFA3A3",
"0 c #FFA6A6",
"q c #FFA6A7",
"w c #FFA7A7",
"e c #FFA8A8",
"r c #FFA9A9",
"t c #FFAAAA",
/* pixels */
"OOOOOOOOOOOOOO",
"O>@ $***&=&=&O",
"O85,$o  oooo$O",
"Otq8521<:;;=&O",
"Ottttqq987752O",
"OttttttttttttO",
"OttttttttttttO",
"OttttttttttttO",
"OttttttttttttO",
"OttttttttttttO",
"OttttttttttttO",
"OttttttttttttO",
"OOOOOOOOOOOOOO"
};
