/* XPM */
static char *biped_240_146_OffK0[] = {
/* columns rows colors chars-per-pixel */
"11 20 90 1",
"  c #8D8D8D",
". c #8E8E8E",
"X c #8E8E8F",
"o c gray56",
"O c #909090",
"+ c gray57",
"@ c #929292",
"# c #939393",
"$ c #939494",
"% c #959594",
"& c #959595",
"* c gray59",
"= c #979797",
"- c #979897",
"; c #989898",
": c #989899",
"> c gray60",
", c #9A9A9A",
"< c #9B9B9B",
"1 c gray61",
"2 c #9C9D9D",
"3 c #9D9D9D",
"4 c gray62",
"5 c #A0A0A0",
"6 c #A4A4A5",
"7 c gray65",
"8 c #AAAAAA",
"9 c #AEAEAE",
"0 c #AFAEAF",
"q c #B2B2B2",
"w c #B8B7B7",
"e c #B9B9B9",
"r c #BEBDBD",
"t c #BFBEBE",
"y c gray75",
"u c gray76",
"i c #CBCACA",
"p c #CBCBCA",
"a c #D2D1D2",
"s c #D2D3D2",
"d c gray83",
"f c #DADAD9",
"g c #DFDEDF",
"h c #DFDFDE",
"j c gray89",
"k c gray90",
"l c #E4E5E6",
"z c #E9E9E8",
"x c gray93",
"c c #F2F0F1",
"v c gray96",
"b c #F6F6F6",
"n c #F8F7F7",
"m c #F9F7F8",
"M c #F9FAF9",
"N c #FBFBFA",
"B c #FBFBFB",
"V c gray99",
"C c #FCFDFD",
"Z c #FDFCFD",
"A c #FDFDFC",
"S c #FDFDFD",
"D c #FCFDFE",
"F c #FDFDFE",
"G c #FCFEFC",
"H c #FCFEFD",
"J c #FCFFFD",
"K c #FDFEFD",
"L c #FDFFFD",
"P c #FCFFFE",
"I c #FDFEFE",
"U c #FDFEFF",
"Y c #FDFFFE",
"T c #FDFFFF",
"R c #FEFCFC",
"E c #FEFDFD",
"W c #FFFDFD",
"Q c #FEFDFE",
"! c #FEFDFF",
"~ c #FFFDFE",
"^ c #FEFEFC",
"/ c #FEFEFD",
"( c #FEFFFD",
") c #FFFEFC",
"_ c #FFFEFD",
"` c #FFFFFD",
"' c #FEFEFE",
"] c #FEFEFF",
"[ c #FFFEFF",
"{ c gray100",
/* pixels */
"yyyyyyyyyyy",
"y%pB//V//Vy",
"u ub///VV/y",
"y ex//VV//y",
"y qk////V/y",
"y 9h///V//y",
"y@8f/////Vy",
"y@6s///V//y",
"y%,ycPPP//y",
"y4@5dBP/P/y",
"y4,#4jm///y",
"y44,%6jB//y",
"y444:Xyz//y",
"y4444%:pc/y",
"y44444@6aby",
"y44444,#0gy",
"y444444=,wy",
"y4444444%,y",
"y44444444%y",
"yyyyyyyyyyy"
};
