/* XPM */
static char *biped_250_8_OnK1[] = {
/* columns rows colors chars-per-pixel */
"23 23 35 1",
"  c #FF6666",
". c #FF6B66",
"X c #FF6D66",
"o c #FF6E66",
"O c #FF7166",
"+ c #FF7266",
"@ c #FF7966",
"# c #FF7A66",
"$ c #FF8E66",
"% c #FF8F66",
"& c #FF9666",
"* c #FF9766",
"= c #FF9866",
"- c #FF9B66",
"; c #FF9C66",
": c #FF9D66",
"> c #FF9E66",
", c #FFAC66",
"< c #FFAD66",
"1 c #FFB766",
"2 c #FFB866",
"3 c #FFC766",
"4 c #FFC866",
"5 c #FFD266",
"6 c #FFD366",
"7 c #FFE166",
"8 c #FFE266",
"9 c #FFE366",
"0 c #FFF766",
"q c #FFF866",
"w c #FFF966",
"e c #FFFB66",
"r c #FFFC66",
"t c #FFFF66",
"y c gray75",
/* pixels */
"yyyyyyyyyyyyyyyyyyyyyyy",
"yttttt094,;*;,49wttttty",
"ytttt92$@OoooO@&29tttty",
"yttw6;@.       .@;5wtty",
"ytw5=O           O=6tty",
"yt9;O             O;9ty",
"yw1@               @10y",
"y9$.               .$9y",
"y4@                 @4y",
"y,O                 O,y",
"y;o                 o;y",
"y=.                 o*y",
"y;o                 o;y",
"y,O                 O,y",
"y3@                 @4y",
"y9$.               .$9y",
"y02@               @20y",
"yt9;O             O;9ty",
"ytw5=O           O=5wty",
"yttw5;@.       .@;5wtty",
"ytttt91$@Ooooo@$19wttty",
"yttttt094,;*=,390ttttty",
"yyyyyyyyyyyyyyyyyyyyyyy"
};
