/* XPM */
static char *biped_218_221_OffK1[] = {
/* columns rows colors chars-per-pixel */
"13 13 55 1",
"  c #FF5656",
". c #FF5858",
"X c #FF5959",
"o c #FF5A5A",
"O c #FF5B5B",
"+ c #FF5D5D",
"@ c #FF5E5E",
"# c #FF5F5F",
"$ c #EA7F7F",
"% c #EB7F7F",
"& c #ED7D7D",
"* c #EC7F7F",
"= c #ED7E7E",
"- c #EE7D7D",
"; c #EF7C7C",
": c #FF6060",
"> c #FF6161",
", c #FF6262",
"< c #FF6363",
"1 c #FF6464",
"2 c #FF6767",
"3 c #FF6969",
"4 c #FF6B6B",
"5 c #FF6C6C",
"6 c #FF6D6D",
"7 c #FF6E6E",
"8 c #FF6F6F",
"9 c #F17B7B",
"0 c #F27A7A",
"q c #F37A7A",
"w c #F47979",
"e c #F57979",
"r c #F67878",
"t c #F87676",
"y c #F87777",
"u c #F97676",
"i c #FB7575",
"p c #FD7373",
"a c #FF7070",
"s c #FF7171",
"d c #FE7373",
"f c #FF7272",
"g c gray75",
"h c #E38484",
"j c #E48383",
"k c #E58383",
"l c #E68282",
"z c #E68383",
"x c #E78282",
"c c #E48484",
"v c #E58484",
"b c #E88181",
"n c #E98181",
"m c #E88282",
"M c #EA8080",
/* pixels */
"ggggggggggggg",
"gcc&f223d$hhg",
"gc03XX  #3&hg",
"gM6#<33<XX6Mg",
"gw23wMc&3X#wg",
"g66wcchc&< 6g",
"g6f&hhhcz3X6g",
"g6f&hhhc&2X6g",
"g96dMhcM6X#0g",
"gMtf6ff3#<fzg",
"gc$t632<<f&cg",
"gccz&yft&zchg",
"ggggggggggggg"
};
