/* XPM */
static char *biped_103_73_OnK0[] = {
/* columns rows colors chars-per-pixel */
"34 18 2 1",
"  c #73E344",
". c gray75",
/* pixels */
"..................................",
".                                .",
".                                .",
".                                .",
".                                .",
".                                .",
".                                .",
".                                .",
".                                .",
".                                .",
".                                .",
".                                .",
".                                .",
".                                .",
".                                .",
".                                .",
".                                .",
".................................."
};
