/* XPM */
static char *biped_18_98_OnK1[] = {
/* columns rows colors chars-per-pixel */
"10 10 7 1",
"  c #FFF766",
". c #FFF866",
"X c #FFFA66",
"o c #FFFC66",
"O c #FFFD66",
"+ c #FFFF66",
"@ c gray75",
/* pixels */
"@@@@@@@@@@",
"@++++X+++@",
"@++++++X+@",
"@++++++++@",
"@+++++++ @",
"@+++++++ @",
"@++++++++@",
"@++++++++@",
"@++++++++@",
"@@@@@@@@@@"
};
