/* XPM */
static char *biped_49_43_OffK0[] = {
/* columns rows colors chars-per-pixel */
"21 21 207 2",
"   c #888888",
".  c #898989",
"X  c #8B8B8B",
"o  c gray55",
"O  c #8D8D8D",
"+  c #8E8E8E",
"@  c gray56",
"#  c #908F8F",
"$  c #908F90",
"%  c #909090",
"&  c #909091",
"*  c #929292",
"=  c #929392",
"-  c #949493",
";  c gray58",
":  c #959595",
">  c gray59",
",  c #979696",
"<  c #979797",
"1  c #989898",
"2  c #989899",
"3  c #999898",
"4  c #999899",
"5  c #999998",
"6  c gray60",
"7  c #9A9A9A",
"8  c #9B9B9B",
"9  c #9A9B9C",
"0  c gray61",
"q  c #9C9C9D",
"w  c gray62",
"e  c #A09F9F",
"r  c #A0A0A0",
"t  c gray64",
"y  c #A5A5A6",
"u  c #A5A6A5",
"i  c #A6A5A6",
"p  c gray65",
"a  c #A7A7A7",
"s  c #A8A7A8",
"d  c #AAA9A9",
"f  c #AAAAAB",
"g  c gray67",
"h  c #AEAEAD",
"j  c #AEAEAE",
"k  c #AEAEAF",
"l  c #B1B1B0",
"z  c #B1B1B1",
"x  c #B1B1B2",
"c  c #B2B2B2",
"v  c #B3B4B4",
"b  c #B4B4B4",
"n  c #B6B6B6",
"m  c #B7B7B6",
"M  c #B7B7B7",
"N  c gray72",
"B  c #BAB9BA",
"V  c gray73",
"C  c #BBBBBB",
"Z  c #BCBCBB",
"A  c #BCBCBC",
"S  c gray74",
"D  c gray",
"F  c gray75",
"G  c #C0C0C0",
"H  c #C1C2C1",
"J  c #C3C3C3",
"K  c #C5C4C4",
"L  c #C8C7C8",
"P  c #C8C8C7",
"I  c gray79",
"U  c #CCCCCB",
"Y  c #CCCDCC",
"T  c #CDCCCD",
"R  c #CDCDCD",
"E  c #CECFCE",
"W  c #CFCECF",
"Q  c gray81",
"!  c #CFD0D0",
"~  c #D0CFCF",
"^  c #D0D0D0",
"/  c #D0D0D1",
"(  c gray82",
")  c #D2D1D2",
"_  c #D2D2D2",
"`  c LightGray",
"'  c #D5D5D5",
"]  c gray84",
"[  c #D6D7D6",
"{  c #D7D7D6",
"}  c #D7D7D8",
"|  c #D8D8D9",
" . c #D9D8DA",
".. c #D9DAD9",
"X. c #DAD9DA",
"o. c #DBDBDC",
"O. c #DBDDDC",
"+. c #DDDDDD",
"@. c #DEDCDD",
"#. c gray87",
"$. c #E0DFDF",
"%. c gray88",
"&. c #E1E1E1",
"*. c #E1E3E1",
"=. c #E2E2E3",
"-. c #E3E3E4",
";. c #E5E4E5",
":. c gray90",
">. c #E6E5E5",
",. c #E6E6E7",
"<. c #E7E7E6",
"1. c #E7E7E8",
"2. c #E7E8E7",
"3. c #E7E8E8",
"4. c #E8E9E8",
"5. c #E9E8E9",
"6. c #E9E9E8",
"7. c #E9E9E9",
"8. c #E9EAEA",
"9. c #EAE9E9",
"0. c #EAEAE9",
"q. c #EAEAEA",
"w. c #EAEBEA",
"e. c #EBEAEB",
"r. c #EBEBEA",
"t. c #EBECEB",
"y. c #ECEBEB",
"u. c #ECECEC",
"i. c #ECECED",
"p. c gray93",
"a. c #EDEEEE",
"s. c #EDEEEF",
"d. c #EFEEEF",
"f. c #EFEFEF",
"g. c #EFF1F0",
"h. c #F0F0F1",
"j. c #F1F0F0",
"k. c #F1F1F0",
"l. c #F1F1F1",
"z. c #F2F2F3",
"x. c #F3F4F3",
"c. c #F3F4F4",
"v. c #F4F3F4",
"b. c #F4F3F5",
"n. c #F4F4F4",
"m. c #F5F4F4",
"M. c #F5F6F6",
"N. c #F6F5F5",
"B. c #F7F7F6",
"V. c #F7F8F7",
"C. c #F8F7F8",
"Z. c #F8F8F8",
"A. c #F8F8F9",
"S. c #F9F8F9",
"D. c #F9F9F9",
"F. c #F9F9FA",
"G. c #FAF8F8",
"H. c #FBF9F9",
"J. c #FAF9FA",
"K. c #FAFAF9",
"L. c gray98",
"P. c #FAFBFB",
"I. c #FBFBFA",
"U. c #FBFBFC",
"Y. c #FBFCFB",
"T. c #FCFAFC",
"R. c #FCFBFC",
"E. c #FCFBFD",
"W. c #FCFCFB",
"Q. c #FCFDFB",
"!. c gray99",
"~. c #FCFCFD",
"^. c #FCFDFD",
"/. c #FDFCFC",
"(. c #FDFDFD",
"). c #FCFCFE",
"_. c #FCFDFE",
"`. c #FDFDFE",
"'. c #FDFDFF",
"]. c #FCFEFD",
"[. c #FDFEFD",
"{. c #FDFFFD",
"}. c #FCFEFE",
"|. c #FDFEFE",
" X c #FDFEFF",
".X c #FDFFFE",
"XX c #FDFFFF",
"oX c #FEFCFC",
"OX c #FEFDFC",
"+X c #FEFDFD",
"@X c #FFFDFD",
"#X c #FEFDFE",
"$X c #FEFDFF",
"%X c #FFFDFE",
"&X c #FFFDFF",
"*X c #FEFEFD",
"=X c #FEFFFD",
"-X c #FFFEFD",
";X c #FFFFFD",
":X c #FEFEFE",
">X c #FEFEFF",
",X c #FEFFFE",
"<X c #FEFFFF",
"1X c #FFFEFE",
"2X c #FFFEFF",
"3X c #FFFFFE",
"4X c gray100",
/* pixels */
"F F F F F F F F F F F F F F F F F F F F F ",
"F w w w w w 0 ; ; b X.p.x.k.p.2.~ a O 2 F ",
"H O O & ; w w w 2 < 2 r H 0.D.Q.z.*.Z - F ",
"F Q H x t 2 & $ # o . . 2 { Z.`.Q.Z.p.R F ",
"F M.g.;.X.! K H B b j g b =.K.`.`.`.`.z.F ",
"F Q O.0.M.D.B.M.p.0.=.$.0.Z.`.`.`.`.`.`.F ",
"F ; u B Q @.d.`.`.`.`.`.Q.`.`.`.`.`.`.`.F ",
"F < 2 w u C @.D.`.`.Q.`.`.`.`.`.`.`.`.`.F ",
"F I W ! ! X.0.D.`.`.`.`.`.`.`.`.`.`.`.`.F ",
"F Q.T.T.`.`.T.`.`.`.`.`.`.`.`.`.Q.`.`.`.F ",
"F @.,.0.0.0.k.D.`.`.`.`.`.`.`.`.`.`.`.`.F ",
"F $ ; 8 u b ` z.`.`.`.`.`.`.`.`.Q.`.`.`.F ",
"F 8 f F ! *.d.K.`.Q.`.`.`.`.`.`.`.`.`.`.F ",
"F *.1.p.z.D.T.`.`.`.`.`.`.`.`.`.`.`.`.`.F ",
"F M.z.8.$.X.X.0.Q.`.`.`.`.`.`.`.`.`.`.`.F ",
"F F M x d s m @.Q.`.Q.Q.`.`.`.`.`.`.`.D.F ",
"F @   o 2 x E p.Q.`.K.K.Q.Q.K.M.p.;.o.W G ",
"H ; r x Q <.z.k.<.@.) ~ ' { ) K A x u 8 G ",
"F h { f.k.;.{ J h 0 # O & & # O O $ ; 2 F ",
"F 0.p.$.J t O o - 2 w r e e w w w w e w F ",
"F F F F F F F F F F F F F F F F F F F F F "
};
