/* XPM */
static char *biped_32_84_OffK0[] = {
/* columns rows colors chars-per-pixel */
"10 13 64 1",
"  c #929292",
". c #A0A1A0",
"X c #A4A4A4",
"o c #B2B3B2",
"O c #B7B7B7",
"+ c #B9B9B9",
"@ c gray75",
"# c #C8C8C8",
"$ c #CACAC9",
"% c #CACACA",
"& c #CBCBCB",
"* c #CFD0CF",
"= c #D0D0D0",
"- c #D5D5D5",
"; c #D5D6D6",
": c #D6D6D7",
"> c #D7D7D6",
", c gray86",
"< c #DFDDDD",
"1 c #DEDFDF",
"2 c #DFDFE0",
"3 c #E4E5E3",
"4 c #E4E5E5",
"5 c gray92",
"6 c #ECEBEB",
"7 c #ECECEC",
"8 c #EFEFEF",
"9 c #EEEEF0",
"0 c #F1F1F1",
"q c #F1F2F1",
"w c #F1F3F2",
"e c #F2F0F1",
"r c #F6F6F7",
"t c #F7F6F7",
"y c #F9F9F9",
"u c #F9FAF9",
"i c #FAFBF9",
"p c #FAFAFB",
"a c #FCFCFD",
"s c #FCFDFD",
"d c #FDFCFD",
"f c #FDFDFC",
"g c #FDFDFD",
"h c #FDFDFE",
"j c #FDFDFF",
"k c #FDFEFD",
"l c #FDFFFD",
"z c #FDFEFE",
"x c #FDFEFF",
"c c #FDFFFE",
"v c #FEFDFD",
"b c #FFFDFD",
"n c #FEFCFF",
"m c #FEFDFE",
"M c #FFFDFE",
"N c #FFFDFF",
"B c #FEFEFD",
"V c #FEFFFC",
"C c #FFFEFD",
"Z c #FEFEFE",
"A c #FEFFFE",
"S c #FEFFFF",
"D c #FFFEFE",
"F c #FFFFFE",
/* pixels */
"@@@@@@@@@@",
"@o-689&X @",
"@$qknk7+ @",
"@-ukkki=.@",
"@,nkkkk3O@",
"@2kknkkq$@",
"@2kkkkku:@",
"@2kkkkkn<@",
"@,nkkkkk4@",
"@:pkkkkk7@",
"@=rkkkkke@",
"@#qkkkknt@",
"@@@@@@@@@@"
};
