/* XPM */
static char *biped_261_98_OffK0[] = {
/* columns rows colors chars-per-pixel */
"11 13 43 1",
"  c gray75",
". c #E4E2E2",
"X c #E5E4E5",
"o c gray90",
"O c #E5E4E6",
"+ c #E5E5E6",
"@ c #E4E6E6",
"# c #E5E6E6",
"$ c #E6E5E5",
"% c #E6E6E5",
"& c #E7E7E8",
"* c #E8E9EA",
"= c #E9E9EA",
"- c #E9EAE9",
"; c #EAEAE9",
": c #EAEAEA",
"> c #EAEAEC",
", c #EEEDEE",
"< c #FDFCFD",
"1 c #FDFDFC",
"2 c #FDFDFD",
"3 c #FCFDFE",
"4 c #FCFDFF",
"5 c #FDFDFF",
"6 c #FDFEFC",
"7 c #FDFFFD",
"8 c #FCFEFF",
"9 c #FDFEFE",
"0 c #FDFEFF",
"q c #FDFFFE",
"w c #FEFDFE",
"e c #FEFDFF",
"r c #FFFDFE",
"t c #FEFEFD",
"y c #FFFFFD",
"u c #FEFEFE",
"i c #FEFEFF",
"p c #FEFFFE",
"a c #FEFFFF",
"s c #FFFEFE",
"d c #FFFEFF",
"f c #FFFFFE",
"g c gray100",
/* pixels */
"           ",
" #wwwww66. ",
" #wwwww6wX ",
" #wwwww66# ",
" @wwwwwww# ",
" @wwwwwww# ",
" &wwwwww8# ",
" -wwwwwww* ",
" -wwwwww8* ",
" -wwwwwww* ",
" -wwwwwww> ",
" -wwwwwww, ",
"           "
};
