/* XPM */
static char *biped_230_124_OffK1[] = {
/* columns rows colors chars-per-pixel */
"17 12 52 1",
"  c #D47D7E",
". c #D57E7E",
"X c #D67F7F",
"o c #D77F7F",
"O c gray75",
"+ c #D88080",
"@ c #D98080",
"# c #DB8181",
"$ c #DC8181",
"% c #DD8181",
"& c #DD8282",
"* c #DE8282",
"= c #DF8282",
"- c #E08282",
"; c #E08383",
": c #E18383",
"> c #E28484",
", c #E38484",
"< c #E48484",
"1 c #E68585",
"2 c #E98787",
"3 c #EB8787",
"4 c #EC8787",
"5 c #F48B8B",
"6 c #F68C8C",
"7 c #FB8D8D",
"8 c #FD8E8E",
"9 c #FF8F8F",
"0 c #FF9291",
"q c #FF9292",
"w c #FF9393",
"e c #FF9494",
"r c #FF9595",
"t c #FF9696",
"y c #FF9898",
"u c #FF9B9A",
"i c #FF9B9B",
"p c #FF9B9C",
"a c #FF9C9C",
"s c #FF9C9D",
"d c #FF9D9D",
"f c #FFA1A1",
"g c #FFA4A4",
"h c #FFA5A5",
"j c #FFA6A6",
"k c #FFA6A7",
"l c #FFA7A7",
"z c #FFA7A8",
"x c #FFA8A8",
"c c #FFA8A9",
"v c #FFA9A9",
"b c #FFAAAA",
/* pixels */
"OOOOOOOOOOOOOOOOO",
"O,;****,,,,,,,,,O",
"O+*;,,,+.*,,,,,,O",
"O+5qrrr83*+;,,,,O",
"O3ilbbbhi8,+*,,,O",
"Oylbbbbbbly,o*,,O",
"Oilbbbbbblli3.*,O",
"Oqhlbbbbbblhp5.*O",
"O,ilbbbbbbbblf5+O",
"O.qgbbbbbbbbbli3O",
"O+=qglbbbbbbblkyO",
"OOOOOOOOOOOOOOOOO"
};
