/* XPM */
static char *biped_104_168_OffK0[] = {
/* columns rows colors chars-per-pixel */
"21 22 40 1",
"  c #BF6868",
". c #BD6D6D",
"X c #B57A7A",
"o c #B97272",
"O c #BB7171",
"+ c #BA7373",
"@ c #EB1E1E",
"# c #ED1B1B",
"$ c #EF1818",
"% c #F70D0D",
"& c #F60E0E",
"* c #FE0101",
"= c red",
"- c #F31313",
"; c #F11515",
": c #E32C2C",
"> c #E62828",
", c #C95757",
"< c #C95858",
"1 c #D14C4C",
"2 c #C36363",
"3 c #C16464",
"4 c gray62",
"5 c #9F9E9E",
"6 c #AF8383",
"7 c #AE8484",
"8 c #A98D8D",
"9 c #A88F8F",
"0 c #AC8888",
"q c #AC8989",
"w c #A39797",
"e c #A69191",
"r c #A79191",
"t c #A59494",
"y c #A49797",
"u c #A19B9B",
"i c #A29999",
"p c #A39898",
"a c #B18080",
"s c gray75",
/* pixels */
"sssssssssssssssssssss",
"s4444444t  i44444444s",
"s44444447;;e44444444s",
"s4444444a==944444444s",
"s4444444a==944444444s",
"s4444444a==944444444s",
"s4444444a==944444444s",
"s4444444a==944444444s",
"s4444445a==e44444444s",
"s9888888o==a9988999ts",
"s>>@###>$==#@@#@@@:3s",
"s%================-,s",
"s.......<==2......+qs",
"swtitpppX==qiiptpppis",
"s4445554a==955455554s",
"s4444444a==944444444s",
"s4444444a==944444444s",
"s4444444a==944444444s",
"s4444444a==944444444s",
"s44444447&&944444444s",
"s4444444911p44444444s",
"sssssssssssssssssssss"
};
