/* XPM */
static char *biped_103_73_OffK1[] = {
/* columns rows colors chars-per-pixel */
"34 18 2 1",
"  c gray75",
". c #E38484",
/* pixels */
"                                  ",
" ................................ ",
" ................................ ",
" ................................ ",
" ................................ ",
" ................................ ",
" ................................ ",
" ................................ ",
" ................................ ",
" ................................ ",
" ................................ ",
" ................................ ",
" ................................ ",
" ................................ ",
" ................................ ",
" ................................ ",
" ................................ ",
"                                  "
};
