/* XPM */
static char *biped_240_146_OffK1[] = {
/* columns rows colors chars-per-pixel */
"11 20 56 1",
"  c #D27D7D",
". c #D37D7E",
"X c #D37E7E",
"o c #D47E7E",
"O c #D57E7E",
"+ c #D67F7F",
"@ c #D77F7F",
"# c #D87F7F",
"$ c gray75",
"% c #D88080",
"& c #D98080",
"* c #DA8080",
"= c #DB8080",
"- c #DB8181",
"; c #DC8181",
": c #DD8181",
"> c #DD8282",
", c #DE8282",
"< c #DF8282",
"1 c #E08282",
"2 c #E08383",
"3 c #E18383",
"4 c #E28383",
"5 c #E28484",
"6 c #E38484",
"7 c #E58585",
"8 c #E98687",
"9 c #EA8787",
"0 c #EB8787",
"q c #EF8989",
"w c #F28A8A",
"e c #F48A8A",
"r c #F78C8C",
"t c #FC8E8E",
"y c #FE8F8F",
"u c #FF9090",
"i c #FF9191",
"p c #FF9292",
"a c #FF9596",
"s c #FF9695",
"d c #FF9898",
"f c #FF9999",
"g c #FF9C9C",
"h c #FF9D9E",
"j c #FF9E9E",
"k c #FF9F9F",
"l c #FFA0A0",
"z c #FFA2A1",
"x c #FFA3A3",
"c c #FFA5A5",
"v c #FFA7A7",
"b c #FFA7A8",
"n c #FFA9A8",
"m c #FFA9A9",
"M c #FFAAA9",
"N c #FFAAAA",
/* pixels */
"$$$$$$$$$$$",
"$*smNNNNNN$",
"$opvNNNNNN$",
"$ yxNNNNNN$",
"$ rxmmNNNN$",
"$ wgmmNNNN$",
"$oqgNNNNNN$",
"$*9fNNNNNN$",
"$>2pmNNNNN$",
"$4o6fmmmNN$",
"$42%3kmmNN$",
"$66>*8gvNN$",
"$664> pxmN$",
"$6666*>svN$",
"$66666o9fv$",
"$666662*wg$",
"$666666>2y$",
"$6666663#>$",
"$66666663>$",
"$$$$$$$$$$$"
};
