/* XPM */
static char *biped_252_131_OnK0[] = {
/* columns rows colors chars-per-pixel */
"38 46 39 1",
"  c #6DCF44",
". c #6DD044",
"X c #6ED044",
"o c #6ED144",
"O c #6ED244",
"+ c #6ED344",
"@ c #6FD444",
"# c #6FD544",
"$ c #6FD644",
"% c #70D844",
"& c #70D944",
"* c #72DF44",
"= c #72E044",
"- c #72E144",
"; c #73E244",
": c #73E344",
"> c #74E744",
", c #76EC44",
"< c #76ED44",
"1 c #76EE44",
"2 c #77F044",
"3 c #7AFC44",
"4 c #7BFD44",
"5 c #7EFF44",
"6 c #7FFF44",
"7 c #81FF44",
"8 c #82FF44",
"9 c #83FF44",
"0 c #84FF44",
"q c #85FF44",
"w c #86FF44",
"e c #87FF44",
"r c #8AFF44",
"t c #8BFF44",
"y c #8CFF44",
"u c #8DFF44",
"i c #8EFF44",
"p c #8FFF44",
"a c gray75",
/* pixels */
"aaaaaaaaaaaaaaaaaaaaaaaaaaaaaaaaaaaaaa",
"appppppppppppppppppppppppppppppppppppa",
"appppppppppppppppppppppppppppppppppppa",
"appppppppppppppppppppppppppppppppppppa",
"appppppppppppppppppppppppppppppppppppa",
"appppppppppppppppppppppppppppppppppppa",
"appppppppppppppppppppppppppppppppppppa",
"appppppppppppppppppppppppppppppppppppa",
"appppppppppppppppppppppppppppppppppppa",
"apppppppppppppppppppppppppppppppppppta",
"appppppppppppppppppppppppppppppppppppa",
"atpppppppppppppppppppppppppppppppppppa",
"appppppppppppppppppppppppppppppppppppa",
"appppppppppppppppppppppppppppppppppppa",
"appppppppppppppppppppppppppppppppppppa",
"appppppppppppppppppppppppppppppppppppa",
"appppppppppppppppppppppppppppppppppppa",
"appppppppppppppppppppppppppppppppppppa",
"appppppppppppppppppppppppppppppppppppa",
"appppppppppppppppppppppppppppppppppppa",
"appppppppppppppppppppppppppppppppppppa",
"apppppppppppppppppppppppppppppppppppta",
"appppppppppppppppppppppppppppppppppppa",
"apppppppppppppppppppppppppppppppppppta",
"apppppppppppppppppppppppppppppppppppwa",
"apppppppppppppppppppppppppppppppppppwa",
"appppppppppppppppppppppppppppppppppp9a",
"appppppppppppppppppppppppppppppppppp3a",
"appppppppppppppppppppppppppppppppppt,a",
"appppppppppppppppppppppppppppppppppt*a",
"appppppppppppppppppppppppppppppppppt@a",
"appppppppppppppppppppppppppppppppptw a",
"apppppppppppppppppppppppppppppppppt5oa",
"appppppppppppppppppppppppppppppppp9:@a",
"appppppppppppppppppppppppppppppppw,@:a",
"apppppppppppppppppppppppppppppppp5o::a",
"apppppppppppppppppppppppppppppppt5o::a",
"a9ppppppppppppppppppppppppppppppt9o::a",
"a>5wtppppppppppppppppppppppppppppw@::a",
"a&@29tpppppppppppppppppppppppppppw&>:a",
"a::@:5tpppppppppppppppppppppppppp9@::a",
"a:::@:wpppppppppppppppppppppppppp9o::a",
"a:::>o5pppppppppppppppppppppppppp9 ::a",
"a::::@3tppppppppppppppppppppppppp5o::a",
"a::::&,wppppppppppppppppppppppppp9 ::a",
"aaaaaaaaaaaaaaaaaaaaaaaaaaaaaaaaaaaaaa"
};
