/* XPM */
static char *biped_141_42_OffK0[] = {
/* columns rows colors chars-per-pixel */
"14 13 66 1",
"  c #909090",
". c #919090",
"X c gray57",
"o c #919292",
"O c #939393",
"+ c gray58",
"@ c #959595",
"# c gray59",
"$ c #989898",
"% c #999A99",
"& c #9B9B9B",
"* c gray61",
"= c gray62",
"- c gray63",
"; c #A4A3A4",
": c #A6A5A6",
"> c #AAAAAA",
", c #ADABAC",
"< c gray69",
"1 c #B2B1B1",
"2 c #B7B6B6",
"3 c gray73",
"4 c #BEBEBF",
"5 c gray75",
"6 c gray78",
"7 c #CACACA",
"8 c #CBCBCC",
"9 c #D2D1D3",
"0 c #D6D6D7",
"q c #DFDEDF",
"w c #DFDFDF",
"e c #E0E0E1",
"r c #ECECEB",
"t c gray95",
"y c #F4F4F4",
"u c #F6F6F6",
"i c #F9F9F9",
"p c #FCFBFC",
"a c #FCFDFD",
"s c #FDFCFC",
"d c #FDFCFD",
"f c #FDFDFD",
"g c #FDFCFE",
"h c #FDFDFE",
"j c #FDFDFF",
"k c #FDFEFD",
"l c #FDFEFE",
"z c #FDFEFF",
"x c #FDFFFE",
"c c #FEFDFD",
"v c #FFFDFD",
"b c #FEFDFE",
"n c #FEFDFF",
"m c #FFFDFE",
"M c #FEFEFD",
"N c #FEFFFD",
"B c #FFFEFD",
"V c #FFFFFD",
"C c #FEFEFE",
"Z c #FEFEFF",
"A c #FEFFFE",
"S c #FEFFFF",
"D c #FFFEFE",
"F c #FFFEFF",
"G c #FFFFFE",
"H c gray100",
/* pixels */
"55555555555455",
"5========$.#,5",
"5$##..  .*<7q5",
"5=-;:><236qyS5",
"54890wrtyssps5",
"5pSpSSSSSsspS5",
"5SSppSSSSsSSS5",
"5SSSSSSSSSsSs5",
"5SSpppSSSSSSs5",
"5ppSSSpSpSSpS5",
"5SSSSppSsssSS5",
"5pSpSSSSSSsss5",
"55555555555555"
};
