/* XPM */
static char *biped_246_99_OffK0[] = {
/* columns rows colors chars-per-pixel */
"10 13 49 1",
"  c #AAABAA",
". c #B8B8B7",
"X c gray75",
"o c gray78",
"O c #C8C8C7",
"+ c #D2D3D2",
"@ c gray83",
"# c #DADADA",
"$ c #DBDCDC",
"% c #DDDDDE",
"& c #E3E3E4",
"* c gray90",
"= c #E5E6E6",
"- c #EBEBEC",
"; c #EEEDED",
": c gray94",
"> c #F0F1F0",
", c #F3F4F4",
"< c #F5F5F6",
"1 c #F7F8F7",
"2 c #F9F8F9",
"3 c #FAF9F9",
"4 c #FAFBFB",
"5 c #FBFCFB",
"6 c #FCFDFD",
"7 c #FDFCFC",
"8 c #FDFDFD",
"9 c #FDFDFE",
"0 c #FDFDFF",
"q c #FDFEFD",
"w c #FDFEFE",
"e c #FDFFFE",
"r c #FDFFFF",
"t c #FEFDFC",
"y c #FEFDFD",
"u c #FFFDFD",
"i c #FEFEFC",
"p c #FEFEFD",
"a c #FEFFFD",
"s c #FFFEFD",
"d c #FFFFFD",
"f c #FEFEFE",
"g c #FEFEFF",
"h c #FEFFFE",
"j c #FEFFFF",
"k c #FFFEFE",
"l c #FFFEFF",
"z c #FFFFFE",
"x c gray100",
/* pixels */
"XXXXXXXXXX",
"Xiiiiii:oX",
"Xiii6i61@X",
"X4iiii64$X",
"X1iii6i6&X",
"X;ii6iii-X",
"X=iiiiii,X",
"X%iiiiii2X",
"X@2iiiiiiX",
"Xo:iiiiiiX",
"X.=iiii0iX",
"X $iiiii0X",
"XXXXXXXXXX"
};
