/* XPM */
static char *biped_250_43_OnK0[] = {
/* columns rows colors chars-per-pixel */
"21 21 65 1",
"  c #6DCD44",
". c #6DD044",
"X c #6ED044",
"o c #6ED144",
"O c #6ED244",
"+ c #6ED344",
"@ c #6FD344",
"# c #6FD444",
"$ c #6FD544",
"% c #6FD744",
"& c #70D744",
"* c #70D944",
"= c #70DA44",
"- c #71DA44",
"; c #71DB44",
": c #71DC44",
"> c #71DD44",
", c #71DE44",
"< c #72DE44",
"1 c #72DF44",
"2 c #72E044",
"3 c #72E144",
"4 c #73E144",
"5 c #73E244",
"6 c #73E344",
"7 c #73E444",
"8 c #74E744",
"9 c #75E844",
"0 c #75EB44",
"q c #76EB44",
"w c #76EC44",
"e c #76EE44",
"r c #77F144",
"t c #78F244",
"y c #78F344",
"u c #78F544",
"i c #79F544",
"p c #79F644",
"a c #79F844",
"s c #7AFA44",
"d c #7AFC44",
"f c #7BFD44",
"g c #7BFE44",
"h c #7BFF44",
"j c #7CFF44",
"k c #7DFF44",
"l c #7EFF44",
"z c #7FFF44",
"x c #80FF44",
"c c #81FF44",
"v c #82FF44",
"b c #83FF44",
"n c #84FF44",
"m c #85FF44",
"M c #86FF44",
"N c #87FF44",
"B c #88FF44",
"V c #89FF44",
"C c #8AFF44",
"Z c #8BFF44",
"A c #8CFF44",
"S c #8DFF44",
"D c #8EFF44",
"F c #8FFF44",
"G c gray75",
/* pixels */
"GGGGGGGGGGGGGGGGGGGGG",
"G>OwcCCCDCMs==666666G",
"G=hMDDFCh7>>>>66=%OOG",
"GcCDFFDc>  OO%%=8ihcG",
"GDFFFFDChrrshhccMCCDG",
"GDFFFFDDMCMCCDDDDCMcG",
"GFFFFFFFDFFFDDDMchq>G",
"GDFFFFFFFFFDDDMhq5>=G",
"GFFFFFFFFFFFFDCMccccG",
"GFFFFFFFFFFFFFDDDDFFG",
"GFFFFFFFFFFFDDCCMCCMG",
"GFFFFFFFFFFFFCMsq6%%G",
"GFFFFFFFFFFFFDDMchr6G",
"GFFFFFFFFFFFFFDDDCCCG",
"GFFFFFFFFFFFDCcMMCDDG",
"GDFFFFFFFFFFDMhqwushG",
"GcMCCDDFDDDFFChi1O %G",
"G1qihhcMMccMMDDCci7>G",
"G1=&OOO&%O%6rhMCDCMrG",
"G5556666666>% &8hMCCG",
"GGGGGGGGGGGGGGGGGGGGG"
};
