/* XPM */
static char *biped_252_221_OffK0[] = {
/* columns rows colors chars-per-pixel */
"13 13 74 1",
"  c #BF6969",
". c #BD6D6D",
"X c #BC6E6E",
"o c #BC6F6F",
"O c #B57979",
"+ c #B47B7B",
"@ c #BA7171",
"# c #BA7272",
"$ c #DC3737",
"% c #DD3737",
"& c #DE3535",
"* c #DE3636",
"= c #DB3939",
"- c #DB3A3A",
"; c #DB3B3B",
": c #D83E3E",
"> c #D83F3F",
", c #DC3838",
"< c #E12F2F",
"1 c #CE4F4F",
"2 c #CF4E4E",
"3 c #C75A5A",
"4 c #C75B5B",
"5 c #C45F5F",
"6 c #C55E5E",
"7 c #C65C5C",
"8 c #C95757",
"9 c #CA5656",
"0 c #CC5353",
"q c #CE5050",
"w c #C85959",
"e c #C95858",
"r c #C95959",
"t c #C85A5A",
"y c #D54343",
"u c #D74141",
"i c #D44646",
"p c #D14B4B",
"a c #D24848",
"s c #D34848",
"d c #D24A4A",
"f c #D04D4D",
"g c #D14C4C",
"h c #C16565",
"j c #C16666",
"k c #C16767",
"l c #C26464",
"z c #C46060",
"x c #C46161",
"c c #C46363",
"v c gray62",
"b c #9F9E9E",
"n c #9F9F9F",
"m c #AD8787",
"M c #AE8585",
"N c #AE8686",
"B c #AA8B8B",
"V c #AB8A8A",
"C c #A98E8E",
"Z c #AA8D8D",
"A c #AD8888",
"S c #A79191",
"D c #A69292",
"F c #A69393",
"G c #A79292",
"H c #A49696",
"J c #A09B9B",
"K c #A39898",
"L c #A39999",
"P c #A09C9C",
"I c #A09D9D",
"U c #B18181",
"Y c #B08282",
"T c gray75",
/* pixels */
"TTTTTTTTTTTTT",
"TvvZ#8g3OSvvT",
"TIU8;&&<;lVvT",
"TZ4ugxl0&&lLT",
"T#d3mIIS &umT",
"T38OIvvvZ2&oT",
"T86mIvvIH3;xT",
"T63+IvvvZ2&oT",
"TOg3mLISl;imT",
"TSlg0xl0:uoLT",
"TvZls::;soZvT",
"TnnKU xoALvnT",
"TTTTTTTTTTTTT"
};
