/* XPM */
static char *biped_73_221_OnK1[] = {
/* columns rows colors chars-per-pixel */
"13 13 68 1",
"  c #FF9366",
". c #FF9566",
"X c #FF9766",
"o c #FF9966",
"O c #FF9A66",
"+ c #FF9B66",
"@ c #FF9E66",
"# c #FF9F66",
"$ c #FFA066",
"% c #FFA466",
"& c #FFA566",
"* c #FFA666",
"= c #FFA866",
"- c #FFAB66",
"; c #FFAC66",
": c #FFAD66",
"> c #FFAE66",
", c #FFB066",
"< c #FFB166",
"1 c #FFB366",
"2 c #FFB566",
"3 c #FFB866",
"4 c #FFBA66",
"5 c #FFBB66",
"6 c #FFBC66",
"7 c #FFBD66",
"8 c #FFBE66",
"9 c #FFBF66",
"0 c #FFC066",
"q c #FFC166",
"w c #FFC366",
"e c #FFC466",
"r c #FFC566",
"t c #FFC666",
"y c #FFC766",
"u c #FFC866",
"i c #FFC966",
"p c #FFCA66",
"a c #FFCC66",
"s c #FFCE66",
"d c #FFCF66",
"f c #FFD166",
"g c #FFD266",
"h c #FFD466",
"j c #FFD566",
"k c #FFD766",
"l c #FFD966",
"z c #FFDF66",
"x c #FFE166",
"c c #FFE466",
"v c #FFE666",
"b c #FFE766",
"n c #FFE966",
"m c #FFEB66",
"M c #FFEC66",
"N c #FFED66",
"B c #FFEE66",
"V c #FFEF66",
"C c #FFF066",
"Z c #FFF166",
"A c #FFF266",
"S c #FFF466",
"D c #FFF766",
"F c #FFF966",
"G c #FFFC66",
"H c #FFFD66",
"J c #FFFF66",
"K c gray75",
/* pixels */
"KKKKKKKKKKKKK",
"KJJFz016gDJJK",
"KJVt@ X+@6bJK",
"KJp+X1tt1=0DK",
"Kn%X0VJJm02kK",
"Kf+:mJJJJb0tK",
"Kp+3DJJJJmp6K",
"Kf@1mJJJJbttK",
"Km:#sFJJVp3cK",
"KJg:%6fs03sFK",
"KJFg1%::2sVJK",
"KJJJmgpfnJJJK",
"KKKKKKKKKKKKK"
};
