/* XPM */
static char *biped_126_159_OnK0[] = {
/* columns rows colors chars-per-pixel */
"11 11 20 1",
"  c #7BBF44",
". c #7BC044",
"X c #7BC144",
"o c #7AC244",
"O c #7AC344",
"+ c #7BC244",
"@ c #79C844",
"# c #79C944",
"$ c #79CA44",
"% c #78CC44",
"& c #78CD44",
"* c #76D644",
"= c #76D744",
"- c #75DA44",
"; c #75DB44",
": c #76D844",
"> c #76D944",
", c #73E344",
"< c #74E244",
"1 c gray75",
/* pixels */
"11111111111",
"1,<-@O@-<,1",
"1<-$   $;,1",
"1-$O   O&;1",
"1&O     O&1",
"1O       O1",
"1O       O1",
"1@O    O $1",
"1:@    O$:1",
"1,:@   @:<1",
"11111111111"
};
