/* XPM */
static char *biped_189_111_OnK0[] = {
/* columns rows colors chars-per-pixel */
"17 17 27 1",
"  c #7EA644",
". c #7EA744",
"X c #7ABE44",
"o c #7ABF44",
"O c #76D544",
"+ c #76D644",
"@ c #75DB44",
"# c #75DC44",
"$ c #73E344",
"% c #8F4444",
"& c #8F4644",
"* c #8F4844",
"= c #8E4D44",
"- c #8C5744",
"; c #8B5E44",
": c #8C5844",
"> c #8A6444",
", c #8A6544",
"< c #886D44",
"1 c #886E44",
"2 c #877444",
"3 c #877544",
"4 c #877644",
"5 c #819444",
"6 c #819544",
"7 c #819644",
"8 c gray75",
/* pixels */
"88888888888888888",
"8$$@o62>;>47OO$#8",
"8$+.2:=*%*=:2.+$8",
"8#.1=%%%%%%%*<.@8",
"8o2=%%%%%%%%%=2O8",
"86:%%%%%%%%%%%=58",
"82=%%%%%%%%%%%*28",
"8>*%%%%%%%%%%%&>8",
"8;&%%%%%%%%%%%&;8",
"8>&%%%%%%%%%%%&>8",
"83*&%%%%%%%%%%=38",
"86-%%%%%%%%%%&-68",
"8o2=%%%%%%%%%*2o8",
"8@.1&%%%%%%%=1.#8",
"8$O.<-=*%*=-2.+$8",
"8$$@O62>;>26o@$$8",
"88888888888888888"
};
