/* XPM */
static char *biped_288_109_OnK0[] = {
/* columns rows colors chars-per-pixel */
"10 10 17 1",
"  c #6FD644",
". c #73E244",
"X c #76EC44",
"o c #79F644",
"O c #7AF944",
"+ c #7BFE44",
"@ c #7EFF44",
"# c #81FF44",
"$ c #83FF44",
"% c #86FF44",
"& c #87FF44",
"* c #88FF44",
"= c #8AFF44",
"- c #8DFF44",
"; c #8EFF44",
": c #8FFF44",
"> c gray75",
/* pixels */
">>>>>>>>>>",
"> X#::::;>",
"> +=::::;>",
">.#;::::;>",
">O=:::::=>",
">@;:::::&>",
">=:::::;#>",
">;:::::=@>",
">;;;;::&o>",
">>>>>>>>>>"
};
