/* XPM */
static char *biped_37_115_OnK0[] = {
/* columns rows colors chars-per-pixel */
"10 15 7 1",
"  c #87FF44",
". c #89FF44",
"X c #8BFF44",
"o c #8CFF44",
"O c #8EFF44",
"+ c #8FFF44",
"@ c gray75",
/* pixels */
"@@@@@@@@@@",
"@+++++++X@",
"@+++++++X@",
"@++++++++@",
"@++++++++@",
"@++++++++@",
"@++++++++@",
"@++++++++@",
"@++++++++@",
"@++++++++@",
"@++++++++@",
"@X+++++++@",
"@ +++++++@",
"@ +++++++@",
"@@@@@@@@@@"
};
