/* XPM */
static char *biped_22_109_OffK0[] = {
/* columns rows colors chars-per-pixel */
"10 10 47 1",
"  c gray57",
". c gray61",
"X c #A7A8A8",
"o c gray69",
"O c #B5B5B4",
"+ c #B8B9B9",
"@ c gray75",
"# c #C4C4C3",
"$ c #CBCCCB",
"% c #CFCFCE",
"& c #D4D5D5",
"* c #D5D5D4",
"= c #DFDFDF",
"- c #E1E1E2",
"; c #E2E2E1",
": c #E5E6E5",
"> c #EBECED",
", c gray93",
"< c #EDEEED",
"1 c #F4F4F3",
"2 c #F4F5F5",
"3 c #F7F6F6",
"4 c #F8F8F7",
"5 c #F8F9FA",
"6 c #FBFBFC",
"7 c #FBFCFB",
"8 c gray99",
"9 c #FCFDFD",
"0 c #FDFDFC",
"q c #FDFDFD",
"w c #FDFDFE",
"e c #FDFDFF",
"r c #FCFEFC",
"t c #FDFEFC",
"y c #FDFEFD",
"u c #FDFEFE",
"i c #FDFFFF",
"p c #FEFDFD",
"a c #FFFDFD",
"s c #FEFDFE",
"d c #FFFDFE",
"f c #FEFEFD",
"g c #FEFFFD",
"h c #FFFFFD",
"j c #FEFEFE",
"k c #FEFFFF",
"l c #FFFFFE",
/* pixels */
"@@@@@@@@@@",
"@wwwww*X @",
"@6wwww<+ @",
"@3wwww5$.@",
"@<wwwww;O@",
"@-wwwwh1%@",
"@*477hh7:@",
"@#<7hhww1@",
"@o=wwwwwh@",
"@@@@@@@@@@"
};
