/* XPM */
static char *biped_141_80_OffK1[] = {
/* columns rows colors chars-per-pixel */
"38 18 36 1",
"  c gray75",
". c #E28484",
"X c #E48484",
"o c #EF8989",
"O c #F18989",
"+ c #F18A89",
"@ c #F28A8A",
"# c #F38A8A",
"$ c #F58B8B",
"% c #F68B8B",
"& c #F68C8B",
"* c #F78C8C",
"= c #F98C8D",
"- c #FB8D8D",
"; c #FB8E8D",
": c #FD8E8E",
"> c #FF8F8F",
", c #FF9090",
"< c #FF9191",
"1 c #FF9292",
"2 c #FF9697",
"3 c #FF9796",
"4 c #FF9C9C",
"5 c #FFA1A0",
"6 c #FFA1A1",
"7 c #FFA4A4",
"8 c #FFA5A5",
"9 c #FFA6A5",
"0 c #FFA6A6",
"q c #FFA6A7",
"w c #FFA7A6",
"e c #FFA7A7",
"r c #FFA8A8",
"t c #FFA9A9",
"y c #FFA9AA",
"u c #FFAAAA",
/* pixels */
"                                      ",
" 7uuuuuuuuuuuuuuuuuuuuuuuuuuuuuuuuuu5 ",
" 7uuuuuuuuuuuuuuuuuuuuuuuuuuuuuuuuuu7 ",
" 5uuuuuuuuuuuuuuuuuuuuuuuuuuuuuuuuuu5 ",
" 4uuuuuuuuuuuuuuuuuuuuuuuuuuuuuuuuuu4 ",
" 27uuuuuuuuuuuuuuuuuuuuuuuuuuuuuuuuu3 ",
" 1euuuuuuuuuuuuuuuuuuuuuuuuuuuuuuuuu1 ",
" =7uuuuuuuuuuuuuuuuuuuuuuuuuuuuuuuu7= ",
" $7uuuuuuuuuuuuuuuuuuuuuuuuuuuuuuuu7@ ",
" @euuuuuuuuuuuuuuuuuuuuuuuuuuuuuuuuu@ ",
" %7uuuuuuuuuuuuuuuuuuuuuuuuuuuuuuuu7% ",
" *uuuuuuuuuuuuuuuuuuuuuuuuuuuuuuuuuw* ",
" :7uuuuuuuuuuuuuuuuuuuuuuuuuuuuuuuuw: ",
" 1wuuuuuuuuuuuuuuuuuuuuuuuuuuuuuuuu71 ",
" =7uuuuuuuuuuuuuuuuuuuuuuuuuuuuuuuuu: ",
" owuuuuuuuuuuuuuuuuuuuuuuuuuuuuuuuu7@ ",
" .7uuuuuuuuuuuuuuuuuuuuuuuuuuuuuuuuwX ",
"                                      "
};
