/* XPM */
static char *biped_276_99_OffK0[] = {
/* columns rows colors chars-per-pixel */
"10 13 52 1",
"  c #B0B1B0",
". c #B6B6B6",
"X c #BEBDBD",
"o c gray75",
"O c #C5C5C4",
"+ c #CBCCCB",
"@ c #D1D3D2",
"# c #D9D9DA",
"$ c #DAD9D9",
"% c #DDDDDE",
"& c #DEDFDE",
"* c #E2E1E1",
"= c #E3E2E2",
"- c #E4E4E3",
"; c #E7E6E6",
": c #E9E9E8",
"> c #ECEBEB",
", c #ECEBED",
"< c #EEEEED",
"1 c #F2F3F2",
"2 c #F4F3F3",
"3 c #F6F8F6",
"4 c #FAF9FB",
"5 c #FBFAFA",
"6 c #FBFCFB",
"7 c #FCFDFD",
"8 c #FDFDFD",
"9 c #FCFCFE",
"0 c #FDFDFE",
"q c #FDFDFF",
"w c #FDFEFD",
"e c #FDFFFC",
"r c #FDFFFD",
"t c #FCFEFE",
"y c #FCFEFF",
"u c #FDFEFE",
"i c #FDFEFF",
"p c #FDFFFE",
"a c #FEFCFD",
"s c #FEFCFE",
"d c #FEFDFE",
"f c #FEFDFF",
"g c #FFFDFE",
"h c #FFFDFF",
"j c #FEFEFD",
"k c #FFFFFD",
"l c #FEFEFE",
"z c #FEFEFF",
"x c #FEFFFF",
"c c #FFFEFE",
"v c #FFFEFF",
"b c #FFFFFE",
/* pixels */
"oooooooooo",
"o$6a6a6a,o",
"o=aaaaaa;o",
"o>aaaaaa=o",
"o1a6aaa6%o",
"o6aaaaa6#o",
"oaaaaaa3@o",
"oaaaaaa1+o",
"oaa6aaa<Oo",
"oaaaaaa:oo",
"o6aaa6a;.o",
"oaaaaa6& o",
"oooooooooo"
};
