/* XPM */
static char *biped_49_43_OnK1[] = {
/* columns rows colors chars-per-pixel */
"21 21 17 1",
"  c #FFEE66",
". c #FFEF66",
"X c #FFF166",
"o c #FFF266",
"O c #FFF366",
"+ c #FFF466",
"@ c #FFF566",
"# c #FFF666",
"$ c #FFF866",
"% c #FFF966",
"& c #FFFA66",
"* c #FFFB66",
"= c #FFFC66",
"- c #FFFD66",
"; c #FFFE66",
": c #FFFF66",
"> c gray75",
/* pixels */
">>>>>>>>>>>>>>>>>>>>>",
">::::::&::::::::::O:>",
">#O#&::::&:::::::::&>",
">:::::&#OO  ::::::::>",
">:::::::::::::::::::>",
">:::::::::::::::::::>",
">&::::::::::::::::::>",
">:::::::::::::::::::>",
">:::::::::::::::::::>",
">:::::::::::::::::::>",
">:::::::::::::::::::>",
">#&:::::::::::::::::>",
">:::::::::::::::::::>",
">:::::::::::::::::::>",
">:::::::::::::::::::>",
">:::::::::::::::::::>",
"># O::::::::::::::::>",
">&::::::::::::::::::>",
">:::::::::###&#OO#&:>",
">:::::OO#:::::::::::>",
">>>>>>>>>>>>>>>>>>>>>"
};
