/* XPM */
static char *biped_49_43_OffK1[] = {
/* columns rows colors chars-per-pixel */
"21 21 95 2",
"   c #CD7B7B",
".  c #CE7B7B",
"X  c #D07C7C",
"o  c #D17D7D",
"O  c #D27D7D",
"+  c #D37D7D",
"@  c #D47E7E",
"#  c #D57E7E",
"$  c #D77F7F",
"%  c #D9807F",
"&  c gray75",
"*  c #D98080",
"=  c #DA8080",
"-  c #DB8181",
";  c #DC8181",
":  c #DD8181",
">  c #DD8182",
",  c #DD8282",
"<  c #DE8282",
"1  c #DF8282",
"2  c #DF8383",
"3  c #E08383",
"4  c #E18383",
"5  c #E28484",
"6  c #E38484",
"7  c #E58484",
"8  c #E88686",
"9  c #EA8787",
"0  c #EB8787",
"q  c #EC8787",
"w  c #EC8788",
"e  c #EF8888",
"r  c #EF8989",
"t  c #F08989",
"y  c #F38A8A",
"u  c #F58B8B",
"i  c #F68B8B",
"p  c #F68B8C",
"a  c #F78C8C",
"s  c #F88C8C",
"d  c #F98D8D",
"f  c #FB8E8E",
"g  c #FC8E8D",
"h  c #FC8E8E",
"j  c #FD8E8E",
"k  c #FF8F8F",
"l  c #FF9090",
"z  c #FF9091",
"x  c #FF9191",
"c  c #FF9292",
"v  c #FF9393",
"b  c #FF9494",
"n  c #FF9595",
"m  c #FF9696",
"M  c #FF9697",
"N  c #FF9797",
"B  c #FF9798",
"V  c #FF9898",
"C  c #FF9998",
"Z  c #FF9999",
"A  c #FF9A9A",
"S  c #FF9A9B",
"D  c #FF9B9A",
"F  c #FF9B9B",
"G  c #FF9B9C",
"H  c #FF9C9B",
"J  c #FF9C9C",
"K  c #FF9C9D",
"L  c #FF9D9D",
"P  c #FF9E9E",
"I  c #FF9E9F",
"U  c #FF9F9F",
"Y  c #FFA0A0",
"T  c #FFA1A0",
"R  c #FFA1A1",
"E  c #FFA1A2",
"W  c #FFA2A2",
"Q  c #FFA2A3",
"!  c #FFA3A2",
"~  c #FFA3A3",
"^  c #FFA4A3",
"/  c #FFA4A4",
"(  c #FFA4A5",
")  c #FFA5A5",
"_  c #FFA6A6",
"`  c #FFA6A7",
"'  c #FFA7A7",
"]  c #FFA7A8",
"[  c #FFA8A8",
"{  c #FFA8A9",
"}  c #FFA9A8",
"|  c #FFA9A9",
" . c #FFA9AA",
".. c #FFAAA9",
"X. c #FFAAAA",
/* pixels */
"& & & & & & & & & & & & & & & & & & & & & ",
"& 6 6 6 6 4 4 = = d G E ' ' E E V q o ; & ",
"& # o # = 4 4 3 ; ; 3 7 c ^ } ' ' E j = & ",
"& N c p 9 ; = # o o . . ; L ' ' ' ' E C & ",
"& ' ' U L N N c k s t t j E } ' X.X.X.' & ",
"& N L E ` ' ' ` ^ E E Y E } X.' X.X.X.X.& ",
"& = 9 k N L Q ' ' X.X.X.X.X.X.X.X.X.X.X.& ",
"& ; ; 4 9 c L ' X.X.X.X.X.X.X.X.X.X.X.X.& ",
"& V V V V L Q ' X.X.X.X.X.X.X.X.X.X.X.X.& ",
"& ' ' ' ' X.X.X.X.X.X.X.X.X.X.X.X.X.X.X.& ",
"& L E E Q Q ` ' X.X.X.X.X.X.X.X.X.X.X.X.& ",
"& @ = 2 9 f V ` X.X.X.X.X.X.X.X.X.X.X.X.& ",
"& 2 q c V U ' ' X.X.X.X.X.X.X.X.X.X.X.X.& ",
"& E E ' ' ' ` ' X.X.X.X.X.X.X.X.X.X.X.X.& ",
"& } ' E L L D ^ X.X.X.X.X.X.X.X.X.X.X.' & ",
"& k j y q q j Y ' X.X.X.X.X.X.X.X.X.X.' & ",
"& # . X 3 s N E ' X.' ' X.X.' ' E Y L V & ",
"& % 7 i N E ' ' Y L V V D D C N c y q 3 & ",
"& y D ' ' Y C c y 3 # + @ = # o X # $ ; & ",
"& E ^ L c 9 X X # 3 6 3 6 6 6 6 7 7 7 6 & ",
"& & & & & & & & & & & & & & & & & & & & & "
};
