/* XPM */
static char *biped_162_141_OffK0[] = {
/* columns rows colors chars-per-pixel */
"20 41 143 2",
"   c gray54",
".  c #8B8A8B",
"X  c #8B8B8B",
"o  c gray55",
"O  c #8C8C8D",
"+  c #8D8C8C",
"@  c #8D8C8D",
"#  c #8D8D8D",
"$  c #8E8E8E",
"%  c #8E8F8E",
"&  c #909090",
"*  c #929392",
"=  c #939393",
"-  c #979797",
";  c #9D9D9D",
":  c #A4A4A4",
">  c #A9A9A9",
",  c #ACABAB",
"<  c #B2B2B2",
"1  c #B7B6B7",
"2  c #BBBBBB",
"3  c gray74",
"4  c gray75",
"5  c #C3C2C2",
"6  c #C6C5C6",
"7  c gray79",
"8  c #C9CACA",
"9  c #CAC9CA",
"0  c #CACAC9",
"q  c #CACACA",
"w  c #CDCDCC",
"e  c #CECDCD",
"r  c #D3D2D3",
"t  c gray83",
"y  c #D7D7D7",
"u  c #D7D7D8",
"i  c #D8D8D9",
"p  c #D9D9D8",
"a  c gray85",
"s  c #D9D9DA",
"d  c #DADBDB",
"f  c #DCDDDC",
"g  c #DFDEDF",
"h  c #E0E1E1",
"j  c #E1E3E2",
"k  c #E2E1E2",
"l  c #E3E2E4",
"z  c #E4E4E2",
"x  c gray90",
"c  c #E7E7E7",
"v  c #E7E7E8",
"b  c #EBE9EB",
"n  c #ECECEC",
"m  c #EDEEEE",
"M  c #EFEFEF",
"N  c #F0EFEF",
"B  c #F0F0EF",
"V  c #F1F1F0",
"C  c #F2F1F2",
"Z  c #F3F3F3",
"A  c #F3F3F4",
"S  c #F3F4F4",
"D  c #F4F3F4",
"F  c #F4F4F4",
"G  c #F4F5F4",
"H  c #F5F4F5",
"J  c #F6F6F7",
"K  c #F8F7F7",
"L  c #F8F8F8",
"P  c #F8F8F9",
"I  c #F9F9F8",
"U  c #F9F9FA",
"Y  c #F9FAF9",
"T  c #F8FAFA",
"R  c #FAFAF9",
"E  c gray98",
"W  c #FAFAFB",
"Q  c #FBFAFA",
"!  c #FBFBFA",
"~  c #FBFBFB",
"^  c #FCFBFC",
"/  c #FCFCFA",
"(  c #FCFCFB",
")  c #FCFDFB",
"_  c gray99",
"`  c #FCFCFD",
"'  c #FCFDFC",
"]  c #FCFDFD",
"[  c #FDFCFD",
"{  c #FDFDFC",
"}  c #FDFDFD",
"|  c #FCFCFE",
" . c #FCFDFE",
".. c #FCFDFF",
"X. c #FDFCFE",
"o. c #FDFCFF",
"O. c #FDFDFE",
"+. c #FDFDFF",
"@. c #FCFEFD",
"#. c #FCFFFC",
"$. c #FCFFFD",
"%. c #FDFEFC",
"&. c #FDFEFD",
"*. c #FDFFFC",
"=. c #FDFFFD",
"-. c #FCFEFE",
";. c #FCFFFE",
":. c #FCFFFF",
">. c #FDFEFE",
",. c #FDFEFF",
"<. c #FDFFFE",
"1. c #FDFFFF",
"2. c #FEFCFC",
"3. c #FEFCFD",
"4. c #FEFDFC",
"5. c #FEFDFD",
"6. c #FFFCFD",
"7. c #FFFDFC",
"8. c #FFFDFD",
"9. c #FEFCFE",
"0. c #FEFCFF",
"q. c #FEFDFE",
"w. c #FEFDFF",
"e. c #FFFCFE",
"r. c #FFFCFF",
"t. c #FFFDFE",
"y. c #FFFDFF",
"u. c #FEFEFC",
"i. c #FEFEFD",
"p. c #FEFFFC",
"a. c #FEFFFD",
"s. c #FFFEFC",
"d. c #FFFEFD",
"f. c #FFFFFC",
"g. c #FFFFFD",
"h. c #FEFEFE",
"j. c #FEFEFF",
"k. c #FEFFFE",
"l. c #FEFFFF",
"z. c #FFFEFE",
"x. c #FFFEFF",
"c. c #FFFFFE",
"v. c gray100",
/* pixels */
"4 4 3 4 4 3 3 4 3 3 3 3 4 4 4 4 4 4 4 4 ",
"4 l.l.l.l.l.l.l.l.%.l.l.l.l.l.' l.~ g 4 ",
"4 l.6.6.l.l.l.l.l.l.' l.l.l.l.6.6.~ j 4 ",
"4 l.l.l.l.l.%.l.l.l.l.W 6.l.l.l.l.~ g 4 ",
"4 6.6.l.) l.l.%.6.6.l.6.l.l.%.l.W ~ a 4 ",
"4 l.6.W ) l.l.l.6.l.l.6.%.6.l.2.l.J a 4 ",
"4 ' l.l.2.2.6.2.%.l.%.l.l.l.l.%.%.J t 4 ",
"4 l.' %.%.l.l.6.l.%.%.6.%.l.l.6.%.Z w 3 ",
"4 ' l.l.' l.' ' l.l.l.6.6.l.6.l.l.Z q 4 ",
"4 l.l.W 6.' l.l.6.' ' 6.6.6.6.l.l.J q 4 ",
"4 l.6.' l.W l.6.' 6.' 6.l.l.l.6.6.Z q 4 ",
"4 W 6.l.l.W 6.6.l.6.l.' 6.2.2.%.l.Z q 4 ",
"4 l.6.6.' l.6.l.l.l.l.6.%.6.2.6.l.Z q 3 ",
"4 6.l.%.6.l.l.6.l.l.6.%.%.l.l.6.2.C q 4 ",
"4 l.W l.6.6.6.l.%.l.%.%.l.%.l.l.l.C q 4 ",
"4 l.l.l.l.6.l.l.%.%.l.l.~ l.%.%.l.J q 4 ",
"4 l.l.l.l.6.6.l.l.%.2.l.l.l.l.l.%.C q 3 ",
"4 l.' ' 6.6.l.6.l.%.l.2.%.' 6.' l.N 5 4 ",
"4 l.6.6.' ' l.l.%.2.%.%.%.6.6.6.l.B 3 4 ",
"4 l.l.l.l.l.6.l.l.%.%.l.l.l.%.l.l.B 3 4 ",
"4 6.6.' l.W l.6.l.6.l.l.l.6.6.l.l.N 4 3 ",
"4 l.' l.' l.l.l.6.6.l.6.' l.l.' l.n 1 5 ",
"4 l.l.l.l.6.l.' W 6.l.l.l.' %.l.l.b , 3 ",
"4 l.6.l.l.W l.6.l.l.l.' 6.l.6.l.l.x : 3 ",
"4 %.%.%.%.l.2.%.l.l.l.%.l.l.l.6.l.x ; 4 ",
"3 l.l.%.%.%.%.l.%.l.%.l.6.l.6.6.l.x - 4 ",
"3 l.l.l.) 6.6.l.%.%.' ' l.l.l.l.%.g * 3 ",
"3 l.%.%.l.l.l.6.' l.l.6.2.2.l.6.6.f & 3 ",
"4 6.6.l.%.l.2.l.6.l.l.%.2.l.l.6.~ p o 4 ",
"4 l.2.6.%.l.6.6.6.6.l.%.) %.l.l.~ t o 4 ",
"4 2.%.2.%.l.l.%.l.l.l.l.' l.W l.~ y o 4 ",
"4 ~ %.l.%.W 6.%.' 6.l.' l.' l.l.~ a @ 4 ",
"4 %.l.6.W l.W l.' l.l.6.l.l.l.%.2.a @ 4 ",
"4 ~ l.6.l.l.l.6.l.l.l.l.) l.l.6.~ i @ 4 ",
"4 ~ 6.6.l.' l.l.W 6.6.6.) l.l.6.K r o 4 ",
"4 ~ l.6.l.l.W l.6.' l.W ' ' ' 6.J e . 4 ",
"4 ~ l.6.l.W W l.l.6.' l.l.l.l.l.C 6 . 4 ",
"4 J l.l.l.l.l.l.l.l.l.l.6.W ' 6.n 2 o 3 ",
"4 ~ l.W %.' l.l.2.2.6.' W l.' l.x < & 4 ",
"4 J l.l.6.' l.6.6.2.l.l.l.W l.' z > * 4 ",
"4 4 4 4 4 4 4 4 4 4 4 4 4 4 4 4 4 4 4 4 "
};
