/* XPM */
static char *biped_126_159_OffK1[] = {
/* columns rows colors chars-per-pixel */
"11 11 27 1",
"  c #FB775C",
". c #FB775D",
"X c #FD7659",
"o c #FC765B",
"O c #FD765A",
"+ c #FD765B",
"@ c #FC775C",
"# c #EE7E73",
"$ c #ED7F75",
"% c #EE7F74",
"& c #F57A67",
"* c #F77965",
"= c #F67A65",
"- c #F77A65",
"; c #F67A66",
": c #F47B68",
"> c #F47B69",
", c #F57B68",
"< c #F87963",
"1 c #EC8076",
"2 c #EC8077",
"3 c #EA8079",
"4 c gray75",
"5 c #E38484",
"6 c #E58382",
"7 c #E58383",
"8 c #E48484",
/* pixels */
"44444444444",
"4872<O<2654",
"472&OOO&264",
"43:@XOOO:34",
"4: XXXXX :4",
"4 XXXXXXO 4",
"4 OXXXXXO 4",
"4<OXXXXXO&4",
"4%&OXXXO&%4",
"46#<OOO<#64",
"44444444444"
};
