/* XPM */
static char *biped_26_180_OffK0[] = {
/* columns rows colors chars-per-pixel */
"50 16 2 1",
"  c gray62",
". c gray75",
/* pixels */
"..................................................",
".                                                .",
".                                                .",
".                                                .",
".                                                .",
".                                                .",
".                                                .",
".                                                .",
".                                                .",
".                                                .",
".                                                .",
".                                                .",
".                                                .",
".                                                .",
".                                                .",
".................................................."
};
