/* XPM */
static char *biped_182_225_OnK0[] = {
/* columns rows colors chars-per-pixel */
"15 13 40 1",
"  c #6ED244",
". c #6ED344",
"X c #6FD544",
"o c #6FD644",
"O c #70D744",
"+ c #70D844",
"@ c #70D944",
"# c #71DB44",
"$ c #71DC44",
"% c #71DD44",
"& c #72DD44",
"* c #72DE44",
"= c #72DF44",
"- c #72E144",
"; c #73E244",
": c #73E344",
"> c #74E744",
", c #75E844",
"< c #75E944",
"1 c #76EB44",
"2 c #76EC44",
"3 c #76ED44",
"4 c #79F644",
"5 c #7AF844",
"6 c #7EFF44",
"7 c #7FFF44",
"8 c #80FF44",
"9 c #82FF44",
"0 c #83FF44",
"q c #84FF44",
"w c #85FF44",
"e c #86FF44",
"r c #88FF44",
"t c #89FF44",
"y c #8BFF44",
"u c #8CFF44",
"i c #8DFF44",
"p c #8EFF44",
"a c #8FFF44",
"s c gray75",
/* pixels */
"sssssssssssssss",
"srrrre7,..::::s",
"saaaaare73%%::s",
"saaaaaaaa94%@:s",
"saaaaaaaaae4.:s",
"saaaaaaaaaa9:%s",
"saaaaaaaaaae,%s",
"saaaaaaaaaae,@s",
"saaaaaaaaaa93@s",
"saraaaaraaa9,@s",
"s79977979775:%s",
"s.     . .  .:s",
"sssssssssssssss"
};
