/* XPM */
static char *biped_18_29_OnK1[] = {
/* columns rows colors chars-per-pixel */
"22 18 2 1",
"  c #FFFF66",
". c gray75",
/* pixels */
"......................",
".                    .",
".                    .",
".                    .",
".                    .",
".                    .",
".                    .",
".                    .",
".                    .",
".                    .",
".                    .",
".                    .",
".                    .",
".                    .",
".                    .",
".                    .",
".                    .",
"......................"
};
