/* XPM */
static char *biped_288_10_OffK1[] = {
/* columns rows colors chars-per-pixel */
"24 18 2 1",
"  c gray75",
". c #E38484",
/* pixels */
"                        ",
" ...................... ",
" ...................... ",
" ...................... ",
" ...................... ",
" ...................... ",
" ...................... ",
" ...................... ",
" ...................... ",
" ...................... ",
" ...................... ",
" ...................... ",
" ...................... ",
" ...................... ",
" ...................... ",
" ...................... ",
" ...................... ",
"                        "
};
