/* XPM */
static char *biped_261_114_OnK1[] = {
/* columns rows colors chars-per-pixel */
"10 16 2 1",
"  c #FFFF66",
". c gray75",
/* pixels */
"..........",
".        .",
".        .",
".        .",
".        .",
".        .",
".        .",
".        .",
".        .",
".        .",
".        .",
".        .",
".        .",
".        .",
".        .",
".........."
};
