/* XPM */
static char *biped_69_146_OnK0[] = {
/* columns rows colors chars-per-pixel */
"11 20 40 1",
"  c #6ED244",
". c #6ED344",
"X c #6FD444",
"o c #6FD544",
"O c #6FD644",
"+ c #70D744",
"@ c #70D944",
"# c #70DA44",
"$ c #71DB44",
"% c #71DD44",
"& c #72DE44",
"* c #72DF44",
"= c #72E044",
"- c #72E144",
"; c #73E244",
": c #73E344",
"> c #74E644",
", c #75EA44",
"< c #76EB44",
"1 c #77EF44",
"2 c #78F244",
"3 c #78F344",
"4 c #79F644",
"5 c #7AFB44",
"6 c #7BFD44",
"7 c #7CFF44",
"8 c #7DFF44",
"9 c #80FF44",
"0 c #82FF44",
"q c #83FF44",
"w c #84FF44",
"e c #86FF44",
"r c #88FF44",
"t c #89FF44",
"y c #8AFF44",
"u c #8BFF44",
"i c #8DFF44",
"p c #8EFF44",
"a c #8FFF44",
"s c gray75",
/* pixels */
"sssssssssss",
"saaaaaaa8$s",
"saaaaaaa8 s",
"saaaaaat8 s",
"saaaaaat4 s",
"saaaaaaw3 s",
"saaaaaaw1os",
"saaaaaa0,+s",
"saaaaaa6**s",
"saaaaa0:o;s",
"saaaaw;@;;s",
"saaat,@*;;s",
"saat6o*;::s",
"sat0*$;;::s",
"sa0,o;::::s",
"sw3$;:::::s",
"s5**;:::::s",
"s*@;;;::::s",
"s$;;::::::s",
"sssssssssss"
};
