/* XPM */
static char *biped_261_80_OffK1[] = {
/* columns rows colors chars-per-pixel */
"11 15 45 1",
"  c #D47E7E",
". c #D67F7F",
"X c #D87F7F",
"o c gray75",
"O c #DA8080",
"+ c #DE8282",
"@ c #E08383",
"# c #E38484",
"$ c #E78585",
"% c #E98686",
"& c #EF8888",
"* c #F08989",
"= c #F68B8B",
"- c #FC8D8D",
"; c #FC8E8E",
": c #FD8E8E",
"> c #FF8F8F",
", c #FF9191",
"< c #FF9291",
"1 c #FF9292",
"2 c #FF9494",
"3 c #FF9696",
"4 c #FF9999",
"5 c #FF9A99",
"6 c #FF9B9A",
"7 c #FF9B9B",
"8 c #FF9C9C",
"9 c #FF9D9D",
"0 c #FF9E9D",
"q c #FF9E9E",
"w c #FF9F9F",
"e c #FFA09F",
"r c #FFA0A0",
"t c #FFA1A0",
"y c #FFA1A1",
"u c #FFA2A2",
"i c #FFA3A3",
"p c #FFA4A3",
"a c #FFA5A5",
"s c #FFA6A6",
"d c #FFA7A7",
"f c #FFA7A8",
"g c #FFA9A9",
"h c #FFAAA9",
"j c #FFAAAA",
/* pixels */
"ooooooooooo",
"o#X@:1:*+Xo",
"o++:upu8=.o",
"o.*7jjjd2Oo",
"oX1pjjjj7$o",
"o$7jjjjju:o",
"o-ujjjjjd2o",
"o>ujjjjjj7o",
"o2djjjjjj8o",
"o7djjjjjjuo",
"o7jjjjjjjeo",
"o7jjjjjjjuo",
"o8jjjjjjjeo",
"o8jjjjjjjuo",
"ooooooooooo"
};
