/* XPM */
static char *biped_278_84_OnK0[] = {
/* columns rows colors chars-per-pixel */
"10 13 23 1",
"  c #6FD644",
". c #6FD744",
"X c #74E544",
"o c #75E844",
"O c #79F744",
"+ c #7BFD44",
"@ c #7FFF44",
"# c #80FF44",
"$ c #81FF44",
"% c #82FF44",
"& c #83FF44",
"* c #84FF44",
"= c #85FF44",
"- c #86FF44",
"; c #87FF44",
": c #88FF44",
"> c #8AFF44",
", c #8BFF44",
"< c #8CFF44",
"1 c #8DFF44",
"2 c #8EFF44",
"3 c #8FFF44",
"4 c gray75",
/* pixels */
"4444444444",
"4.o%>>>&O4",
"4.+>2232%4",
"4X%23222&4",
"4+>33332&4",
"4@233333&4",
"4%233333>4",
"4&333333&4",
"4>223333&4",
"42323332&4",
"42333322&4",
"4233332>%4",
"4444444444"
};
