/* XPM */
static char *biped_182_225_OnK1[] = {
/* columns rows colors chars-per-pixel */
"15 13 12 1",
"  c #FFF366",
". c #FFF466",
"X c #FFF666",
"o c #FFF766",
"O c #FFF866",
"+ c #FFF966",
"@ c #FFFA66",
"# c #FFFC66",
"$ c #FFFD66",
"% c #FFFE66",
"& c #FFFF66",
"* c gray75",
/* pixels */
"***************",
"*&&&&&&&O.&&&&*",
"*&&&&&&&&&O&&&*",
"*&&&&&&&&&&&&&*",
"*&&&&&&&&&&&O&*",
"*&&&&&&&&&&&&&*",
"*&&&&&&&&&&&&&*",
"*&&&&&&&&&&&&O*",
"*&&&&&&&&&&&&O*",
"*&&&&&&&&&&&&O*",
"*&&&&&&&&&&&&&*",
"*.......... O&*",
"***************"
};
