/* XPM */
static char *biped_105_46_OnK1[] = {
/* columns rows colors chars-per-pixel */
"34 20 16 1",
"  c #FFF066",
". c #FFF166",
"X c #FFF266",
"o c #FFF366",
"O c #FFF566",
"+ c #FFF666",
"@ c #FFF766",
"# c #FFF866",
"$ c #FFF966",
"% c #FFFA66",
"& c #FFFB66",
"* c #FFFC66",
"= c #FFFD66",
"- c #FFFE66",
"; c #FFFF66",
": c gray75",
/* pixels */
"::::::::::::::::::::::::::::::::::",
":----%OOOoo  ooooooooooO%--------:",
":--------------------------------:",
":--------------------------------:",
":--------------------------------:",
":--------------------------------:",
":--------------------------------:",
":--------------------------------:",
":--------------------------------:",
":--------------------------------:",
":--------------------------------:",
":--------------------------------:",
":--------------------------------:",
":--------------------------------:",
":--------------------------------:",
":--------------------------------:",
":%OOOOOOO%-----------------------:",
":------------%OOOO%--------------:",
":--------------------%OoooO------:",
"::::::::::::::::::::::::::::::::::"
};
