/* XPM */
static char *biped_237_137_OffK0[] = {
/* columns rows colors chars-per-pixel */
"13 8 51 1",
"  c gray57",
". c #979797",
"X c #A0A1A1",
"o c #A2A2A3",
"O c #AFAFAF",
"+ c #B1B0B1",
"@ c gray75",
"# c #C8C8C8",
"$ c #C9C8C9",
"% c #D3D2D2",
"& c #D4D4D3",
"* c #DADADA",
"= c #DCDCDB",
"- c #DDDDDE",
"; c #E2E4E4",
": c #ECEBEB",
"> c #ECEAEC",
", c #F1EFEF",
"< c #F1F1F1",
"1 c #F5F4F5",
"2 c #F8F8F8",
"3 c #F8F9F9",
"4 c #FAF9FB",
"5 c #FBFCFC",
"6 c #FCFAFB",
"7 c #FCFDFD",
"8 c #FDFCFC",
"9 c #FDFCFD",
"0 c #FDFDFC",
"q c #FDFDFD",
"w c #FDFDFE",
"e c #FDFDFF",
"r c #FDFEFD",
"t c #FDFEFE",
"y c #FDFFFE",
"u c #FDFFFF",
"i c #FFFDFC",
"p c #FFFDFD",
"a c #FEFDFF",
"s c #FFFDFE",
"d c #FFFDFF",
"f c #FEFFFD",
"g c #FFFEFC",
"h c #FFFEFD",
"j c #FFFFFD",
"k c #FEFEFE",
"l c #FEFFFE",
"z c #FFFEFE",
"x c #FFFEFF",
"c c #FFFFFE",
"v c gray100",
/* pixels */
"@@@@@@@@#@@@@",
"@777777777%.@",
"@27i777777*X@",
"@>67777777;O@",
"@$,77777771#@",
"@o%17777772-@",
"@ +-2677777:@",
"@@@@@@@#@@@@@"
};
