/* XPM */
static char *biped_234_221_OnK1[] = {
/* columns rows colors chars-per-pixel */
"13 13 64 1",
"  c #FF9366",
". c #FF9566",
"X c #FF9666",
"o c #FF9766",
"O c #FF9A66",
"+ c #FF9B66",
"@ c #FF9C66",
"# c #FF9E66",
"$ c #FF9F66",
"% c #FFA466",
"& c #FFA566",
"* c #FFA666",
"= c #FFA866",
"- c #FFAC66",
"; c #FFAD66",
": c #FFAE66",
"> c #FFB066",
", c #FFB166",
"< c #FFB266",
"1 c #FFB366",
"2 c #FFB466",
"3 c #FFB866",
"4 c #FFBA66",
"5 c #FFBB66",
"6 c #FFBE66",
"7 c #FFBF66",
"8 c #FFC066",
"9 c #FFC266",
"0 c #FFC366",
"q c #FFC466",
"w c #FFC566",
"e c #FFC766",
"r c #FFC866",
"t c #FFC966",
"y c #FFCA66",
"u c #FFCC66",
"i c #FFCF66",
"p c #FFD066",
"a c #FFD366",
"s c #FFD466",
"d c #FFD566",
"f c #FFD666",
"g c #FFD966",
"h c #FFDF66",
"j c #FFE166",
"k c #FFE466",
"l c #FFE666",
"z c #FFE766",
"x c #FFE866",
"c c #FFEC66",
"v c #FFED66",
"b c #FFEE66",
"n c #FFEF66",
"m c #FFF066",
"M c #FFF166",
"N c #FFF366",
"B c #FFF466",
"V c #FFF766",
"C c #FFF866",
"Z c #FFF966",
"A c #FFFC66",
"S c #FFFE66",
"D c #FFFF66",
"F c gray75",
/* pixels */
"FFFFFFFFFFFFF",
"FDDNf516jZDDF",
"FDz6%oo #wNDF",
"FB0=,wr1 #rDF",
"Fg,0bDDN0 %bF",
"F06zDDDDb-ofF",
"F6rbDDDDB6orF",
"FrwzDDDDb,#fF",
"Fj6wNDDBi%-bF",
"FZi50ii6%=pDF",
"FDbi1,=%,fZDF",
"FDDDxprfbDDDF",
"FFFFFFFFFFFFF"
};
