/* XPM */
static char *biped_284_120_OnK0[] = {
/* columns rows colors chars-per-pixel */
"10 10 12 1",
"  c #7EFF44",
". c #81FF44",
"X c #84FF44",
"o c #85FF44",
"O c #88FF44",
"+ c #89FF44",
"@ c #8BFF44",
"# c #8CFF44",
"$ c #8DFF44",
"% c #8EFF44",
"& c #8FFF44",
"* c gray75",
/* pixels */
"**********",
"* %&%%&%%*",
"*X%&&&&&%*",
"*+%&&&&&%*",
"*%&&&&&&%*",
"*%&&&&&&%*",
"*%&&&&&&+*",
"*&&&&&&%X*",
"*&&&&&&%.*",
"**********"
};
