/* XPM */
static char *biped_211_35_OffK1[] = {
/* columns rows colors chars-per-pixel */
"11 11 33 1",
"  c #FB775C",
". c #FB775D",
"X c #FD7659",
"o c #FC765A",
"O c #FC765B",
"+ c #FC775B",
"@ c #FD765A",
"# c #FD765B",
"$ c #FC775C",
"% c #EE7E73",
"& c #ED7F74",
"* c #ED7F75",
"= c #ED7F76",
"- c #F57A67",
"; c #F67A65",
": c #F77A65",
"> c #F67A66",
", c #F47B68",
"< c #F47B69",
"1 c #F57B68",
"2 c #F87962",
"3 c #F87963",
"4 c #EB8077",
"5 c #EC8076",
"6 c #EC8077",
"7 c #EA8179",
"8 c gray75",
"9 c #E38484",
"0 c #E58382",
"q c #E58383",
"w c #E68382",
"e c #E48483",
"r c #E48484",
/* pixels */
"88888888888",
"8rq=2#26098",
"8q6>#X#>=98",
"87,$X##$-78",
"8,+XXXXX+-8",
"8+XXXXXX++8",
"8 XXXXXX++8",
"8>#XXXXX+>8",
"8=>+XXX >&8",
"8q&.#+#.&08",
"88888888888"
};
