/* XPM */
static char *biped_18_46_OnK1[] = {
/* columns rows colors chars-per-pixel */
"11 16 2 1",
"  c #FFFF66",
". c gray75",
/* pixels */
"...........",
".         .",
".         .",
".         .",
".         .",
".         .",
".         .",
".         .",
".         .",
".         .",
".         .",
".         .",
".         .",
".         .",
".         .",
"..........."
};
