/* XPM */
static char *biped_30_131_OnK1[] = {
/* columns rows colors chars-per-pixel */
"38 46 15 1",
"  c #FFF066",
". c #FFF166",
"X c #FFF266",
"o c #FFF466",
"O c #FFF566",
"+ c #FFF666",
"@ c #FFF766",
"# c #FFF866",
"$ c #FFF966",
"% c #FFFA66",
"& c #FFFB66",
"* c #FFFC66",
"= c #FFFE66",
"- c #FFFF66",
"; c gray75",
/* pixels */
";;;;;;;;;;;;;;;;;;;;;;;;;;;;;;;;;;;;;;",
";------------------------------------;",
";------------------------------------;",
";------------------------------------;",
";------------------------------------;",
";------------------------------------;",
";------------------------------------;",
";------------------------------------;",
";------------------------------------;",
";------------------------------------;",
";------------------------------------;",
";------------------------------------;",
";------------------------------------;",
";------------------------------------;",
";------------------------------------;",
";------------------------------------;",
";------------------------------------;",
";------------------------------------;",
";------------------------------------;",
";------------------------------------;",
";------------------------------------;",
";------------------------------------;",
";------------------------------------;",
";------------------------------------;",
";------------------------------------;",
";------------------------------------;",
";------------------------------------;",
";------------------------------------;",
";------------------------------------;",
";------------------------------------;",
";+-----------------------------------;",
"; -----------------------------------;",
"; -----------------------------------;",
";------------------------------------;",
";-+----------------------------------;",
";--+---------------------------------;",
";-- ---------------------------------;",
";-- ---------------------------------;",
";--+---------------------------------;",
";--@-------------------------------+@;",
";--+------------------------------@--;",
";-- ---------------------------------;",
";-- ---------------------------- ----;",
";-- ----------------------------+----;",
";-- ----------------------------@----;",
";;;;;;;;;;;;;;;;;;;;;;;;;;;;;;;;;;;;;;"
};
