/* XPM */
static char *biped_117_13_OffK1[] = {
/* columns rows colors chars-per-pixel */
"15 15 45 1",
"  c #4444AA",
". c #5044A5",
"X c #5145A6",
"o c #5344A4",
"O c #5444A4",
"+ c #5747A4",
"@ c #6046A0",
"# c #6147A0",
"$ c #965891",
"% c #9A6294",
"& c #9B6294",
"* c #B0608A",
"= c #B1618A",
"- c #B2618A",
"; c #B3628A",
": c #B56289",
"> c #B66389",
", c #B76B8C",
"< c #B86E8D",
"1 c #B06F90",
"2 c #B16F90",
"3 c #B4708F",
"4 c #B5708F",
"5 c #B6708E",
"6 c #B6718E",
"7 c #BF718B",
"8 c #BC708C",
"9 c #BD708C",
"0 c #B07090",
"q c #B17090",
"w c #B27090",
"e c #C0718B",
"r c #D67985",
"t c #D67D87",
"y c #D67E87",
"u c #DA7C85",
"i c #DB7C85",
"p c gray75",
"a c #DA8086",
"s c #DB8086",
"d c #DB8186",
"f c #DD8185",
"g c #DC8086",
"h c #DE8185",
"j c #E38484",
/* pixels */
"ppppppppppppppp",
"pjjjjs4+4sjjjjp",
"pjjjjs1 qsjjjjp",
"pjjjjs1 qsjjjjp",
"pjjjjsq qfjjjjp",
"pffjft1 1tffffp",
"pe<<8,& &,8787p",
"p#o+.+. .o+O.#p",
"p>----$ $*---:p",
"piiiur, ,ruuuup",
"pjjjjs4 4sjjjjp",
"pjjjjsq qsjjjjp",
"pjjjjuq qsjjjjp",
"pjjjjs4.4sjjjjp",
"ppppppppppppppp"
};
