/* XPM */
static char *biped_252_131_OnK1[] = {
/* columns rows colors chars-per-pixel */
"38 46 12 1",
"  c #FFF066",
". c #FFF166",
"X c #FFF266",
"o c #FFF366",
"O c #FFF466",
"+ c #FFF566",
"@ c #FFF666",
"# c #FFF766",
"$ c #FFF966",
"% c #FFFA66",
"& c #FFFF66",
"* c gray75",
/* pixels */
"**************************************",
"*&&&&&&&&&&&&&&&&&&&&&&&&&&&&&&&&&&&&*",
"*&&&&&&&&&&&&&&&&&&&&&&&&&&&&&&&&&&&&*",
"*&&&&&&&&&&&&&&&&&&&&&&&&&&&&&&&&&&&&*",
"*&&&&&&&&&&&&&&&&&&&&&&&&&&&&&&&&&&&&*",
"*&&&&&&&&&&&&&&&&&&&&&&&&&&&&&&&&&&&&*",
"*&&&&&&&&&&&&&&&&&&&&&&&&&&&&&&&&&&&&*",
"*&&&&&&&&&&&&&&&&&&&&&&&&&&&&&&&&&&&&*",
"*&&&&&&&&&&&&&&&&&&&&&&&&&&&&&&&&&&&&*",
"*&&&&&&&&&&&&&&&&&&&&&&&&&&&&&&&&&&&&*",
"*&&&&&&&&&&&&&&&&&&&&&&&&&&&&&&&&&&&&*",
"*&&&&&&&&&&&&&&&&&&&&&&&&&&&&&&&&&&&&*",
"*&&&&&&&&&&&&&&&&&&&&&&&&&&&&&&&&&&&&*",
"*&&&&&&&&&&&&&&&&&&&&&&&&&&&&&&&&&&&&*",
"*&&&&&&&&&&&&&&&&&&&&&&&&&&&&&&&&&&&&*",
"*&&&&&&&&&&&&&&&&&&&&&&&&&&&&&&&&&&&&*",
"*&&&&&&&&&&&&&&&&&&&&&&&&&&&&&&&&&&&&*",
"*&&&&&&&&&&&&&&&&&&&&&&&&&&&&&&&&&&&&*",
"*&&&&&&&&&&&&&&&&&&&&&&&&&&&&&&&&&&&&*",
"*&&&&&&&&&&&&&&&&&&&&&&&&&&&&&&&&&&&&*",
"*&&&&&&&&&&&&&&&&&&&&&&&&&&&&&&&&&&&&*",
"*&&&&&&&&&&&&&&&&&&&&&&&&&&&&&&&&&&&&*",
"*&&&&&&&&&&&&&&&&&&&&&&&&&&&&&&&&&&&&*",
"*&&&&&&&&&&&&&&&&&&&&&&&&&&&&&&&&&&&&*",
"*&&&&&&&&&&&&&&&&&&&&&&&&&&&&&&&&&&&&*",
"*&&&&&&&&&&&&&&&&&&&&&&&&&&&&&&&&&&&&*",
"*&&&&&&&&&&&&&&&&&&&&&&&&&&&&&&&&&&&&*",
"*&&&&&&&&&&&&&&&&&&&&&&&&&&&&&&&&&&&&*",
"*&&&&&&&&&&&&&&&&&&&&&&&&&&&&&&&&&&&&*",
"*&&&&&&&&&&&&&&&&&&&&&&&&&&&&&&&&&&&&*",
"*&&&&&&&&&&&&&&&&&&&&&&&&&&&&&&&&&&&+*",
"*&&&&&&&&&&&&&&&&&&&&&&&&&&&&&&&&&&& *",
"*&&&&&&&&&&&&&&&&&&&&&&&&&&&&&&&&&&&o*",
"*&&&&&&&&&&&&&&&&&&&&&&&&&&&&&&&&&&&%*",
"*&&&&&&&&&&&&&&&&&&&&&&&&&&&&&&&&&&+&*",
"*&&&&&&&&&&&&&&&&&&&&&&&&&&&&&&&&&+&&*",
"*&&&&&&&&&&&&&&&&&&&&&&&&&&&&&&&&&o&&*",
"*&&&&&&&&&&&&&&&&&&&&&&&&&&&&&&&&&o&&*",
"*&&&&&&&&&&&&&&&&&&&&&&&&&&&&&&&&&+&&*",
"*%+&&&&&&&&&&&&&&&&&&&&&&&&&&&&&&&%&&*",
"*&&+&&&&&&&&&&&&&&&&&&&&&&&&&&&&&&o&&*",
"*&&&%&&&&&&&&&&&&&&&&&&&&&&&&&&&&&o&&*",
"*&&&&+&&&&&&&&&&&&&&&&&&&&&&&&&&&& &&*",
"*&&&&+&&&&&&&&&&&&&&&&&&&&&&&&&&&&o&&*",
"*&&&&%&&&&&&&&&&&&&&&&&&&&&&&&&&&&o&&*",
"**************************************"
};
