/* XPM */
static char *biped_243_85_OnK0[] = {
/* columns rows colors chars-per-pixel */
"10 13 35 1",
"  c #6ED144",
". c #6FD444",
"X c #70D744",
"o c #70D844",
"O c #70D944",
"+ c #70DA44",
"@ c #71DB44",
"# c #72DE44",
"$ c #72E044",
"% c #73E144",
"& c #73E244",
"* c #73E344",
"= c #74E644",
"- c #75E944",
"; c #77F044",
": c #79F544",
"> c #7AFB44",
", c #7BFE44",
"< c #7CFF44",
"1 c #7FFF44",
"2 c #80FF44",
"3 c #81FF44",
"4 c #83FF44",
"5 c #84FF44",
"6 c #85FF44",
"7 c #87FF44",
"8 c #88FF44",
"9 c #89FF44",
"0 c #8AFF44",
"q c #8BFF44",
"w c #8CFF44",
"e c #8DFF44",
"r c #8EFF44",
"t c #8FFF44",
"y c gray75",
/* pixels */
"yyyyyyyyyy",
"y#@.  o#$y",
"y@=:<,$o$y",
"y;2799<$@y",
"y<ettt9>Xy",
"y2etttt2-y",
"y7etttte<y",
"y7ttttte7y",
"y7ettttt9y",
"y2etttttey",
"y2etttttey",
"y<etttttty",
"yyyyyyyyyy"
};
