/* XPM */
static char *biped_55_221_OffK1[] = {
/* columns rows colors chars-per-pixel */
"13 13 49 1",
"  c #FF5757",
". c #FF5A5A",
"X c #FF5B5B",
"o c #FF5C5C",
"O c #FF5D5D",
"+ c #FF5E5E",
"@ c #FF5F5F",
"# c #EA7F7F",
"$ c #EB7F7F",
"% c #ED7D7D",
"& c #EC7F7F",
"* c #ED7E7E",
"= c #EE7D7D",
"- c #EF7C7C",
"; c #FF6060",
": c #FF6161",
"> c #FF6262",
", c #FF6363",
"< c #FF6464",
"1 c #FF6565",
"2 c #FF6666",
"3 c #FF6767",
"4 c #FF6868",
"5 c #FF6969",
"6 c #FF6A6A",
"7 c #FF6B6B",
"8 c #FF6C6C",
"9 c #FF6D6D",
"0 c #FF6E6E",
"q c #F17B7B",
"w c #F27B7B",
"e c #F37A7A",
"r c #F07C7C",
"t c #F57878",
"y c #F67878",
"u c #F97575",
"i c #F97676",
"p c #FA7575",
"a c #FF7070",
"s c #FF7171",
"d c #FE7373",
"f c gray75",
"g c #E38484",
"h c #E48383",
"j c #E58383",
"k c #E48484",
"l c #E88181",
"z c #E88282",
"x c #EA8080",
/* pixels */
"fffffffffffff",
"fgg#p7>1a-ggf",
"fg-7X XXO7tgf",
"fl9XX197>O7-f",
"fqOX9ljjq7>af",
"faX>-ggjjp17f",
"f7X7lggggq71f",
"faX1-gggkp17f",
"fr>X9#jjq7>pf",
"flaOO1971>9#f",
"fk&a>OOO>9rkf",
"fgklra99ylkkf",
"fffffffffffff"
};
