/* XPM */
static char *biped_103_195_OffK0[] = {
/* columns rows colors chars-per-pixel */
"23 23 58 1",
"  c #BC6C6C",
". c #BC6D6D",
"X c #BD6C6C",
"o c #BE6C6C",
"O c #B37C7C",
"+ c #B37D7D",
"@ c #B47C7C",
"# c #B47D7D",
"$ c #DF3232",
"% c #DD3636",
"& c #DD3737",
"* c #DE3535",
"= c #DE3636",
"- c #DC3838",
"; c #F70B0B",
": c #F70C0C",
"> c #FB0505",
", c #FA0707",
"< c #FE0000",
"1 c red",
"2 c #F90808",
"3 c #F21313",
"4 c #F31313",
"5 c #F21414",
"6 c #E62727",
"7 c #E52929",
"8 c #E62828",
"9 c #E62929",
"0 c #E03030",
"q c #E13030",
"w c #E13131",
"e c #E03232",
"r c #CD5151",
"t c #CD5252",
"y c #CE5151",
"u c #D34646",
"i c #D34747",
"p c #D44646",
"a c #C36161",
"s c #C36262",
"d c #C46161",
"f c #C56161",
"g c #9F9D9D",
"h c gray62",
"j c #9F9E9E",
"k c #A59393",
"l c #A79191",
"z c #A69393",
"x c #A79292",
"c c #A59595",
"v c #A49696",
"b c #A09B9B",
"n c #A19B9B",
"m c #A29B9B",
"M c #A09D9D",
"N c #A19C9C",
"B c #A09E9E",
"V c gray75",
/* pixels */
"VVVVVVVVVVVVVVVVVVVVVVV",
"VhhhhMl@di&e&is+zmhhhhV",
"Vhhhc+y73:2>2:37t+vhhhV",
"VhMzX-5>1111111>5- khhV",
"VhcX$;11111111111;$ vhV",
"Vm@-;1111111111111;-OmV",
"Vzy31111111111111113yzV",
"V@6>111111111111111>6+V",
"Vd5111111111111111113dV",
"Vp:11111111111111111:iV",
"V&2111111111111111112&V",
"Ve>11111111111111111>$V",
"V&>11111111111111111>&V",
"Vp:11111111111111111;iV",
"Vd3111111111111111113sV",
"V@6>111111111111111>6+V",
"Vzy31111111111111113yzV",
"Vm@&21111111111111;-+mV",
"VhcX$:11111111111;$XchV",
"VhMzX-5>1111111>3-XzhhV",
"VhhMc@y6422>2;46y@zghhV",
"VhhhMMz@dp&e&pd@zmhhhhV",
"VVVVVVVVVVVVVVVVVVVVVVV"
};
