/* XPM */
static char *biped_288_109_OffK0[] = {
/* columns rows colors chars-per-pixel */
"10 10 47 1",
"  c #929191",
". c #929292",
"X c #9E9D9D",
"o c #A7A7A7",
"O c #B1B1B1",
"+ c #B6B4B5",
"@ c #B9B9B8",
"# c gray75",
"$ c gray76",
"% c #CDCDCC",
"& c #CFCECF",
"* c #D3D3D2",
"= c LightGray",
"- c #DEE0DE",
"; c gray88",
": c #E3E2E2",
"> c #E6E6E6",
", c #EBEBEC",
"< c #EBECEB",
"1 c #ECECEC",
"2 c #F5F3F4",
"3 c gray96",
"4 c #F5F4F6",
"5 c #F7F6F7",
"6 c #FAFBF9",
"7 c #FBFBFC",
"8 c #FCFCFB",
"9 c gray99",
"0 c #FCFCFD",
"q c #FCFDFD",
"w c #FDFDFD",
"e c #FDFEFD",
"r c #FDFFFD",
"t c #FDFEFE",
"y c #FDFFFE",
"u c #FEFDFD",
"i c #FFFDFD",
"p c #FEFDFE",
"a c #FEFDFF",
"s c #FFFDFE",
"d c #FEFEFD",
"f c #FFFEFD",
"g c #FFFFFD",
"h c #FEFEFE",
"j c #FEFEFF",
"k c #FEFFFE",
"l c #FFFFFE",
/* pixels */
"##########",
"#.o*7tttt#",
"#.@<tttt7#",
"#X%6gttt2#",
"#+:tgtg81#",
"#&28tgt7-#",
"#>8tttt5*#",
"#5ttt7t1$#",
"#8ttt7t-O#",
"##########"
};
