/* XPM */
static char *biped_26_120_OffK1[] = {
/* columns rows colors chars-per-pixel */
"10 10 15 1",
"  c gray75",
". c #FF9293",
"X c #FF9595",
"o c #FF9A9A",
"O c #FF9C9C",
"+ c #FFA1A1",
"@ c #FFA2A2",
"# c #FFA3A3",
"$ c #FFA5A5",
"% c #FFA6A6",
"& c #FFA7A7",
"* c #FFA9A8",
"= c #FFA9A9",
"- c #FFA9AA",
"; c #FFAAAA",
/* pixels */
"          ",
" ;;;;;;#. ",
" ;;;;;;&X ",
" ;;;;;;;# ",
" &;;;;;;& ",
" &;;;;;;& ",
" #;;;;;;; ",
" o;;;;;;; ",
" X&;;;;;; ",
"          "
};
