/* XPM */
static char *biped_49_43_OnK0[] = {
/* columns rows colors chars-per-pixel */
"21 21 67 1",
"  c #6DCD44",
". c #6DCE44",
"X c #6DD044",
"o c #6ED044",
"O c #6ED144",
"+ c #6ED244",
"@ c #6ED344",
"# c #6FD444",
"$ c #6FD544",
"% c #6FD744",
"& c #70D744",
"* c #70D944",
"= c #70DA44",
"- c #71DA44",
"; c #71DB44",
": c #71DC44",
"> c #71DD44",
", c #71DE44",
"< c #72DF44",
"1 c #72E044",
"2 c #72E144",
"3 c #73E144",
"4 c #73E244",
"5 c #73E344",
"6 c #74E444",
"7 c #74E544",
"8 c #75E744",
"9 c #75E844",
"0 c #75EA44",
"q c #75EB44",
"w c #76EC44",
"e c #77EE44",
"r c #77EF44",
"t c #77F044",
"y c #78F344",
"u c #79F544",
"i c #79F644",
"p c #79F744",
"a c #79F844",
"s c #7AF944",
"d c #7AFB44",
"f c #7AFC44",
"g c #7BFC44",
"h c #7BFD44",
"j c #7BFE44",
"k c #7BFF44",
"l c #7CFF44",
"z c #7DFF44",
"x c #7EFF44",
"c c #7FFF44",
"v c #80FF44",
"b c #81FF44",
"n c #82FF44",
"m c #83FF44",
"M c #84FF44",
"N c #85FF44",
"B c #86FF44",
"V c #87FF44",
"C c #88FF44",
"Z c #89FF44",
"A c #8AFF44",
"S c #8BFF44",
"D c #8CFF44",
"F c #8DFF44",
"G c #8EFF44",
"H c #8FFF44",
"J c gray75",
/* pixels */
"JJJJJJJJJJJJJJJJJJJJJ",
"J55555:==sNAFAAAbeO:J",
"J$O$=555:::8zAFHFNz=J",
"Jbzi8:&&@O..:NFHHFAbJ",
"JFAANbzzjsrrjNFHHHHFJ",
"JbNAFFFFAAANAFHHHHHHJ",
"J=qjbNFHFFHHHHHHHHHHJ",
"J::5qzNFHHHHHHHHHHHHJ",
"JbbbbNAFHHHHHHHHHHHHJ",
"JHFFHHHHHHHHHHHHHHHHJ",
"JNAAAAAFHHHHHHHHHHHHJ",
"J&=:qsNFHHHHHHHHHHHHJ",
"J:rzbAAFHHHHHHHHHHHHJ",
"JAAAFFFHHHHHHHHHHHHHJ",
"JFAANNNAHHHHHHHHHHHHJ",
"JjjieqzNHHHHHHHHHHHFJ",
"JO.O:sbAHHFFFHHFAANbJ",
"J:5sbAFAANNbNNbzjiq:J",
"JrNFAAbzr5&O$%$OO$=5J",
"JAANz8OO=:5555555555J",
"JJJJJJJJJJJJJJJJJJJJJ"
};
