/* XPM */
static char *biped_156_38_OffK0[] = {
/* columns rows colors chars-per-pixel */
"8 17 30 1",
"  c gray75",
". c #FDFDFD",
"X c #FCFDFE",
"o c #FDFDFE",
"O c #FDFDFF",
"+ c #FDFEFD",
"@ c #FDFFFD",
"# c #FCFEFE",
"$ c #FDFEFE",
"% c #FDFEFF",
"& c #FDFFFE",
"* c #FDFFFF",
"= c #FEFCFD",
"- c #FEFDFD",
"; c #FFFDFC",
": c #FFFDFD",
"> c #FEFCFE",
", c #FEFDFE",
"< c #FEFDFF",
"1 c #FFFDFE",
"2 c #FFFDFF",
"3 c #FEFEFD",
"4 c #FEFFFD",
"5 c #FFFEFC",
"6 c #FFFEFD",
"7 c #FEFEFE",
"8 c #FEFEFF",
"9 c #FFFEFE",
"0 c #FFFEFF",
"q c #FFFFFE",
/* pixels */
"        ",
" 8888== ",
" =888== ",
" ==88== ",
" ==8@@8 ",
" ==@8@8 ",
" ===888 ",
" 8@=88= ",
" =88=88 ",
" ==88=8 ",
" ==88== ",
" ==8888 ",
" @@8=88 ",
" @@@8=8 ",
" 8@@=8= ",
" 888=== ",
"        "
};
