/* XPM */
static char *biped_162_141_OffK1[] = {
/* columns rows colors chars-per-pixel */
"20 41 51 1",
"  c #CF7C7C",
". c #D07C7C",
"X c #D17D7C",
"o c #D17D7D",
"O c #D27D7D",
"+ c #D37E7D",
"@ c #D47E7E",
"# c #D77F7F",
"$ c #D87F7F",
"% c gray75",
"& c #DC8181",
"* c #E28383",
"= c #E98686",
"- c #EE8888",
"; c #F18989",
": c #F78C8C",
"> c #FB8D8E",
", c #FF8F8F",
"< c #FF9090",
"1 c #FF9292",
"2 c #FF9394",
"3 c #FF9595",
"4 c #FF9596",
"5 c #FF9696",
"6 c #FF9797",
"7 c #FF9999",
"8 c #FF9B9B",
"9 c #FF9B9C",
"0 c #FF9C9C",
"q c #FF9D9C",
"w c #FF9D9E",
"e c #FF9E9E",
"r c #FF9F9F",
"t c #FF9FA0",
"y c #FFA09F",
"u c #FFA0A0",
"i c #FFA1A1",
"p c #FFA2A2",
"a c #FFA3A3",
"s c #FFA4A4",
"d c #FFA5A4",
"f c #FFA5A5",
"g c #FFA6A6",
"h c #FFA7A7",
"j c #FFA8A7",
"k c #FFA8A8",
"l c #FFA8A9",
"z c #FFA9A8",
"x c #FFA9A9",
"c c #FFAAA9",
"v c #FFAAAA",
/* pixels */
"%%%%%%%%%%%%%%%%%%%%",
"%vvvvvvvvvvvvvvvvve%",
"%vvvvvvvvvvvvvvvvve%",
"%vvvvvvvvvvvvvvvvve%",
"%vvvvvvvvvvvvvvvvge%",
"%vvvvvvvvvvvvvvvvv6%",
"%vvvvvvvvvvvvvvvvg6%",
"%vvvvvvvvvvvvvvvvg5%",
"%vvvvvvvvvvvvvvvvg5%",
"%vvvvvvvvvvvvvvvvg5%",
"%vvvvvvvvvvvvvvvvg5%",
"%vvvvvvvvvvvvvvvvg5%",
"%vvvvvvvvvvvvvvvvg5%",
"%vvvvvvvvvvvvvvvvg1%",
"%vvvvvvvvvvvvvvvvg5%",
"%vvvvvvvvvvvvvvvvg5%",
"%vvvvvvvvvvvvvvvvg1%",
"%vvvvvvvvvvvvvvvvg1%",
"%vvvvvvvvvvvvvvvvg1%",
"%vvvvvvvvvvvvvvvva,%",
"%vvvvvvvvvvvvvvvva1%",
"%vvvvvvvvvvvvvvvvg>%",
"%vvvvvvvvvvvvvvvvr;%",
"%vvvvvvvvvvvvvvvvr=%",
"%vvvvvvvvvvvvvvvvr*%",
"%vvvvvvvvvvvvvvvvt&%",
"%vvvvvvvvvvvvvvvve#%",
"%vvvvvvvvvvvvvvvve+%",
"%vvvvvvvvvvvvvvvve+%",
"%vvvvvvvvvvvvvvvh6+%",
"%vvvvvvvvvvvvvvvv6+%",
"%vvvvvvvvvvvvvvvv8+%",
"%vvvvvvvvvvvvvvvv6+%",
"%vvvvvvvvvvvvvvvv8+%",
"%hvvvvvvvvvvvvvvv6 %",
"%vvvvvvvvvvvvvvvg4 %",
"%vvvvvvvvvvvvvvvg5 %",
"%hvvvvvvvvvvvvvvr1+%",
"%vvvvvvvvvvvvvvvr:+%",
"%hvvvvvvvvvvvvvve-#%",
"%%%%%%%%%%%%%%%%%%%%"
};
