/* XPM */
static char *biped_183_159_OffK0[] = {
/* columns rows colors chars-per-pixel */
"11 11 37 1",
"  c #B77D37",
". c #B77D38",
"X c #B77D39",
"o c #B77D3A",
"O c #B77D3B",
"+ c #B77E3B",
"@ c #B67E3C",
"# c #B67F3D",
"$ c #B77E3C",
"% c #B87A32",
"& c #B87A33",
"* c #B87B33",
"= c #B87B35",
"- c #B87C35",
"; c #B87D37",
": c #AF8859",
"> c #AF885A",
", c #B3834B",
"< c #B3844D",
"1 c #B18552",
"2 c #B28450",
"3 c #B28550",
"4 c #B28551",
"5 c #B08755",
"6 c #B08859",
"7 c #A7937C",
"8 c #A7947D",
"9 c #A99175",
"0 c #A99177",
"q c #A89279",
"w c #9F9E9E",
"e c #A69683",
"r c #A69684",
"t c #A09D99",
"y c #A09D9A",
"u c #A09D9B",
"i c gray75",
/* pixels */
"iiiiiiiiiii",
"iwu7<;<7uwi",
"iu85;*;58ui",
"ir:X*%%X6ri",
"i:#*%%%*$6i",
"i#%%%%%%%#i",
"i#*%%%%%%Xi",
"i1X*%%%*X1i",
"iq1;%%%;<9i",
"iu9,;%;,9ui",
"iiiiiiiiiii"
};
