/* XPM */
static char *biped_139_3_OffK1[] = {
/* columns rows colors chars-per-pixel */
"42 32 100 2",
"   c #CF7C7C",
".  c #D07C7C",
"X  c #D17D7C",
"o  c #D17D7D",
"O  c #D27D7D",
"+  c #D37D7D",
"@  c #D37E7E",
"#  c #D47E7E",
"$  c #D57E7E",
"%  c #D57E7F",
"&  c #D67E7E",
"*  c #D67F7E",
"=  c #D67F7F",
"-  c #D77F7F",
";  c #D87F7F",
":  c gray75",
">  c #D88080",
",  c #D98080",
"<  c #DA8080",
"1  c #DB8181",
"2  c #DC8181",
"3  c #DD8181",
"4  c #DE8282",
"5  c #DF8282",
"6  c #E08282",
"7  c #E08283",
"8  c #E08383",
"9  c #E18383",
"0  c #E28383",
"q  c #E28484",
"w  c #E38484",
"e  c #E48484",
"r  c #E58585",
"t  c #E78585",
"y  c #E88686",
"u  c #E98686",
"i  c #E98786",
"p  c #EA8787",
"a  c #EB8787",
"s  c #EC8787",
"d  c #EC8888",
"f  c #ED8888",
"g  c #EE8888",
"h  c #EF8988",
"j  c #EF8989",
"k  c #F08989",
"l  c #F18989",
"z  c #F28A8A",
"x  c #F98D8D",
"c  c #FA8D8D",
"v  c #FC8E8E",
"b  c #FD8E8E",
"n  c #FE8F8F",
"m  c #FF8F8F",
"M  c #FF9090",
"N  c #FF9091",
"B  c #FF9191",
"V  c #FF9192",
"C  c #FF9291",
"Z  c #FF9393",
"A  c #FF9494",
"S  c #FF9595",
"D  c #FF9695",
"F  c #FF9696",
"G  c #FF9797",
"H  c #FF9798",
"J  c #FF9898",
"K  c #FF9999",
"L  c #FF9A9A",
"P  c #FF9B9A",
"I  c #FF9B9B",
"U  c #FF9B9C",
"Y  c #FF9C9C",
"T  c #FF9D9D",
"R  c #FF9E9E",
"E  c #FF9F9E",
"W  c #FF9F9F",
"Q  c #FF9FA0",
"!  c #FFA09F",
"~  c #FFA0A0",
"^  c #FFA1A1",
"/  c #FFA1A2",
"(  c #FFA2A1",
")  c #FFA2A2",
"_  c #FFA2A3",
"`  c #FFA3A2",
"'  c #FFA3A3",
"]  c #FFA3A4",
"[  c #FFA4A4",
"{  c #FFA4A5",
"}  c #FFA5A5",
"|  c #FFA6A6",
" . c #FFA7A7",
".. c #FFA7A8",
"X. c #FFA8A8",
"o. c #FFA8A9",
"O. c #FFA9A9",
"+. c #FFA9AA",
"@. c #FFAAA9",
"#. c #FFAAAA",
/* pixels */
": : : : : : : : : : : : : : : : : : : : : : : : : : : : : : : : : : : : : : : : : : ",
": w w w w w w w t 7 4 . . 4 j m A P W Q ~ ~ ~ W P A m g 4     4 t 7 w w w w w w w : ",
": w w w w w w w 7 - 8 C W _ } }  . . .#.#.#. .#. . .} } ~ U m 8 - 8 7 t w w w w w : ",
": w w w w w w 8 % k P }  .#.#.#.#.#.#.#.#.#.#.#.#.#.#.#.#. .} P j - w 7 w w w w w : ",
": w w w w w 8 - j W  .#.#.#.#.#.#.#.#.#.#.#.#.#.#.#.#.#.#.#.#. .W g - 8 w w w w w : ",
": w w w w w < t P } #.#.#.#.#.#.#.#.#.#.#.#.#.#.#.#.#.#.#.#.#.#.} P e < w w w w w : ",
": w w w t 8 - C } #.#.#.#.#.#.#.#.#.#.#.#.#.#.#.#.#.#.#.#.#.#.#.#._ C - w w w w w : ",
": w 8 t 8 8 4 P #.#.#.#.#.#.#.#.#.#.#.#.#.#.#.#.#.#.#.#.#.#.#.#.#.#.P 4 4 w w w w : ",
": w w w w < t W #.#.#.#.#.#.#.#.#.#.#.#.#.#.#.#.#.#.#.#.#.#.#.#.#.#.W u < w w w w : ",
": w w w w < g ~ #.#.#.#.#.#.#.#.#.#.#.#.#.#.#.#.#.#.#.#.#.#.#.#.#.#.W g < w w w w : ",
": w w w w < g ~ #.#.#.#.#.#.#.#.#.#.#.#.#.#.#.#.#.#.#.#.#.#.#.#.#.#.~ j < w w w w : ",
": w w w w < j ~ #.#.#.#.#.#.#.#.#.#.#.#.#.#.#.#.#.#.#.#.#.#.#.#.#.#.~ j > w w w w : ",
": w w 8 8 - g W #.#.#.#.#.#.#.#.#.#.#.#.#.#.#.#.#.#.#.#.#.#.#.#.#.#.W i - 4 w w w : ",
": w w ; -   s W #.#.#.#.#.#.#.#.#.#.#.#.#.#.#.#.#.#.#.#.#.#.#.#.#.#.W u   > > w w : ",
": w w   C u g W #.#.#.#.#.#.#.#.#.#.#.#.#.#.#.#.#.#.#.#.#.#.#.#.#.#.Q p i C   w w : ",
": w w   P A m Q #.#.#.#.#.#.#.#.#.#.#.#.#.#.#.#.#.#.#.#.#.#.#.#.#.#.W c A P   w w : ",
": w t . P ~ P ~ #.#.#.#.#.#.#.#.#.#.#.#.#.#.#.#.#.#.#.#.#.#.#.#.#.#.W H ~ P   w w : ",
": w w . H } _ #.#.#.#.#.#.#.#.#.#.#.#.#.#.#.#.#.#.#.#.#.#.#.#.#.#.#._ ~ } H   w w : ",
": w 7 . A } #.#.#.#.#.#.#.#.#.#.#.#.#.#.#.#.#.#.#.#.#.#.#.#.#.#.#.#. .#.} C   w w : ",
": w e . m } #.#.#.#.#.#.#.#.#.#.#.#.#.#.#.#.#.#.#.#.#.#.#.#.#.#.#.#.#.#.} m . w w : ",
": w w > j ~ #.#.#.#.#.#.#.#.#.#.#.#.#.#.#.#.#.#.#.#.#.#.#.#.#.#.#.#.#.#.~ j - w w : ",
": w w < t ~ #.#.#.#.#.#.#.#.#.#.#.#.#.#.#.#.#.#.#.#.#.#.#.#.#.#.#.#.#.#.~ 8 4 w w : ",
": w w w < P #.#.#.#.#.#.#.#.#.#.#.#.#.#.#.#.#.#.#.#.#.#.#.#.#.#.#.#.#.#.P % 8 w w : ",
": w w w . m ~ #.#.#.#.#.#.#.#.#.#.#.#.#.#.#.#.#.#.#.#.#.#.#.#.#.#.#.#._ m - w w w : ",
": w w w < w W #.#.#.#.#.#.#.#.#.#.#.#.#.#.#.#.#.#.#.#.#.#.#.#.#.#.#.#.U 7 4 w w w : ",
": w w w w . A } #.#.#.#.#.#.#.#.#.#.#.#.#.#.#.#.#.#.#.#.#.#.#.#.#.#.} A - 7 w w w : ",
": w w w 7 - c ~ #.#.#.#.#.#.#.#.#.#.#.#.#.#.#.#.#.#.#.#.#.#.#.#.#.#.~ c - w w w w : ",
": w w w e < e P ~ _  .#.#.#.#.#.#.#.#.#.#.#.#.#.#.#.#.#.#.#.#. .} ~ H 8 < w w w w : ",
": w w w 7 7 - w j m W #.#.#.#.#.#.#.#.#.#.#.#.#.#.#.#.#.#.#.#.Q C j e - 8 w w w w : ",
": w w w t w w < % < A #.#.#.#.#.#.#.#.#.#.#.#.#.#.#.#.#.#.#.#.A % - 4 8 w w w w w : ",
": w w w w w w w 7 < C } #.#.#.#.#.#.#.#.#.#.#.#.#.#.#.#.#.#. .C < w w w w w w w w : ",
": : : : : : : : : : : : : : : : : : : : : : : : : : : : : : : : : : : : : : : : : : "
};
