/* XPM */
static char *biped_48_98_OnK0[] = {
/* columns rows colors chars-per-pixel */
"11 13 7 1",
"  c #87FF44",
". c #88FF44",
"X c #89FF44",
"o c #8AFF44",
"O c #8BFF44",
"+ c #8FFF44",
"@ c gray75",
/* pixels */
"@@@@@@@@@@@",
"@ +++++++.@",
"@.+++++++.@",
"@.+++++++.@",
"@.+++++++.@",
"@.+++++++.@",
"@.+++++++.@",
"@.+++++++.@",
"@.++++++++@",
"@.+++++++.@",
"@.+++++++.@",
"@++++++++.@",
"@@@@@@@@@@@"
};
