/* XPM */
static char *biped_47_8_OnK0[] = {
/* columns rows colors chars-per-pixel */
"23 23 47 1",
"  c #7EA544",
". c #7EA644",
"X c #7CB044",
"o c #7CB144",
"O c #79C144",
"+ c #79C244",
"@ c #7AC044",
"# c #7AC144",
"$ c #75D744",
"% c #76D644",
"& c #76D744",
"* c #75D844",
"= c #75DA44",
"- c #75DB44",
"; c #73E344",
": c #74E044",
"> c #74E144",
", c #74E244",
"< c #74E344",
"1 c #8F4444",
"2 c #8F4544",
"3 c #8E4A44",
"4 c #8F4A44",
"5 c #8E4C44",
"6 c #8E4D44",
"7 c #8D5044",
"8 c #8D5144",
"9 c #8C5844",
"0 c #8C5944",
"q c #886C44",
"w c #886D44",
"e c #886E44",
"r c #877444",
"t c #877544",
"y c #867744",
"u c #877744",
"i c #867A44",
"p c #867B44",
"a c #857C44",
"s c #857D44",
"d c #867C44",
"f c #838A44",
"g c #838B44",
"h c #838C44",
"j c #819644",
"k c #819744",
"l c gray75",
/* pixels */
"lllllllllllllllllllllll",
"l;;;;,%O.hstih.O%;;;;;l",
"l;;;-Ojw0863680w o-;;;l",
"l;,*os03222111130so-;;l",
"l;*oi6211111111126io*;l",
"l,Os821111111111116sO;l",
"l%j02111111111111120j*l",
"lOw32111111111111123wOl",
"l.9111111111111111119.l",
"lh8111111111111111116fl",
"li6111111111111111116sl",
"lt6111111111111111116tl",
"li6111111111111111116il",
"lg8111111111111111116fl",
"l.0111111111111111220.l",
"lOq41111111111111113wOl",
"l%j01221111111111129j*l",
"l-Oi621111111111118iO-l",
"l<-ot8211111111116io*<l",
"l<;*oi93111111140so%<<l",
"l;;,*Ojw9663680w o-;<<l",
"l;;,<,%O.gitig.O%;;<<<l",
"lllllllllllllllllllllll"
};
