/* XPM */
static char *biped_214_9_OnK0[] = {
/* columns rows colors chars-per-pixel */
"21 22 40 1",
"  c #7DA944",
". c #7EA844",
"X c #7DAD44",
"o c #7BB644",
"O c #7BB744",
"+ c #7CB244",
"@ c #7BB844",
"# c #7ABF44",
"$ c #77CD44",
"% c #77CE44",
"& c #79C544",
"* c #78C844",
"= c #78C944",
"- c #76D244",
"; c #76D344",
": c #76D444",
"> c #76D644",
", c #75D944",
"< c #75DB44",
"1 c #75DC44",
"2 c #75DD44",
"3 c #74DE44",
"4 c #73E344",
"5 c #74E044",
"6 c #8F4444",
"7 c #8F4644",
"8 c #8D5244",
"9 c #8D5344",
"0 c #8C5744",
"q c #8B5D44",
"w c #8C5A44",
"e c #8A6044",
"r c #8A6344",
"t c #886D44",
"y c #877144",
"u c #829044",
"i c #829144",
"p c #809C44",
"a c #809D44",
"s c gray75",
/* pixels */
"sssssssssssssssssssss",
"s444444443XX>4444444s",
"s44444444:ww=4444444s",
"s44444444:77&4444444s",
"s44444444:66&4444444s",
"s44444444:66&4444444s",
"s44444444:66&4444444s",
"s44444444:67&4444444s",
"s54444444:66&4445444s",
"s3:----:-&66o---;;-:s",
"s yrrrrrrq76qrrrrrrys",
"spw77777777677777779s",
"s$@++++++.66.+++++++s",
"s533333>>$66@>3333>3s",
"s45544444:66&4444444s",
"s44444444:66&4444444s",
"s44444444:76&5444444s",
"s44444444:66&4444444s",
"s44444444:67&4444444s",
"s44444444:99=4444444s",
"s444444443uu:4444444s",
"sssssssssssssssssssss"
};
