/* XPM */
static char *biped_29_46_OffK1[] = {
/* columns rows colors chars-per-pixel */
"11 16 2 1",
"  c gray75",
". c #E38484",
/* pixels */
"           ",
" ......... ",
" ......... ",
" ......... ",
" ......... ",
" ......... ",
" ......... ",
" ......... ",
" ......... ",
" ......... ",
" ......... ",
" ......... ",
" ......... ",
" ......... ",
" ......... ",
"           "
};
