/* XPM */
static char *biped_123_225_OffK1[] = {
/* columns rows colors chars-per-pixel */
"15 13 50 1",
"  c #D27D7D",
". c #D37D7D",
"X c #D47E7E",
"o c #D57E7E",
"O c #D77F7F",
"+ c #D87F7F",
"@ c gray75",
"# c #D98080",
"$ c #DA8080",
"% c #DB8080",
"& c #DB8181",
"* c #DC8181",
"= c #DD8181",
"- c #DE8282",
"; c #DF8282",
": c #E18383",
"> c #E28383",
", c #E38484",
"< c #E48484",
"1 c #E88686",
"2 c #E98686",
"3 c #EA8686",
"4 c #ED8888",
"5 c #EE8888",
"6 c #F68B8B",
"7 c #F78C8C",
"8 c #F98C8D",
"9 c #FF9393",
"0 c #FF9494",
"q c #FF9595",
"w c #FF9898",
"e c #FF9A9A",
"r c #FF9B9A",
"t c #FF9B9B",
"y c #FF9C9C",
"u c #FF9C9D",
"i c #FF9E9E",
"p c #FFA0A0",
"a c #FFA1A2",
"s c #FFA2A2",
"d c #FFA4A4",
"f c #FFA6A6",
"g c #FFA7A7",
"h c #FFA7A8",
"j c #FFA8A7",
"k c #FFA8A8",
"l c #FFA9A9",
"z c #FFA9AA",
"x c #FFAAA9",
"c c #FFAAAA",
/* pixels */
"@@@@@@@@@@@@@@@",
"@,,>;XX<qeiifi@",
"@,>;;4quffcccc@",
"@,%;6efccccccc@",
"@>+6uccccccccc@",
"@;<ecccccccccc@",
"@%<ycccccccccc@",
"@#3ucccccccccc@",
"@#3ucccccccccc@",
"@#<efjjggggggf@",
"@;>8qqqqqqqqqq@",
"@>#X         X@",
"@@@@@@@@@@@@@@@"
};
