/* XPM */
static char *biped_139_219_OffK0[] = {
/* columns rows colors chars-per-pixel */
"19 19 122 2",
"   c #8A8B8A",
".  c gray55",
"X  c #8C8C8D",
"o  c #8C8D8C",
"O  c #8C8D8D",
"+  c #8D8C8C",
"@  c #8D8C8D",
"#  c #8D8D8D",
"$  c #939393",
"%  c gray58",
"&  c #979797",
"*  c #989898",
"=  c #9A9A9A",
"-  c #9B9B9B",
";  c #9D9D9D",
":  c gray62",
">  c #A4A4A5",
",  c #A6A6A7",
"<  c #A6A7A6",
"1  c #A8A7A9",
"2  c gray67",
"3  c #ADACAC",
"4  c #B1B1B0",
"5  c #B1B2B1",
"6  c #B4B4B4",
"7  c gray74",
"8  c gray75",
"9  c #C7C8C7",
"0  c #CDCECD",
"q  c #D1D0D1",
"w  c #D4D4D5",
"e  c #D4D5D5",
"r  c #D5D6D6",
"t  c #D5D6D7",
"y  c #D6D5D6",
"u  c #D6D6D5",
"i  c gray84",
"p  c #D6D6D7",
"a  c #D6D7D6",
"s  c #D7D6D6",
"d  c #D7D8D8",
"f  c #D9D9DA",
"g  c #DDDEDD",
"h  c gray87",
"j  c #E9E9E9",
"k  c #E9EAE8",
"l  c #EAEAE9",
"z  c #ECEBEA",
"x  c #ECECEC",
"c  c #EFEEEE",
"v  c #F0EFEE",
"b  c #F1EFF0",
"n  c #F3F3F3",
"m  c #F4F4F4",
"M  c #F5F6F6",
"N  c #F6F6F6",
"B  c #F6F6F7",
"V  c #F8F6F6",
"C  c #F9F8F9",
"Z  c #F9F9F8",
"A  c #F9F9F9",
"S  c #F8F9FA",
"D  c #F9F9FA",
"F  c #F9FAF8",
"G  c #F9FAF9",
"H  c #F8FAFA",
"J  c #FAF8F9",
"K  c #FBF9F9",
"L  c #FAFAF9",
"P  c #FAFBF9",
"I  c #FBFBFA",
"U  c #FCFCFB",
"Y  c #FCFDFB",
"T  c #FCFDFD",
"R  c #FDFCFC",
"E  c #FDFCFD",
"W  c #FDFDFC",
"Q  c #FDFDFD",
"!  c #FCFDFE",
"~  c #FDFCFE",
"^  c #FDFCFF",
"/  c #FDFDFE",
"(  c #FDFDFF",
")  c #FCFFFD",
"_  c #FDFEFC",
"`  c #FDFEFD",
"'  c #FDFFFD",
"]  c #FCFEFE",
"[  c #FCFEFF",
"{  c #FCFFFE",
"}  c #FCFFFF",
"|  c #FDFEFE",
" . c #FDFEFF",
".. c #FDFFFE",
"X. c #FDFFFF",
"o. c #FEFCFD",
"O. c #FEFDFD",
"+. c #FFFCFC",
"@. c #FFFCFD",
"#. c #FFFDFC",
"$. c #FFFDFD",
"%. c #FEFCFE",
"&. c #FEFCFF",
"*. c #FEFDFE",
"=. c #FEFDFF",
"-. c #FFFDFE",
";. c #FFFDFF",
":. c #FEFEFC",
">. c #FEFEFD",
",. c #FEFFFD",
"<. c #FFFEFC",
"1. c #FFFEFD",
"2. c #FFFFFC",
"3. c #FFFFFD",
"4. c #FEFEFE",
"5. c #FEFEFF",
"6. c #FEFFFE",
"7. c #FEFFFF",
"8. c #FFFEFE",
"9. c #FFFEFF",
"0. c #FFFFFE",
"q. c gray100",
/* pixels */
"8 8 8 8 8 8 8 8 8 8 8 8 8 8 8 8 8 8 8 ",
"8 : : : % , g :.^ :.:.:.:.:.:.:.j 3 8 ",
"8 : : : % > f :.:.:.^ ^ ^ ^ :.:.z 5 8 ",
"8 : : : % , h :.:.:.^ ^ ^ :.:.:.c 8 8 ",
"8 : : & & 6 x :.:.^ :.:.^ :.:.^ m 0 8 ",
"8 : & & 2 e D :.:.:.^ :.:.:.:.^ S g 8 ",
"8 & & 5 d M :.:.:.:.^ :.^ :.:.D D j 8 ",
"8 1 9 z I :.:.:.:.:.:.^ :.:.:.:.:.b 8 ",
"8 M ^ :.^ :.:.:.:.:.^ :.^ :.:.:.:.b 8 ",
"8 ^ :.:.^ ^ ^ :.:.:.:.^ :.:.:.:.:.n 8 ",
"8 :.:.:.:.:.^ ^ :.^ :.:.^ :.:.:.:.V 8 ",
"8 :.^ ^ ^ ^ :.^ :.:.^ :.^ ^ ^ ^ :.S 8 ",
"8 :.:.:.:.:.:.^ :.:.^ :.^ :.:.:.:.^ 8 ",
"8 ^ :.:.:.:.^ :.:.:.^ ^ ^ I :.:.:.U 8 ",
"8 ^ :.^ :.:.:.:.:.:.:.:.:.:.^ :.:.:.8 ",
"8 S I H S S D D D H S S S S S D S M 8 ",
"8 r r r r t t t e e t s s s s e e q 8 ",
"8 o o o o o O O O O O O O O + + +   8 ",
"8 8 8 8 8 8 8 8 8 8 8 8 8 8 8 8 8 8 8 "
};
