/* XPM */
static char *biped_138_141_OnK0[] = {
/* columns rows colors chars-per-pixel */
"20 41 35 1",
"  c #6DCF44",
". c #6ED044",
"X c #6ED144",
"o c #6ED244",
"O c #6FD444",
"+ c #6FD544",
"@ c #70D744",
"# c #70D844",
"$ c #71DB44",
"% c #73E144",
"& c #75EA44",
"* c #77EF44",
"= c #78F244",
"- c #79F644",
"; c #7AFC44",
": c #7CFF44",
"> c #7DFF44",
", c #7EFF44",
"< c #7FFF44",
"1 c #80FF44",
"2 c #81FF44",
"3 c #83FF44",
"4 c #84FF44",
"5 c #85FF44",
"6 c #86FF44",
"7 c #87FF44",
"8 c #88FF44",
"9 c #89FF44",
"0 c #8AFF44",
"q c #8BFF44",
"w c #8CFF44",
"e c #8DFF44",
"r c #8EFF44",
"t c #8FFF44",
"y c gray75",
/* pixels */
"yyyyyyyyyyyyyyyyyyyy",
"y7ttttttttttttttttty",
"y7rtttttttttttttttty",
"y7rrttttttttttttttty",
"y3rtttttttttttttttty",
"y7rrttttttttttttttty",
"y3rrttttttttttttttty",
"y3rtttttttttttttttty",
"y,rrttttttttttttttty",
"y,rtttttttttttttttty",
"y3rrttttttttttttttty",
"y,rrttttttttttttttty",
"y,rrrrttttttttttttty",
"y3rrttttttttttttttty",
"y,rrttttttttttttttty",
"y,rrttttttttttttttty",
"y,rtttttttttttttttty",
"y,rrttttttttttttttty",
"y,0rttttttttttttttty",
"y:rtttttttttttttttty",
"y:0rttttttttttttttty",
"y:0rttttttttttttttty",
"y=0tttttttttttttttty",
"y&0tttttttttttttttty",
"y$0rrtttttttttttttty",
"y$7rrtttttttttttttty",
"y@0rttttttttttttttty",
"y@7rttttttttttttttty",
"yX7rttttttttttttttty",
"yX3rttttttttttttttty",
"yX3rttttttttttttttty",
"yX7rttttttttttttttry",
"yX7rttttttttttttttty",
"yX3rttttttttttttttty",
"yX3rttttttttttttttry",
"y 30ttttttttttttttry",
"y ,0ttttttttttttttry",
"yX:0ttttttttttttttry",
"y+-0ttttttttttttttry",
"y+*7ttttttttttttttry",
"yyyyyyyyyyyyyyyyyyyy"
};
