/* XPM */
static char *biped_288_10_OffK0[] = {
/* columns rows colors chars-per-pixel */
"24 18 2 1",
"  c gray62",
". c gray75",
/* pixels */
"........................",
".                      .",
".                      .",
".                      .",
".                      .",
".                      .",
".                      .",
".                      .",
".                      .",
".                      .",
".                      .",
".                      .",
".                      .",
".                      .",
".                      .",
".                      .",
".                      .",
"........................"
};
