/* XPM */
static char *biped_141_102_OffK1[] = {
/* columns rows colors chars-per-pixel */
"38 18 41 1",
"  c #CF7C7C",
". c #D07C7C",
"X c #D07D7C",
"o c #D17D7D",
"O c #D27D7D",
"+ c #D47E7E",
"@ c #D57E7E",
"# c #D57E7F",
"$ c #D57F7F",
"% c #D67F7E",
"& c #D67F7F",
"* c #D77F7F",
"= c gray75",
"- c #DA8080",
"; c #DB8180",
": c #DF8282",
"> c #E18383",
", c #E38484",
"< c #EF8989",
"1 c #F08989",
"2 c #FF9596",
"3 c #FF9695",
"4 c #FF9A9A",
"5 c #FF9B9B",
"6 c #FF9C9C",
"7 c #FF9D9D",
"8 c #FF9E9E",
"9 c #FF9F9E",
"0 c #FFA0A0",
"q c #FFA1A0",
"w c #FFA2A2",
"e c #FFA3A3",
"r c #FFA7A7",
"t c #FFA8A7",
"y c #FFA8A8",
"u c #FFA8A9",
"i c #FFA9A8",
"p c #FFA9A9",
"a c #FFA9AA",
"s c #FFAAA9",
"d c #FFAAAA",
/* pixels */
"======================================",
"=>;0dddddddddddddddddddddddddddddd0;,=",
"=,@0dddddddddddddddddddddddddddddd0@,=",
"=,o9dddddddddddddddddddddddddddddd9o,=",
"=,.9dddddddddddddddddddddddddddddd4o>=",
"=> 4tddddddddddddddddddddddddddddr4 ,=",
"=, 4dddddddddddddddddddddddddddddr4.,=",
"=, 4rddddddddddddddddddddddddddddd4.,=",
"=,.4rddddddddddddddddddddddddddddd4 >=",
"=, 4dddddddddddddddddddddddddddddt4 >=",
"=, 4dddddddddddddddddddddddddddddr4 ,=",
"=:@9dddddddddddddddddddddddddddddd9o>=",
"=*10dddddddddddddddddddddddddddddd0<-=",
"=.2rddddddddddddddddddddddddddddddd2 =",
"= 9uddddddddddddddddddddddddddddddd9 =",
"=.0dddddddddddddddddddddddddddddddd0 =",
"=@0dddddddddddddddddddddddddddddddd0-=",
"======================================"
};
