/* XPM */
static char *biped_49_114_OffK1[] = {
/* columns rows colors chars-per-pixel */
"10 16 8 1",
"  c gray75",
". c #FFA3A4",
"X c #FFA4A4",
"o c #FFA4A5",
"O c #FFA5A5",
"+ c #FFA5A6",
"@ c #FFA6A6",
"# c #FFAAAA",
/* pixels */
"          ",
" #######. ",
" #######X ",
" #######X ",
" #######X ",
" #######X ",
" #######X ",
" #######@ ",
" #######X ",
" #######@ ",
" #######X ",
" #######X ",
" #######@ ",
" #######X ",
" ######## ",
"          "
};
