/* XPM */
static char *asBiped[] = {
/* columns rows colors chars-per-pixel */
"32 32 155 2",
"   c gray26",
".  c #484848",
"X  c gray31",
"o  c #505050",
"O  c gray32",
"+  c #565656",
"@  c gray34",
"#  c #585858",
"$  c gray35",
"%  c #5A5A5A",
"&  c gray36",
"*  c #5D5D5D",
"=  c gray37",
"-  c #5F5F5F",
";  c gray38",
":  c #626262",
">  c gray39",
",  c #646464",
"<  c #656565",
"1  c gray40",
"2  c #676767",
"3  c #686868",
"4  c DimGray",
"5  c #6A6A6A",
"6  c gray42",
"7  c #6C6C6C",
"8  c #6D6D6D",
"9  c gray43",
"0  c #6F6F6F",
"q  c gray44",
"w  c #717171",
"e  c gray45",
"r  c #747474",
"t  c gray46",
"y  c #777777",
"u  c gray47",
"i  c gray48",
"p  c #7B7B7B",
"a  c gray49",
"s  c #7E7E7E",
"d  c gray50",
"f  c #808080",
"g  c #818181",
"h  c gray51",
"j  c #838383",
"k  c #848484",
"l  c gray52",
"z  c #858685",
"x  c gray53",
"c  c #888888",
"v  c #898989",
"b  c gray54",
"n  c #8B8B8B",
"m  c gray55",
"M  c #8D8D8D",
"N  c #8E8E8E",
"B  c gray56",
"V  c #909090",
"C  c gray57",
"Z  c #919292",
"A  c #929292",
"S  c #939393",
"D  c gray58",
"F  c #959595",
"G  c gray59",
"H  c #979797",
"J  c #989898",
"K  c gray60",
"L  c #9A9A9A",
"P  c #9B9B9B",
"I  c #9C9B9C",
"U  c gray61",
"Y  c #9D9D9D",
"T  c gray62",
"R  c #9F9F9F",
"E  c #A0A0A0",
"W  c gray63",
"Q  c #A2A2A2",
"!  c #A5A5A5",
"~  c #A7A7A7",
"^  c gray66",
"/  c #A9A9A9",
"(  c #AAAAAA",
")  c #ACABAB",
"_  c #B1B1B1",
"`  c #B2B1B2",
"'  c #B2B2B2",
"]  c #B4B4B4",
"[  c #B6B6B6",
"{  c #B7B7B7",
"}  c #B7B8B7",
"|  c gray72",
" . c #B9B9B9",
".. c #BBBBBB",
"X. c gray74",
"o. c gray",
"O. c #C0C0C0",
"+. c #C1C1C1",
"@. c gray76",
"#. c gray77",
"$. c #C5C5C5",
"%. c gray78",
"&. c gray79",
"*. c #CACACA",
"=. c #CBCBCB",
"-. c #CDCDCD",
";. c #CECDCD",
":. c #CECECD",
">. c #CECECE",
",. c #D2D2D2",
"<. c LightGray",
"1. c gray83",
"2. c #D4D4D5",
"3. c #D5D5D5",
"4. c gray84",
"5. c #D6D7D6",
"6. c #D8D8D8",
"7. c #D9D8D8",
"8. c gray85",
"9. c #D9DAD9",
"0. c #DADADA",
"q. c gray86",
"w. c gainsboro",
"e. c gray87",
"r. c #E1E1E1",
"t. c #E2E2E1",
"y. c #E2E2E2",
"u. c gray89",
"i. c #E7E6E6",
"p. c #E7E7E7",
"a. c #E8E7E7",
"s. c gray91",
"d. c #EAEAEA",
"f. c gray92",
"g. c #EDECED",
"h. c gray93",
"j. c #EEEEEE",
"k. c #EEEEEF",
"l. c #EFEFEF",
"z. c gray94",
"x. c gray95",
"c. c #F3F3F3",
"v. c #F5F6F6",
"b. c gray97",
"n. c #F8F8F8",
"m. c #F8F8F9",
"M. c #F9F9F9",
"N. c #FBFAFB",
"B. c #FBFBFB",
"V. c gray99",
"C. c #FDFDFD",
"Z. c #FEFDFD",
"A. c #FEFEFE",
"S. c #FEFFFF",
"D. c gray100",
/* pixels */
"E E E E E E E E E E E E E Y ! <.3.! P Y R E E E E E E E E E E E ",
"E E E E E E E E E E E E E Y <.A.A.r.N D Y E E E E E E E E E E E ",
"E E E E E E E E E E E E R P k.A.A.b.i c P Y E E E E E E E E E E ",
"E E E E E E E E E E E E R D o.A.A.@.> a D R E E E E E E E E E E ",
"E E E E E E E E E E E E E D a p.c.o @ i D Y E E E E E E E E E E ",
"Y Y ! E Y Y E E E E E E E D x 6.k.- ; a D E E Y E E E Y E ^ P Y ",
"E  .p.A.@.] o.&.-.=.3.3.5.k.A.A.A.A.k.3.<.5.-.-.&.@.] o.A.k...P ",
"I ' <.#.&.6.6.6.e.s.c.A.A.A.A.A.A.A.A.A.A.c.k.e.5.6.q.-.@.3.' c ",
"D c q ; ; < 8 8 8 8 8 q a o.A.A.A.A.:.t 6 < < 3 3 8 8 8 3 > 8 8 ",
"D j q < < 3 3 8 3 3 < ; % q A.A.A.A.a   X % - < 3 3 6 6 3 < < 8 ",
"P N j a a f d d d a i t 8 8 b.A.A.A.; . - 8 t i a d d d f a a f ",
"Y P D D D D D D D S A N c d A.A.A.A.3 @ e x N A D D D D D D D H ",
"Y Y E R R E E E E R R Y P n b.A.A.A.< ; j H Y R R E E E E R R R ",
"E E E E E E E E E E E E Y N s.A.A.b.@ 3 c P E E E E E E E E E E ",
"E E E E E E E E E E E E Y N e.A.A.z.o 8 n Y E E E E E E E E E E ",
"E E E E E E E E E E E E E A k.A.A.b.; q N Y E E E E E E E E E E ",
"E E E E E E E E E E E E E D A.A.A.A.i q N Y E E E E E E E E E E ",
"E E E E E E E E E E E E Y E A.A.A.A.P 8 c Y E E E E E E E E E E ",
"E E E E E E E E E E E E Y ] A.A.A.A.] 2 c P E E E E E E E E E E ",
"E E E E E E E E E E E E P o.A.s.r.A.#.; j P E E E E E E E E E E ",
"E E E E E E E E E E E E P  .A.6.>.A.o.- a D E E E E E E E E E E ",
"E E E E E E E E E E E E D  .A. .E A.o.% a D E E E E E E E E E E ",
"E E E E E E E E E E E E D ( A.E c A.^ % a D E E E E E E E E E E ",
"E E E E E E E E E E E E P ^ A.Y x A.( - a D E E E E E E E E E E ",
"E E E E E E E E E E E E P D A.Y f A.P ; f D E E E E E E E E E E ",
"E E E E E E E E E E E E P D A.c 8 A.A ; f D E E E E E E E E E E ",
"E E E E E E E E E E E E P N A.D a A.i < x P E E E E E E E E E E ",
"E E E E E E E E E E E E P N A.A i A.q 3 x H E E E E E E E E E E ",
"E E E E E E E E E E E E Y V A.A i A.i 8 x P E E E E E E E E E E ",
"E E E E E E E E E E E E Y N z.B i b.< q c Y E E E E E E E E E E ",
"E E E E E E E E E E E Y Y D b.D a A.f f c Y E E E E E E E E E E ",
"E E E E E E E E E E E E p.s.r.P x r.a.r.P D Y Y E E E E E E E E "
};
