/* XPM */
static char *asHelp[] = {
/* columns rows colors chars-per-pixel */
"32 32 113 2",
"   c #505050",
".  c gray32",
"X  c gray33",
"o  c #565656",
"O  c gray35",
"+  c #5A5A5A",
"@  c #5B5B5B",
"#  c gray36",
"$  c #5D5D5D",
"%  c #5F5F5F",
"&  c #606060",
"*  c gray38",
"=  c gray39",
"-  c #646464",
";  c #656565",
":  c gray40",
">  c #676767",
",  c #686868",
"<  c DimGray",
"1  c #6A6A6A",
"2  c gray42",
"3  c #6C6C6C",
"4  c #6D6D6D",
"5  c gray43",
"6  c #6F6F6F",
"7  c gray44",
"8  c #717171",
"9  c #727272",
"0  c gray45",
"q  c #747474",
"w  c #767676",
"e  c gray47",
"r  c gray48",
"t  c #7B7B7B",
"y  c #7C7C7C",
"u  c gray49",
"i  c #7E7E7E",
"p  c gray50",
"a  c #808080",
"s  c #818181",
"d  c gray51",
"f  c #838383",
"g  c #848484",
"h  c gray52",
"j  c #868686",
"k  c #888888",
"l  c #898989",
"z  c gray54",
"x  c #8B8B8B",
"c  c gray55",
"v  c #8D8D8D",
"b  c #8E8E8E",
"n  c gray56",
"m  c #909090",
"M  c #929292",
"N  c #939393",
"B  c gray58",
"V  c #959595",
"C  c gray59",
"Z  c #979797",
"A  c #989898",
"S  c gray60",
"D  c #9A9A9A",
"F  c #9B9B9B",
"G  c gray61",
"H  c #9D9D9D",
"J  c gray62",
"K  c #9F9F9F",
"L  c #A0A0A0",
"P  c gray64",
"I  c #A4A4A4",
"U  c gray65",
"Y  c #AAAAAA",
"T  c #ACACAC",
"R  c gray69",
"E  c #B1B1B1",
"W  c gray71",
"Q  c #B6B6B6",
"!  c #B9B9B9",
"~  c gray74",
"^  c gray75",
"/  c #C0C0C0",
"(  c #C1C1C1",
")  c gray76",
"_  c #C3C3C3",
"`  c #C5C5C5",
"'  c gray78",
"]  c #C8C8C8",
"[  c gray79",
"{  c #CACACA",
"}  c #CBCBCB",
"|  c #CDCDCD",
" . c #CECECE",
".. c gray82",
"X. c LightGray",
"o. c gray83",
"O. c #D5D5D5",
"+. c gray84",
"@. c #D8D8D8",
"#. c #DADADA",
"$. c gray86",
"%. c #E1E1E1",
"&. c gray89",
"*. c #E4E4E4",
"=. c #EAEAEA",
"-. c #EEEEEE",
";. c #EFEFEF",
":. c #F4F4F4",
">. c gray96",
",. c #F6F6F6",
"<. c gray97",
"1. c #F8F8F8",
"2. c gray100",
/* pixels */
"L L L L L L L L L L L L L L L L L L L L L L L L L L L L L L L L ",
"L L L L L L L L L L L L L L L L L L L L L L L L L L L L L L L L ",
"L L L L L L L L L L L L L L L L L L L L L L L L L L L L L L L L ",
"L L L L L L L L L L L L L L L L L L L L L L L L L L L L L L L L ",
"L L L L L L L L L L L L L L L L L L L L L L L L L L L L L L L L ",
"L L L L L L L L L L L L L L L L L L L L L L L L L L L L L L L L ",
"L L L L L L L L L L L L L L L L L L L L L L L L L L L L L L L L ",
"L L L L L L L L L L L L L L L L L L L L L L L L L L L L L L L L ",
"L L L L L L L L L L L L L L L L L L L L L L L L L L L L L L L L ",
"L L L L L K L L L L L L L L L L L L L L L L L L L L L L L L L L ",
"L L L L K K L K L L L L L L L L L L L L L L K K L L L L L L L L ",
"K 2.*.D K K L K 2.%.D K K L L L L L L K 2.*.D K K L L L L L L L ",
"K 2.*.b V K L K 2.%.b V K K L L L L L K 2.%.b V K L L L L L L L ",
"V 2.+.t l D L V 2.+.t l D K L L L L K V 2.$.t l D L L L L L L L ",
"V 2.+.5 f D L V 2.+.5 f V L L L L L L V 2.+.5 f V L L L L L L L ",
"M 2.+.< p V L M 2.+.< f V ..1.2.%.U D M 2.+.< p 2.' ' 1.2.%.K K ",
"M 2.+.; f V L V 2.+.< p ..,.^ Q ;.;.M l 2.+.; p 2.,.;.` } 2.;.M ",
"V 2.2.2.2.2.2.2.2.+.; V 2.Q t 5 V 2.Y f 2.+.< q 2.2.f < < E 2.E ",
"M 2.,.^ ^ ' ' ' 2...= Q 2.T U U L 2.` q 2.+.< q 2.+.% = < 9 2.} ",
"M 2.... o = < = 2...% ` 2.2.2.2.2.2.^ < 2.+.< 9 2...O ; t q 2.+.",
"V 2.+.. O ; 5 ; 2...% ! 2.; O = ; % % = 2.+.; 9 2...= q l M 2.^ ",
"M 2.+.O < t j q 2...% b 2.U O ; < ; < 5 2...< 9 2.2.t p M ^ 2.D ",
"M 2.+.= t b V b 2.+.= ; +.2.' E ^ +.p p 2.+.; 9 2.2.=.^ ..2.+.; ",
"V 2.+.; f V L M 2.+.= 5 t Q ,.2.,.+.l f 2.+.< 9 2.+.E ,.,.' q < ",
"V p < 5 j D K V p < 5 q p 9 ; < 5 q f j t 5 5 q 2.... O ; < ; 9 ",
"V j q t l D L V l q t j l f 9 5 < 9 p j f q t p 2.+.. % < 5 9 f ",
"K M b b M K L K V b b M V M j j f j l M b b b l 2.+.O < t f l M ",
"K K D D K K K K D D D K K K D V V V D D D D D b 2.+.; t b V D K ",
"L L L L K L L L L L L L L L L L K L L L L L L V p < 5 f V L L L ",
"L L L L K K L L L L L L L L L L L L L L L L L V l t t l D L L L ",
"L L L L L L L L L L L L L L L L L L L L L L K D M b b V K L L L ",
"L L L L L L L L L L L L L L L L L L L L L L L K K D D D K L L L "
};
