/* XPM */
static char *asUI[] = {
/* columns rows colors chars-per-pixel */
"32 32 76 1",
"  c gray38",
". c gray39",
"X c #646464",
"o c #656565",
"O c gray40",
"+ c #676767",
"@ c #686868",
"# c DimGray",
"$ c #6A6A6A",
"% c gray42",
"& c #6D6D6D",
"* c gray43",
"= c gray44",
"- c #727272",
"; c gray45",
": c #747474",
"> c gray46",
", c #767676",
"< c #777777",
"1 c gray47",
"2 c #797979",
"3 c gray48",
"4 c #7C7C7C",
"5 c #7E7E7E",
"6 c gray50",
"7 c #818181",
"8 c #838383",
"9 c #848484",
"0 c #868686",
"q c gray53",
"w c #888888",
"e c #898989",
"r c gray54",
"t c #8B8B8B",
"y c gray55",
"u c gray56",
"i c #909090",
"p c gray57",
"a c #929292",
"s c #939393",
"d c gray58",
"f c #959595",
"g c gray59",
"h c #979797",
"j c #989898",
"k c gray60",
"l c #9A9A9A",
"z c #9B9B9B",
"x c gray61",
"c c #9D9D9D",
"v c gray62",
"b c #9F9F9F",
"n c #A0A0A0",
"m c #AAAAAA",
"M c #ACACAC",
"N c #AFAFAF",
"B c #C0C0C0",
"V c #C5C5C5",
"C c #CDCDCD",
"Z c gray81",
"A c gray83",
"S c #D5D5D5",
"D c #D8D8D8",
"F c #DFDFDF",
"G c #E1E1E1",
"H c #E2E2E2",
"J c gray90",
"K c #EAEAEA",
"L c gray92",
"P c gray93",
"I c #EEEEEE",
"U c #EFEFEF",
"Y c gray94",
"T c #F1F1F1",
"R c gray95",
"E c gray100",
/* pixels */
"nnnnnnnnnnnnnnnnnnnnnnnnnnnnnnnn",
"nnnnnnnnnnnnnnnnnnnnnnnnnnnnnnnn",
"nnnnnnnnnnnnnnnnnnnnnnnnnnnnnnnn",
"nnnnnnnnnnnnnnnnnnnnnnnnnnnnnnnn",
"nnnnnnnnnnnnnnnnnnnnnnnnnnnnnnnn",
"nnnnnnnnnnnnnnnnnnnnnnnnnnnnnnnn",
"nnnnnnnnnnnnnnnnnnnnnnnnnnnnnnnn",
"nnnnnnnnnnnnnnnnnnnnnnnnnnnnnnnn",
"nnnnnnnnnnnnnnnnnnnnnnnnnnnnnnnn",
"nnnnnnnnnnnnnbnnnnnnnnnnnnnnnnnn",
"nnnnnnnnnnnnbbnnnnnnnnnnnbbnnnnn",
"nnnnnnnnbREkbbnnbERkkERkbbbnnnnn",
"nnnnnnnnbREtsbnnbEPysEPthknnnnnn",
"nnnnnnnnhPE,0hnnhEP,4EP30knnnnnn",
"nnnnnnnnhPE@4hbnhEP@,EP@4knnnnnn",
"nnnnnnnnsPE 3sbnsEK *EK 3hnnnnnn",
"nnnnnnnnhPE 3snnsEK *EK.4hnnnnnn",
"nnnnnnnnsPE 3snbsEK *EK 3hnnnnnn",
"nnnnnnnnhPE 3sbbsEK.*EK.3sbnnnnn",
"nnnnnnnnhHE 3sbbsEF.*EK.4hnnnnnn",
"nnnnnnnnhAEt3sbbNEB.-EK 3snnnnnn",
"nnnnnnnnhmEA,sbbFEy.-EP.3hnnnnnn",
"nnnnnnnnh0SEFVCKEA *3EK.4hnnnnnn",
"nnnnnnnnkt-NKEEKm. ,4EK 3snnnnnn",
"nnnnnnnnbs6*..*@@.-6t4@@6hnnnnnn",
"nnnnnnnnbbs6-*@@*,6ss0,,tknnnnnn",
"nnnnnnnnnbkst6640tsbkhtysbbnnnnn",
"nnnnnnnnnnbbkhhhkkbbbkkkkbbnnnnn",
"nnnnnnnnnnnnnnnnnnnnnnnnnnnnnnnn",
"nnnnnnnnnnnnnnnnnnnnnnnnnnnnnnnn",
"nnnnnnnnnnnnnnnnnnnnnnnnnnnnnnnn",
"nnnnnnnnnnnnnnnnnnnnnnnnnnnnnnnn"
};
