/* XPM */
static char *biped_189_70_OnK1[] = {
/* columns rows colors chars-per-pixel */
"17 17 29 1",
"  c #FF6666",
". c #FF6766",
"X c #FF6866",
"o c #FF6966",
"O c #FF6E66",
"+ c #FF7866",
"@ c #FF7966",
"# c #FF7F66",
"$ c #FF8066",
"% c #FF8566",
"& c #FF8666",
"* c #FF8E66",
"= c #FF8F66",
"- c #FF9566",
"; c #FF9666",
": c #FF9766",
"> c #FFB566",
", c #FFB666",
"< c #FFB766",
"1 c #FFC766",
"2 c #FFC866",
"3 c #FFDF66",
"4 c #FFE066",
"5 c #FFF666",
"6 c #FFF766",
"7 c #FFFC66",
"8 c #FFFD66",
"9 c #FFFF66",
"0 c gray75",
/* pixels */
"00000000000000000",
"09994>:%$&:<49990",
"0951-@OoooO@-2590",
"092*O       O*190",
"03-O         O-40",
"0>@           @>0",
"0-O           O-0",
"0%o           o%0",
"0$o           o$0",
"0%o           o%0",
"0-O           O-0",
"0>@           @>0",
"03-O         O-40",
"091*O       O=190",
"0952-@OoooO@-1590",
"09994>-%$%->47990",
"00000000000000000"
};
