/* XPM */
static char *biped_195_168_OffK0[] = {
/* columns rows colors chars-per-pixel */
"21 22 42 1",
"  c #BF6868",
". c #BD6D6D",
"X c #B57A7A",
"o c #B97272",
"O c #BB7171",
"+ c #BA7373",
"@ c #EB1E1E",
"# c #ED1B1B",
"$ c #EF1818",
"% c #F60D0D",
"& c #F60E0E",
"* c #FE0101",
"= c red",
"- c #F31313",
"; c #F11515",
": c #E32C2C",
"> c #E62828",
", c #C95757",
"< c #C95858",
"1 c #D14C4C",
"2 c #C36363",
"3 c #C16464",
"4 c gray62",
"5 c #9F9E9E",
"6 c #AF8383",
"7 c #AE8484",
"8 c #A98D8D",
"9 c #A88F8F",
"0 c #A98F8F",
"q c #AC8888",
"w c #AC8989",
"e c #A39797",
"r c #A79191",
"t c #A59494",
"y c #A49797",
"u c #A19B9B",
"i c #A29999",
"p c #A39898",
"a c #A89191",
"s c #B18080",
"d c #B28080",
"f c gray75",
/* pixels */
"fffffffffffffffffffff",
"f44444444i  t4444444f",
"f44444445r;;74444444f",
"f444444450==s4444444f",
"f444444440==s4444444f",
"f444444450==s4444444f",
"f444444450==s4444444f",
"f444444450==s4444444f",
"f444444550==s4444444f",
"fi9088800s==o0808880f",
"f2:#@@>#@#==;>###>@>f",
"f,-==========*=====&f",
"fqo......2==,......Of",
"f5itptpttw==Xeeeptppf",
"f54455554r==s5445554f",
"f44444555r==s4444444f",
"f444444450==s4444444f",
"f44444445r==s4444444f",
"f44444445r==s4444444f",
"f44444445r&&64444444f",
"f44444444t1104444444f",
"fffffffffffffffffffff"
};
