/* XPM */
static char *biped_89_221_OnK1[] = {
/* columns rows colors chars-per-pixel */
"13 13 59 1",
"  c #FF9266",
". c #FF9666",
"X c #FF9766",
"o c #FF9866",
"O c #FF9A66",
"+ c #FF9B66",
"@ c #FF9E66",
"# c #FF9F66",
"$ c #FFA366",
"% c #FFA466",
"& c #FFA866",
"* c #FFAB66",
"= c #FFAC66",
"- c #FFAD66",
"; c #FFB166",
": c #FFB266",
"> c #FFB466",
", c #FFB566",
"< c #FFB966",
"1 c #FFBC66",
"2 c #FFBF66",
"3 c #FFC066",
"4 c #FFC166",
"5 c #FFC266",
"6 c #FFC366",
"7 c #FFC566",
"8 c #FFC666",
"9 c #FFC866",
"0 c #FFCA66",
"q c #FFCC66",
"w c #FFCD66",
"e c #FFCE66",
"r c #FFCF66",
"t c #FFD366",
"y c #FFD466",
"u c #FFD566",
"i c #FFD666",
"p c #FFD766",
"a c #FFDE66",
"s c #FFE366",
"d c #FFE666",
"f c #FFE866",
"g c #FFE966",
"h c #FFEA66",
"j c #FFED66",
"k c #FFEE66",
"l c #FFF066",
"z c #FFF266",
"x c #FFF466",
"c c #FFF566",
"v c #FFF666",
"b c #FFF766",
"n c #FFF866",
"m c #FFF966",
"M c #FFFA66",
"N c #FFFB66",
"B c #FFFC66",
"V c #FFFF66",
"C c gray75",
/* pixels */
"CCCCCCCCCCCCC",
"CVVma3>1tvVVC",
"CVk8+ .o+8kVC",
"CV8+o>83==eVC",
"Cf$o8vVVf33zC",
"Ceo>mVVVVdetC",
"C8o3VVVVVvt8C",
"Cto>vVVVVzteC",
"Ck*+eVVVmt8dC",
"CVt=$3tpe8pmC",
"CVmt:*><3tzVC",
"CVVVkp8tfVVVC",
"CCCCCCCCCCCCC"
};
