/* XPM */
static char *biped_250_43_OnK1[] = {
/* columns rows colors chars-per-pixel */
"21 21 15 1",
"  c #FFEE66",
". c #FFF166",
"X c #FFF266",
"o c #FFF366",
"O c #FFF466",
"+ c #FFF566",
"@ c #FFF666",
"# c #FFF866",
"$ c #FFFA66",
"% c #FFFB66",
"& c #FFFC66",
"* c #FFFD66",
"= c #FFFE66",
"- c #FFFF66",
"; c gray75",
/* pixels */
";;;;;;;;;;;;;;;;;;;;;",
";-o---------%%------;",
";%---------------@oo;",
";--------  oo@@-----;",
";-------------------;",
";-------------------;",
";------------------%;",
";-------------------;",
";-------------------;",
";-------------------;",
";-------------------;",
";-----------------%@;",
";-------------------;",
";-------------------;",
";-------------------;",
";-------------------;",
";----------------o @;",
";------------------%;",
";-%@oo@@%@@---------;",
";-----------@o@-----;",
";;;;;;;;;;;;;;;;;;;;;"
};
