/* XPM */
static char *biped_89_221_OffK0[] = {
/* columns rows colors chars-per-pixel */
"13 13 73 1",
"  c #BB6F6F",
". c #BF6868",
"X c #BF6969",
"o c #BC6D6D",
"O c #BD6D6D",
"+ c #BC6E6E",
"@ c #B67878",
"# c #B47D7D",
"$ c #B97171",
"% c #BA7171",
"& c #BB7070",
"* c #DF3232",
"= c #DD3535",
"- c #DE3434",
"; c #DF3434",
": c #DB3939",
"> c #D93D3D",
", c #D83E3E",
"< c #DC3838",
"1 c #E32C2C",
"2 c #E03030",
"3 c #E03131",
"4 c #CF4E4E",
"5 c #CF4F4F",
"6 c #C75A5A",
"7 c #C75B5B",
"8 c #C45F5F",
"9 c #C55F5F",
"0 c #C65D5D",
"q c #C75C5C",
"w c #CA5656",
"e c #CC5353",
"r c #C95959",
"t c #C85A5A",
"y c #D34747",
"u c #D64242",
"i c #D44545",
"p c #D44646",
"a c #D14B4B",
"s c #D04C4C",
"d c #C36262",
"f c #C06767",
"g c #C16666",
"h c #C26464",
"j c #C46060",
"k c #C46262",
"l c gray62",
"z c #9F9E9E",
"x c #9F9F9F",
"c c #AD8787",
"v c #AB8A8A",
"b c #A88E8E",
"n c #A98F8F",
"m c #AA8C8C",
"M c #AC8888",
"N c #AD8888",
"B c #A79191",
"V c #A69292",
"C c #A69393",
"Z c #A69493",
"A c #A59595",
"S c #A59696",
"D c #A39898",
"F c #A39999",
"G c #A29A9A",
"H c #A09D9D",
"J c #A19C9C",
"K c #A89090",
"L c #B18080",
"P c #B08383",
"I c #B18282",
"U c #B08484",
"Y c gray75",
/* pixels */
"YYYYYYYYYYYYY",
"YllB@64w&nzlY",
"Ylvd:11-:8vlY",
"YSd=*587iiXSY",
"YI>*dnzSI76vY",
"YX14nzllJIh&Y",
"Y8;6GzlllnOdY",
"YO=5nzlllnOhY",
"Yvi:hSllS&d#Y",
"YSOi>8&&hd&CY",
"YlnOau5e6+nzY",
"YxxGc&hOUSzlY",
"YYYYYYYYYYYYY"
};
