/* XPM */
static char *biped_37_115_OffK0[] = {
/* columns rows colors chars-per-pixel */
"10 15 52 1",
"  c gray75",
". c #E2E2E3",
"X c #E7E8E9",
"o c #EEEEEE",
"O c #EFEEEF",
"+ c #F4F3F3",
"@ c #F4F3F4",
"# c #F8F7F8",
"$ c #F8F8F9",
"% c #FBFAFA",
"& c #FCFCFD",
"* c #FDFCFD",
"= c #FDFDFC",
"- c #FDFDFD",
"; c #FCFDFF",
": c #FDFCFE",
"> c #FDFCFF",
", c #FDFDFE",
"< c #FDFDFF",
"1 c #FCFFFD",
"2 c #FDFEFC",
"3 c #FDFEFD",
"4 c #FDFFFC",
"5 c #FDFFFD",
"6 c #FCFEFE",
"7 c #FDFEFE",
"8 c #FDFFFE",
"9 c #FDFFFF",
"0 c #FEFCFD",
"q c #FEFDFD",
"w c #FFFCFD",
"e c #FFFDFC",
"r c #FFFDFD",
"t c #FEFDFE",
"y c #FEFDFF",
"u c #FFFCFE",
"i c #FFFDFE",
"p c #FFFDFF",
"a c #FEFEFD",
"s c #FEFFFC",
"d c #FEFFFD",
"f c #FFFEFC",
"g c #FFFEFD",
"h c #FFFFFD",
"j c #FEFEFE",
"k c #FEFEFF",
"l c #FEFFFE",
"z c #FEFFFF",
"x c #FFFEFE",
"c c #FFFEFF",
"v c #FFFFFE",
"b c gray100",
/* pixels */
"          ",
" uuu11uuo ",
" uu1uuuu@ ",
" u1u1111$ ",
" u11111;1 ",
" 1uu1uuuu ",
" uuuuuuuu ",
" 4u1uuu11 ",
" 4%%1u%u1 ",
" #uuuuuuu ",
" +uuu1u14 ",
" o%uu111% ",
" Xuuu11uu ",
" .uuuu1uu ",
"          "
};
