/* XPM */
static char *biped_261_80_OnK0[] = {
/* columns rows colors chars-per-pixel */
"11 15 35 1",
"  c #6FD444",
". c #6FD644",
"X c #70D744",
"o c #70D844",
"O c #70DA44",
"+ c #71DA44",
"@ c #72DE44",
"# c #72E044",
"$ c #73E344",
"% c #74E744",
"& c #75E944",
"* c #77EF44",
"= c #77F044",
"- c #79F644",
"; c #7AFB44",
": c #7BFD44",
"> c #7CFF44",
", c #7DFF44",
"< c #7EFF44",
"1 c #7FFF44",
"2 c #81FF44",
"3 c #83FF44",
"4 c #84FF44",
"5 c #85FF44",
"6 c #86FF44",
"7 c #87FF44",
"8 c #88FF44",
"9 c #89FF44",
"0 c #8AFF44",
"q c #8BFF44",
"w c #8CFF44",
"e c #8DFF44",
"r c #8EFF44",
"t c #8FFF44",
"y c gray75",
/* pixels */
"yyyyyyyyyyy",
"y$.$>>>*@oy",
"y@@:qqq4-.y",
"y.=4rtrr3+y",
"y.>qrttt4&y",
"y%3rrttt4:y",
"y;qrttttr3y",
"y>qtttttt4y",
"y3rrttttt4y",
"y4rrtttttqy",
"y4rrttttt4y",
"y4trtttttqy",
"yqtttttttqy",
"y4ttttttt4y",
"yyyyyyyyyyy"
};
