/* XPM */
static char *biped_107_146_OnK0[] = {
/* columns rows colors chars-per-pixel */
"15 15 39 1",
"  c #444444",
". c #484444",
"X c #494444",
"o c #484744",
"O c #4A4C44",
"+ c #4C4944",
"@ c #4D4B44",
"# c #5C7544",
"$ c #5E8F44",
"% c #648A44",
"& c #648C44",
"* c #658C44",
"= c #658D44",
"- c #669044",
"; c #66A544",
": c #64AE44",
"> c #65AF44",
", c #66AC44",
"< c #64B044",
"1 c #64B144",
"2 c #65B144",
"3 c #65B244",
"4 c #65B344",
"5 c #66B144",
"6 c #66B244",
"7 c #66B344",
"8 c #68B244",
"9 c #69B444",
"0 c #6FC844",
"q c #6FD344",
"w c #70CF44",
"e c #71CF44",
"r c #71D044",
"t c #70DA44",
"y c #71DA44",
"u c #71DB44",
"i c #72DB44",
"p c #73E344",
"a c gray75",
/* pixels */
"aaaaaaaaaaaaaaa",
"appppy6O4uppppa",
"appppt6 1yppppa",
"appppt: 1yppppa",
"appppu6 4uppppa",
"auuuyq: ,quuuya",
"a9888,$ $,8889a",
"a@XXXX  XXXXX@a",
"a-===%# #%==%-a",
"areer0; ;0r0qra",
"appppy6 4uppppa",
"appppt, 6uppppa",
"appppy6 1uppppa",
"appppy6 6uppppa",
"aaaaaaaaaaaaaaa"
};
