/* XPM */
static char *biped_136_122_OnK1[] = {
/* columns rows colors chars-per-pixel */
"48 18 14 1",
"  c #FFF066",
". c #FFF166",
"X c #FFF266",
"o c #FFF366",
"O c #FFF466",
"+ c #FFF566",
"@ c #FFF766",
"# c #FFF866",
"$ c #FFF966",
"% c #FFFC66",
"& c #FFFD66",
"* c #FFFE66",
"= c #FFFF66",
"- c gray75",
/* pixels */
"------------------------------------------------",
"-==============================================-",
"-===@======================================%===-",
"-===@====================================== ===-",
"-=== ====================================== ===-",
"-=== ====================================== ===-",
"-===@====================================== ===-",
"-===%======================================%===-",
"-==============================================-",
"-==@========================================@==-",
"-== ======================================== ==-",
"-== ======================================== ==-",
"-== ======================================== ==-",
"-==@========================================@==-",
"-==============================================-",
"-==============================================-",
"-=@==========================================@=-",
"------------------------------------------------"
};
