/* XPM */
static char *biped_32_84_OnK0[] = {
/* columns rows colors chars-per-pixel */
"10 13 20 1",
"  c #6FD744",
". c #74E544",
"X c #75E944",
"o c #79F844",
"O c #7AFC44",
"+ c #7BFE44",
"@ c #80FF44",
"# c #82FF44",
"$ c #83FF44",
"% c #84FF44",
"& c #85FF44",
"* c #86FF44",
"= c #88FF44",
"- c #8AFF44",
"; c #8BFF44",
": c #8CFF44",
"> c #8DFF44",
", c #8EFF44",
"< c #8FFF44",
"1 c gray75",
/* pixels */
"1111111111",
"1o&->-$X 1",
"1$-<<>-+ 1",
"1$>><>>$.1",
"1&<<<<<-+1",
"1-<<<<>>+1",
"1&<<<<>>$1",
"1&<<<<<<&1",
"1&><<<<<-1",
"1&><<<<<-1",
"1$><<<<>>1",
"1$><<<<>>1",
"1111111111"
};
