/* XPM */
static char *biped_89_221_OnK0[] = {
/* columns rows colors chars-per-pixel */
"13 13 73 1",
"  c #7F9F44",
". c #7FA044",
"X c #7FA144",
"o c #7EA444",
"O c #7EA544",
"+ c #7FA444",
"@ c #7EA744",
"# c #7DAB44",
"$ c #7EA844",
"% c #7DAC44",
"& c #7DAD44",
"* c #7DAE44",
"= c #7BB544",
"- c #7BB644",
"; c #7CB144",
": c #7CB244",
"> c #7CB344",
", c #7CB444",
"< c #7CB544",
"1 c #7ABD44",
"2 c #77CC44",
"3 c #77CD44",
"4 c #77CF44",
"5 c #7AC244",
"6 c #79C544",
"7 c #79C644",
"8 c #78C844",
"9 c #78C944",
"0 c #78CC44",
"q c #77D044",
"w c #77D144",
"e c #76D344",
"r c #75D744",
"t c #76D544",
"y c #76D644",
"u c #75D844",
"i c #75DA44",
"p c #75DB44",
"a c #76D844",
"s c #74DD44",
"d c #75DD44",
"f c #74DF44",
"g c #75DE44",
"h c #73E344",
"j c #73E444",
"k c #74E144",
"l c #74E244",
"z c #877144",
"x c #867544",
"c c #867644",
"v c #877644",
"b c #867844",
"n c #867944",
"m c #867A44",
"M c #857D44",
"N c #857E44",
"B c #848244",
"V c #848344",
"C c #848744",
"Z c #838944",
"A c #838A44",
"S c #838B44",
"D c #838C44",
"F c #819344",
"G c #829044",
"H c #829144",
"J c #829244",
"K c #819444",
"L c #819844",
"P c #809B44",
"I c #809E44",
"U c #809F44",
"Y c gray75",
/* pixels */
"YYYYYYYYYYYYY",
"Yhhy1 G -4jjY",
"Yh4@NzxxN 4jY",
"Yp@mxG@ SS*pY",
"Y7Vx@yhp8  4Y",
"Y*xGyhhhf7@-Y",
"Y@m phhhhy>@Y",
"Y;mGyhhhh4>*Y",
"Y0SN*pjlp-@5Y",
"Yp;SV --@@>pY",
"Yjy;DCKLI-4hY",
"Yjjp4-@;7pjhY",
"YYYYYYYYYYYYY"
};
