/* XPM */
static char *biped_276_99_OffK1[] = {
/* columns rows colors chars-per-pixel */
"10 13 25 1",
"  c gray75",
". c #F58B8B",
"X c #FB8E8D",
"o c #FF9090",
"O c #FF9393",
"+ c #FF9696",
"@ c #FF9998",
"# c #FF9B9B",
"$ c #FF9B9C",
"% c #FF9D9D",
"& c #FF9E9D",
"* c #FF9F9F",
"= c #FFA09F",
"- c #FFA0A1",
"; c #FFA2A1",
": c #FFA3A2",
"> c #FFA3A3",
", c #FFA4A3",
"< c #FFA6A5",
"1 c #FFA6A6",
"2 c #FFA8A7",
"3 c #FFA8A9",
"4 c #FFA9A9",
"5 c #FFA9AA",
"6 c #FFAAAA",
/* pixels */
"          ",
" #566666: ",
" *556666& ",
" :556666* ",
" 2666666* ",
" 2666665# ",
" 5666662@ ",
" 5666552@ ",
" 666666:O ",
" 566666:o ",
" 666666&X ",
" 666666&. ",
"          "
};
