/* XPM */
static char *biped_34_99_OffK1[] = {
/* columns rows colors chars-per-pixel */
"10 13 21 1",
"  c gray75",
". c #F48B8B",
"X c #FB8D8E",
"o c #FF9090",
"O c #FF9393",
"+ c #FF9696",
"@ c #FF9999",
"# c #FF9C9C",
"$ c #FF9D9D",
"% c #FF9E9D",
"& c #FF9F9F",
"* c #FF9FA0",
"= c #FFA0A0",
"- c #FFA1A1",
"; c #FFA2A2",
": c #FFA3A3",
"> c #FFA4A4",
", c #FFA6A6",
"< c #FFA8A8",
"1 c #FFA9A9",
"2 c #FFAAAA",
/* pixels */
"          ",
" :212221# ",
" :112222: ",
" &112222> ",
" &112222> ",
" &1122221 ",
" @1122222 ",
" +1222222 ",
" O>122222 ",
" X:222222 ",
" X:122112 ",
" .&122112 ",
"          "
};
