/* XPM */
static char *biped_230_124_OffK0[] = {
/* columns rows colors chars-per-pixel */
"17 12 95 2",
"   c #8F8E8F",
".  c #909090",
"X  c gray57",
"o  c #929292",
"O  c #939393",
"+  c #939493",
"@  c gray58",
"#  c gray59",
"$  c #979797",
"%  c #989898",
"&  c gray60",
"*  c #9A9A99",
"=  c #9A9A9A",
"-  c #9B9A9A",
";  c #9B9B9B",
":  c gray61",
">  c #9C9D9C",
",  c #9D9D9D",
"<  c gray62",
"1  c #9F9F9E",
"2  c #9F9F9F",
"3  c gray63",
"4  c #A4A5A6",
"5  c #A6A5A5",
"6  c gray65",
"7  c #A7A7A7",
"8  c #AFAFB0",
"9  c #B0AFB0",
"0  c #B1B1B2",
"q  c #B7B6B6",
"w  c #B8B7B7",
"e  c #BBBBBB",
"r  c gray75",
"t  c #C0C1C0",
"y  c #C1C1C2",
"u  c #C4C3C4",
"i  c #C6C6C6",
"p  c #CAC9C9",
"a  c #CAC9CA",
"s  c #CDCCCC",
"d  c #D1D0D1",
"f  c gray82",
"g  c #D7D7D6",
"h  c #D8D8D8",
"j  c #DAD9DA",
"k  c #DBDADA",
"l  c #DBDBDC",
"z  c #DCDBDB",
"x  c #DCDDDD",
"c  c #DDDCDC",
"v  c #E6E7E6",
"b  c gray91",
"n  c #F0EFEF",
"m  c gray95",
"M  c #F4F4F4",
"N  c #F5F4F4",
"B  c #F5F5F6",
"V  c #F6F5F5",
"C  c #F7F6F7",
"Z  c gray97",
"A  c #F8F7F7",
"S  c #F8F8F9",
"D  c #FAF9FA",
"F  c gray98",
"G  c #FAFBFA",
"H  c #FCFBFC",
"J  c #FCFDFD",
"K  c #FDFCFD",
"L  c #FDFDFD",
"P  c #FCFDFE",
"I  c #FDFDFE",
"U  c #FDFDFF",
"Y  c #FCFEFD",
"T  c #FDFEFD",
"R  c #FDFFFD",
"E  c #FCFEFE",
"W  c #FDFEFE",
"Q  c #FDFEFF",
"!  c #FDFFFE",
"~  c #FDFFFF",
"^  c #FEFCFC",
"/  c #FEFDFD",
"(  c #FFFCFD",
")  c #FFFDFD",
"_  c #FEFCFE",
"`  c #FEFCFF",
"'  c #FEFDFE",
"]  c #FFFCFE",
"[  c #FEFFFD",
"{  c #FFFFFD",
"}  c #FEFEFE",
"|  c #FEFEFF",
" . c #FEFFFE",
".. c #FEFFFF",
"X. c gray100",
/* pixels */
"r r r r r r r r r r r r r r r r r ",
"r < < & & & & < < < < < < < < < r ",
"r # # < < 2 > @ X & < < < < < < r ",
"r O 8 y a a i q 4 & # ; < < < < r ",
"r 4 x S } } G m z w ; # & < < < r ",
"r f m Y Y } } Y } A s < @ & < < r ",
"r h Z } } } } } } ^ M g 4   & < r ",
"r y n } Y } Y } } } } Z z 9 X & r ",
"r 3 c G } Y } ] } } } Y Z j 8 O r ",
"r . e v S } } } } } } } Y B j 7 r ",
"r @ & y b S } } ] ] } } } } Z d r ",
"r r r r r r r r r r r r r r r r r "
};
