/* XPM */
static char *biped_218_221_OffK0[] = {
/* columns rows colors chars-per-pixel */
"13 13 82 1",
"  c #BB6F6F",
". c #BE6969",
"X c #BF6868",
"o c #BF6969",
"O c #BE6B6B",
"+ c #BC6D6D",
"@ c #BC6E6E",
"# c #BC6F6F",
"$ c #B37C7C",
"% c #B37D7D",
"& c #B47B7B",
"* c #B67878",
"= c #B47C7C",
"- c #B97373",
"; c #BA7171",
": c #BB7171",
"> c #BA7272",
", c #B87474",
"< c #DF3232",
"1 c #DD3535",
"2 c #DE3434",
"3 c #DE3535",
"4 c #DB3939",
"5 c #D93D3D",
"6 c #D83F3F",
"7 c #DC3838",
"8 c #E32C2C",
"9 c #E03131",
"0 c #E13030",
"q c #CF4E4E",
"w c #CF4F4F",
"e c #C75A5A",
"r c #C75B5B",
"t c #C45F5F",
"y c #C55F5F",
"u c #C75C5C",
"i c #CB5555",
"p c #CA5656",
"a c #CB5656",
"s c #C85A5A",
"d c #D34646",
"f c #D34747",
"g c #D54343",
"h c #D44545",
"j c #D24949",
"k c #D04C4C",
"l c #C26262",
"z c #C36262",
"x c #C16464",
"c c #C26464",
"v c #C46060",
"b c #C06868",
"n c #9F9D9D",
"m c gray62",
"M c #9F9E9E",
"N c #AE8585",
"B c #AF8484",
"V c #AB8A8A",
"C c #A88E8E",
"Z c #A88F8F",
"A c #A98E8E",
"S c #A98F8F",
"D c #AA8C8C",
"F c #AC8888",
"G c #A59393",
"H c #A79191",
"J c #A69292",
"K c #A59595",
"L c #A49696",
"P c #A19B9B",
"I c #A29999",
"U c #A39898",
"Y c #A39999",
"T c #A29A9A",
"R c #A09C9C",
"E c #A19C9C",
"W c #A09E9E",
"Q c #A89090",
"! c #B18080",
"~ c #B08282",
"^ c #B18282",
"/ c gray75",
/* pixels */
"/////////////",
"/MMC;pqe*ZMM/",
"/MNe7<084zVM/",
"/Kxgjeyq03xY/",
"/%peBTPQz06%/",
"/+x%PMMMQk0O/",
"/z ZmMMMPs<z/",
"/O CmMMMQk3+/",
"/Nx,KmWKx7hF/",
"/Y%xx;;ygh+T/",
"/mY=zssjk:QW/",
"/mPPQ=,=CPmm/",
"/////////////"
};
