/* XPM */
static char *biped_278_84_OffK0[] = {
/* columns rows colors chars-per-pixel */
"10 13 63 1",
"  c #929292",
". c #A0A0A1",
"X c #A3A3A4",
"o c #B2B2B3",
"O c #B8B8B9",
"+ c #B8B8BA",
"@ c gray75",
"# c #C8C9C9",
"$ c #C9C8C8",
"% c #CBCACB",
"& c #CDCCCC",
"* c #CFCFD0",
"= c gray82",
"- c #D3D4D4",
"; c #D7D7D6",
": c #D7D7D7",
"> c #DADBDB",
", c #DBDCDB",
"< c #DEDFDE",
"1 c #DEE0DF",
"2 c #E0DEDE",
"3 c #E1DEDF",
"4 c #E5E5E4",
"5 c #E6E6E6",
"6 c #EBEBEC",
"7 c #ECECEC",
"8 c #EDEDEC",
"9 c #F1EFF1",
"0 c #F0F1F1",
"q c #F1F0F1",
"w c #F1F1F1",
"e c #F2F1F1",
"r c #F4F4F3",
"t c #F6F7F7",
"y c #F7F6F6",
"u c #F7F8F8",
"i c gray98",
"p c #FAFBFB",
"a c #FBFBFB",
"s c gray99",
"d c #FCFCFD",
"f c #FCFDFC",
"g c #FCFDFD",
"h c #FDFCFC",
"j c #FDFCFD",
"k c #FDFDFD",
"l c #FCFCFE",
"z c #FCFDFE",
"x c #FCFDFF",
"c c #FDFDFE",
"v c #FDFDFF",
"b c #FDFEFD",
"n c #FDFFFD",
"m c #FDFEFE",
"M c #FDFFFF",
"N c #FEFDFE",
"B c #FFFDFE",
"V c #FFFDFF",
"C c #FEFEFD",
"Z c #FFFEFD",
"A c #FEFFFF",
"S c #FFFEFF",
"D c gray100",
/* pixels */
"@@@@@@@@@@",
"@ X%9q8:o@",
"@ +6cccq%@",
"@.*ixxcu-@",
"@+4fxxff,@",
"@&rcccff<@",
"@;fccffa2@",
"@2cccccf<@",
"@5fccccc,@",
"@8cfcccc;@",
"@efccccy=@",
"@yccccce$@",
"@@@@@@@@@@"
};
