/* XPM */
static char *biped_103_195_OnK1[] = {
/* columns rows colors chars-per-pixel */
"23 23 35 1",
"  c #FF6666",
". c #FF6B66",
"X c #FF6D66",
"o c #FF6E66",
"O c #FF7166",
"+ c #FF7266",
"@ c #FF7966",
"# c #FF7A66",
"$ c #FF8D66",
"% c #FF8E66",
"& c #FF8F66",
"* c #FF9666",
"= c #FF9766",
"- c #FF9866",
"; c #FF9B66",
": c #FF9C66",
"> c #FF9D66",
", c #FF9E66",
"< c #FFAC66",
"1 c #FFAD66",
"2 c #FFB766",
"3 c #FFB866",
"4 c #FFC766",
"5 c #FFC866",
"6 c #FFD266",
"7 c #FFD366",
"8 c #FFE266",
"9 c #FFE366",
"0 c #FFF766",
"q c #FFF866",
"w c #FFF966",
"e c #FFFB66",
"r c #FFFC66",
"t c #FFFF66",
"y c gray75",
/* pixels */
"yyyyyyyyyyyyyyyyyyyyyyy",
"ytttttw94<,*-<590ttttty",
"ytttw93%#Ooooo#*29tttty",
"yttw7,#.       .#,7wtty",
"ytw7-O           o-7tty",
"yt9,O             O,9ty",
"y02#               #20y",
"y9%.               .%9y",
"y4#                 #4y",
"y<O                 O<y",
"y-o                 o-y",
"y*o                 o*y",
"y,o                 o,y",
"y<O                 O<y",
"y4#                 #4y",
"y9%o               .%9y",
"y02@               #20y",
"yt9,o             O,9ty",
"ytw7*O           O-7wty",
"yttw7,#.       .#,7wtty",
"ytttw92%#OoooO@%29wttty",
"yttttt094<---<490ttttty",
"yyyyyyyyyyyyyyyyyyyyyyy"
};
