/* XPM */
static char *biped_196_35_OffK0[] = {
/* columns rows colors chars-per-pixel */
"11 11 40 1",
"  c #B77D37",
". c #B77D39",
"X c #B77E3B",
"o c #B67E3C",
"O c #B67F3D",
"+ c #B77E3C",
"@ c #B87A32",
"# c #B87B33",
"$ c #B87B35",
"% c #B87C37",
"& c #B87D37",
"* c #AF8859",
"= c #AF895A",
"- c #B3824A",
"; c #B3834B",
": c #B3844C",
"> c #B3844D",
", c #B18551",
"< c #B18552",
"1 c #B28550",
"2 c #B08755",
"3 c #B18655",
"4 c #B08859",
"5 c #A7937C",
"6 c #A7947D",
"7 c #A7947E",
"8 c #A99074",
"9 c #A99175",
"0 c #A89278",
"q c #A89279",
"w c #A8937B",
"e c #9F9E9B",
"r c gray62",
"t c #9F9E9E",
"y c #A59684",
"u c #A09D99",
"i c #A19D99",
"p c #A09D9A",
"a c #A09D9B",
"s c gray75",
/* pixels */
"sssssssssss",
"staw;&>wats",
"sa63&#&26ts",
"sy*.###.*ys",
"s*X#@@@#.4s",
"sO#@@@@@&.s",
"sX#@@@@@@.s",
"s2.@@@@#&2s",
"sw> @@@.28s",
"sa8-$@$-8as",
"sssssssssss"
};
