/* XPM */
static char *biped_55_221_OffK0[] = {
/* columns rows colors chars-per-pixel */
"13 13 84 1",
"  c #BF6969",
". c #BC6D6D",
"X c #BD6D6D",
"o c #BC6E6E",
"O c #BD6E6E",
"+ c #B57878",
"@ c #B57979",
"# c #B47A7A",
"$ c #B47B7B",
"% c #B97373",
"& c #BA7070",
"* c #DD3535",
"= c #DC3737",
"- c #DD3737",
"; c #DE3434",
": c #DE3535",
"> c #DE3636",
", c #DB3939",
"< c #DA3B3B",
"1 c #DB3A3A",
"2 c #D83E3E",
"3 c #D83F3F",
"4 c #DC3838",
"5 c #DC3939",
"6 c #E02F2F",
"7 c #CE4F4F",
"8 c #CF4E4E",
"9 c #C75959",
"0 c #C75A5A",
"q c #C55D5D",
"w c #C45F5F",
"e c #C65C5C",
"r c #C95757",
"t c #CB5454",
"y c #CA5656",
"u c #CC5353",
"i c #CE5050",
"p c #C95858",
"a c #C95959",
"s c #C85A5A",
"d c #D34747",
"f c #D54343",
"g c #D74141",
"h c #D44646",
"j c #D14B4B",
"k c #D34848",
"l c #D24A4A",
"z c #D04D4D",
"x c #D14C4C",
"c c #C36161",
"v c #C16464",
"b c #C16565",
"n c #C06666",
"m c #C06767",
"M c #C16666",
"N c #C46060",
"B c #C46161",
"V c #C46363",
"C c #9F9D9D",
"Z c gray62",
"A c #9F9E9E",
"S c #9F9F9F",
"D c #AD8787",
"F c #AE8585",
"G c #AE8686",
"H c #AE8787",
"J c #AA8B8B",
"K c #AB8A8A",
"L c #A98D8D",
"P c #A88E8E",
"I c #A98E8E",
"U c #A39797",
"Y c #A79191",
"T c #A69292",
"R c #A69393",
"E c #A59696",
"W c #A09B9B",
"Q c #A39898",
"! c #A39999",
"~ c #A09C9C",
"^ c #A09D9D",
"/ c #B08181",
"( c #B18181",
") c gray75",
/* pixels */
")))))))))))))",
")ZZR+9zy%L^Z)",
")ZJc,6;;49(Z)",
")Qv4;uvVlfeL)",
")Hg;vR^^H9l%)",
")o;uYZZZ^+ye)",
")V4eUZZZZHey)",
")o;8LZZZZ$yV)",
")Hh4 RZZH98+)",
")!of,tveulvR)",
")^Yoh,33lvJZ)",
")Z^!HoV (ES^)",
")))))))))))))"
};
