/* XPM */
static char *biped_273_115_OffK0[] = {
/* columns rows colors chars-per-pixel */
"10 15 38 1",
"  c gray75",
". c #E2E3E3",
"X c #E8E9E8",
"o c #EEEFEE",
"O c gray94",
"+ c #F3F4F4",
"@ c #F6F5F6",
"# c #F8F8F8",
"$ c gray98",
"% c #FBFBFB",
"& c gray99",
"* c #FCFDFD",
"= c #FDFDFD",
"- c #FDFDFE",
"; c #FCFEFD",
": c #FCFFFD",
"> c #FDFEFD",
", c #FDFFFC",
"< c #FDFFFD",
"1 c #FCFEFF",
"2 c #FCFFFF",
"3 c #FDFEFE",
"4 c #FDFEFF",
"5 c #FDFFFE",
"6 c #FDFFFF",
"7 c #FEFDFD",
"8 c #FEFCFE",
"9 c #FEFDFE",
"0 c #FEFDFF",
"q c #FFFDFF",
"w c #FEFEFD",
"e c #FFFEFC",
"r c #FEFEFE",
"t c #FEFFFE",
"y c #FEFFFF",
"u c #FFFEFE",
"i c #FFFEFF",
"p c gray100",
/* pixels */
"          ",
" Ouu:::uu ",
" @uu::u:u ",
" $uu::u8: ",
" &:uuu88: ",
" uuu:&:uu ",
" :8:u:uuu ",
" uuuu:u&& ",
" &u8::uu& ",
" 8uuuu::@ ",
" &:uu:&:+ ",
" u&:u:8:o ",
" u8&:u8uX ",
" :u::u8:. ",
"          "
};
