/* XPM */
static char *biped_141_58_OnK0[] = {
/* columns rows colors chars-per-pixel */
"38 18 4 1",
"  c #8DFF44",
". c #8EFF44",
"X c #8FFF44",
"o c gray75",
/* pixels */
"oooooooooooooooooooooooooooooooooooooo",
"oXXXXXXXXXXXXXXXXXXXXXXXXXXXXXXXXXXXXo",
"oXXXXXXXXXXXXXXXXXXXXXXXXXXXXXXXXXXXXo",
"oXXXXXXXXXXXXXXXXXXXXXXXXXXXXXXXXXXXXo",
"oXXXXXXXXXXXXXXXXXXXXXXXXXXXXXXXXXXXXo",
"oXXXXXXXXXXXXXXXXXXXXXXXXXXXXXXXXXXXXo",
"oXXXXXXXXXXXXXXXXXXXXXXXXXXXXXXXXXXXXo",
"oXXXXXXXXXXXXXXXXXXXXXXXXXXXXXXXXXXXXo",
"oXXXXXXXXXXXXXXXXXXXXXXXXXXXXXXXXXXXXo",
"oXXXXXXXXXXXXXXXXXXXXXXXXXXXXXXXXXXXXo",
"oXXXXXXXXXXXXXXXXXXXXXXXXXXXXXXXXXXXXo",
"oXXXXXXXXXXXXXXXXXXXXXXXXXXXXXXXXXXXXo",
"oXXXXXXXXXXXXXXXXXXXXXXXXXXXXXXXXXXXXo",
"oXXXXXXXXXXXXXXXXXXXXXXXXXXXXXXXXXXXXo",
"oXXXXXXXXXXXXXXXXXXXXXXXXXXXXXXXXXXXXo",
"oXXXXXXXXXXXXXXXXXXXXXXXXXXXXXXXXXXX o",
"oXXXXXXXXXXXXXXXXXXXXXXXXXXXXXXXXXXX o",
"oooooooooooooooooooooooooooooooooooooo"
};
