/* XPM */
static char *biped_292_98_OnK0[] = {
/* columns rows colors chars-per-pixel */
"10 10 32 1",
"  c #6FD644",
". c #70D744",
"X c #70D844",
"o c #71DA44",
"O c #71DB44",
"+ c #71DD44",
"@ c #72DE44",
"# c #72E144",
"$ c #73E244",
"% c #73E344",
"& c #76EC44",
"* c #76ED44",
"= c #77F044",
"- c #78F344",
"; c #7BFC44",
": c #7BFF44",
"> c #7CFF44",
", c #7DFF44",
"< c #82FF44",
"1 c #83FF44",
"2 c #84FF44",
"3 c #85FF44",
"4 c #86FF44",
"5 c #87FF44",
"6 c #88FF44",
"7 c #89FF44",
"8 c #8AFF44",
"9 c #8CFF44",
"0 c #8DFF44",
"q c #8EFF44",
"w c #8FFF44",
"e c gray75",
/* pixels */
"eeeeeeeeee",
"e%%+.,11:e",
"e%o+;8qq1e",
"e+o-8qqq8e",
"e &1qqww3e",
"e.:qqqww3e",
"e&3qwwwq1e",
"e,8wwwq8,e",
"e3qqqww3*e",
"eeeeeeeeee"
};
