/* XPM */
static char *biped_141_42_OnK1[] = {
/* columns rows colors chars-per-pixel */
"14 13 10 1",
"  c #FFF666",
". c #FFF766",
"X c #FFF866",
"o c #FFF966",
"O c #FFFA66",
"+ c #FFFB66",
"@ c #FFFC66",
"# c #FFFE66",
"$ c #FFFF66",
"% c gray75",
/* pixels */
"%%%%%%%%%%%%%%",
"%$$$$$$$$$ X$%",
"%$$XX   X$$$$%",
"%$$$$$$$$$$$$%",
"%$$$$$$$$$$$$%",
"%$$$$$$$$$$$$%",
"%$$$$$$$$$$$$%",
"%$$$$$$$$$$$$%",
"%$$$$$$$$$$$$%",
"%$$$$$$$$$$$$%",
"%$$$$$$$$$$$$%",
"%$$$$$$$$$$$$%",
"%%%%%%%%%%%%%%"
};
