/* XPM */
static char *biped_261_114_OffK1[] = {
/* columns rows colors chars-per-pixel */
"10 16 8 1",
"  c gray75",
". c #FFA3A3",
"X c #FFA4A4",
"o c #FFA5A4",
"O c #FFA5A5",
"+ c #FFA6A5",
"@ c #FFA6A6",
"# c #FFAAAA",
/* pixels */
"          ",
" .####### ",
" O####### ",
" O####### ",
" O####### ",
" O####### ",
" O####### ",
" O####### ",
" O####### ",
" O####### ",
" o####### ",
" o####### ",
" O####### ",
" O####### ",
" O####### ",
"          "
};
