/* XPM */
static char *biped_29_46_OffK0[] = {
/* columns rows colors chars-per-pixel */
"11 16 2 1",
"  c gray62",
". c gray75",
/* pixels */
"...........",
".         .",
".         .",
".         .",
".         .",
".         .",
".         .",
".         .",
".         .",
".         .",
".         .",
".         .",
".         .",
".         .",
".         .",
"..........."
};
