/* XPM */
static char *biped_69_146_OnK1[] = {
/* columns rows colors chars-per-pixel */
"11 20 13 1",
"  c #FFF366",
". c #FFF466",
"X c #FFF566",
"o c #FFF666",
"O c #FFF766",
"+ c #FFF866",
"@ c #FFFA66",
"# c #FFFB66",
"$ c #FFFC66",
"% c #FFFD66",
"& c #FFFE66",
"* c #FFFF66",
"= c gray75",
/* pixels */
"===========",
"=*********=",
"=******** =",
"=******** =",
"=******** =",
"=******** =",
"=******** =",
"=********@=",
"=*********=",
"=******* *=",
"=******@**=",
"=*********=",
"=**** ****=",
"=*********=",
"=*** *****=",
"=**@******=",
"=*********=",
"=*@*******=",
"=@********=",
"==========="
};
