/* XPM */
static char *biped_156_38_OnK1[] = {
/* columns rows colors chars-per-pixel */
"8 17 2 1",
"  c #FFFF66",
". c gray75",
/* pixels */
"........",
".      .",
".      .",
".      .",
".      .",
".      .",
".      .",
".      .",
".      .",
".      .",
".      .",
".      .",
".      .",
".      .",
".      .",
".      .",
"........"
};
