/* XPM */
static char *biped_243_85_OffK0[] = {
/* columns rows colors chars-per-pixel */
"10 13 73 1",
"  c gray55",
". c gray56",
"X c #939393",
"o c gray58",
"O c #959494",
"+ c #959595",
"@ c #979697",
"# c #9A9999",
"$ c #9B9B9B",
"% c #9B9B9C",
"& c gray61",
"* c gray62",
"= c #A2A2A2",
"- c #A4A4A5",
"; c gray67",
": c #B1B0B1",
"> c #B6B6B6",
", c #BAB9B9",
"< c #BBBBBB",
"1 c #BEBDBE",
"2 c gray75",
"3 c #C5C4C4",
"4 c #C5C5C5",
"5 c #C6C6C6",
"6 c #CBCACB",
"7 c #CECDCD",
"8 c #CFCFCE",
"9 c #D3D4D4",
"0 c #D4D3D4",
"q c gray84",
"w c #D7D8D8",
"e c #DAD9D9",
"r c #DADADA",
"t c #E1E0E1",
"y c #E4E3E4",
"u c #E7E6E7",
"i c #EAE9EA",
"p c #ECEBEB",
"a c #EEEEEF",
"s c #EFEEEE",
"d c #EFEFEF",
"f c #F4F4F4",
"g c gray96",
"h c #F7F7F6",
"j c #F7F8F9",
"k c gray98",
"l c #FBFCFB",
"z c #FCFAFB",
"x c #FCFBFB",
"c c #FCFDFC",
"v c #FDFCFC",
"b c #FDFCFD",
"n c #FDFDFD",
"m c #FDFCFE",
"M c #FDFCFF",
"N c #FDFDFE",
"B c #FDFDFF",
"V c #FCFFFD",
"C c #FDFEFD",
"Z c #FDFEFE",
"A c #FDFEFF",
"S c #FDFFFE",
"D c #FDFFFF",
"F c #FEFDFD",
"G c #FFFCFD",
"H c #FFFDFD",
"J c #FEFDFE",
"K c #FFFDFE",
"L c #FFFDFF",
"P c #FFFEFD",
"I c #FEFEFF",
"U c #FEFFFF",
"Y c gray100",
/* pixels */
"2222222222",
"2#@.  @#*2",
"2@=:,,#@#2",
"2;6tpi2&@2",
"25dnnnu>X2",
"27gnnnz0-2",
"20jnnnnd52",
"2ennnnnzq2",
"2rnnnnnnu2",
"20lnnnnns2",
"27gnnnnnh2",
"25annnnnn2",
"2222222222"
};
