/* XPM */
static char *biped_189_91_OffK0[] = {
/* columns rows colors chars-per-pixel */
"17 17 37 1",
"  c #B57979",
". c #B57A7A",
"X c #B67979",
"o c #EA1F1F",
"O c #EB1F1F",
"+ c #EE1919",
"@ c #EF1919",
"# c #EE1A1A",
"$ c #FD0101",
"% c #FC0303",
"& c #FD0202",
"* c red",
"= c #F90808",
"- c #F31313",
"; c #E12F2F",
": c #E22F2F",
"> c #E52929",
", c #E62828",
"< c #EA2020",
"1 c #EB2020",
"2 c #E13030",
"3 c #E13131",
"4 c #E23030",
"5 c #CD5151",
"6 c #CE5050",
"7 c #CE5151",
"8 c #C36262",
"9 c #C46161",
"0 c #C46262",
"q c gray62",
"w c #9F9E9E",
"e c #A39797",
"r c #A79191",
"t c #A49696",
"y c #A89090",
"u c #A89191",
"i c gray75",
/* pixels */
"iiiiiiiiiiiiiiiii",
"iqqt.6;O#O:6.tqwi",
"iqr8:-=%%%=-;8yqi",
"ie8>=%%%%%%%=>9ti",
"i.:=%%%%%%%%%=:Xi",
"i6-%%%%%%%%%%%-6i",
"i;=%%%%%%%%%%%=;i",
"iO%%%%%%%%%%%%%Oi",
"i-%%%%%%%%%%%%%-i",
"iO%%%%%%%%%%%%%Oi",
"i3=%%%%%%%%%%%=3i",
"i6-%%%%%%%%%%%-6i",
"i.;=%%%%%%%%%=:Xi",
"it9,=%%%%%%%=,5ti",
"iwu94-=%%%=-39twi",
"iwwtX6;O-O36.ewwi",
"iiiiiiiiiiiiiiiii"
};
