/* XPM */
static char *biped_252_221_OnK1[] = {
/* columns rows colors chars-per-pixel */
"13 13 63 1",
"  c #FF9566",
". c #FF9B66",
"X c #FF9C66",
"o c #FF9D66",
"O c #FF9E66",
"+ c #FF9F66",
"@ c #FFA066",
"# c #FFA166",
"$ c #FFA466",
"% c #FFA566",
"& c #FFA766",
"* c #FFA966",
"= c #FFAC66",
"- c #FFAE66",
"; c #FFB066",
": c #FFB166",
"> c #FFB266",
", c #FFB366",
"< c #FFB466",
"1 c #FFB566",
"2 c #FFB666",
"3 c #FFB966",
"4 c #FFBC66",
"5 c #FFBD66",
"6 c #FFBE66",
"7 c #FFBF66",
"8 c #FFC066",
"9 c #FFC166",
"0 c #FFC266",
"q c #FFC466",
"w c #FFC566",
"e c #FFC666",
"r c #FFC766",
"t c #FFC966",
"y c #FFCA66",
"u c #FFCB66",
"i c #FFCC66",
"p c #FFCD66",
"a c #FFCF66",
"s c #FFD366",
"d c #FFD466",
"f c #FFD566",
"g c #FFD766",
"h c #FFD866",
"j c #FFDF66",
"k c #FFE166",
"l c #FFE766",
"z c #FFE866",
"x c #FFEB66",
"c c #FFEC66",
"v c #FFED66",
"b c #FFEE66",
"n c #FFF066",
"m c #FFF166",
"M c #FFF366",
"N c #FFF466",
"B c #FFF766",
"V c #FFF866",
"C c #FFF966",
"Z c #FFFC66",
"A c #FFFE66",
"S c #FFFF66",
"D c gray75",
/* pixels */
"DDDDDDDDDDDDD",
"DSSNg5>9kVSSD",
"DSl5@X. XtMSD",
"DM9&>rt3.XrSD",
"Dg>5vSSViX*vD",
"D95kSSSSN,XgD",
"D5rxSSSSS5XtD",
"Dr5kSSSSN,XsD",
"Dk,9vSSViX-vD",
"DNt>,rt3@*gSD",
"DSMt-&&X-gNSD",
"DSSSlirgvSSSD",
"DDDDDDDDDDDDD"
};
