/* XPM */
static char *biped_73_221_OffK0[] = {
/* columns rows colors chars-per-pixel */
"13 13 89 1",
"  c #BD6B6B",
". c #BF6868",
"X c #BF6969",
"o c #BE6B6B",
"O c #BC6E6E",
"+ c #BC6F6F",
"@ c #BD6E6E",
"# c #BE6C6C",
"$ c #B37E7E",
"% c #B57979",
"& c #B57B7B",
"* c #B97373",
"= c #BA7171",
"- c #DF3333",
"; c #DD3535",
": c #DE3434",
"> c #DE3535",
", c #DB3838",
"< c #DB3939",
"1 c #DB3A3A",
"2 c #D83E3E",
"3 c #D83F3F",
"4 c #E12F2F",
"5 c #E22D2D",
"6 c #E03131",
"7 c #CE4F4F",
"8 c #C75A5A",
"9 c #C55E5E",
"0 c #C65D5D",
"q c #C65F5F",
"w c #C75E5E",
"e c #C95757",
"r c #CB5454",
"t c #CB5555",
"y c #CA5656",
"u c #CD5252",
"i c #C85959",
"p c #C95858",
"a c #C95959",
"s c #C85A5A",
"d c #C85B5B",
"f c #D34646",
"g c #D34747",
"h c #D64242",
"j c #D44545",
"k c #D44646",
"l c #D04B4B",
"z c #D14A4A",
"x c #D14B4B",
"c c #D24848",
"v c #D04D4D",
"b c #D84040",
"n c #C36262",
"m c #C36363",
"M c #C16666",
"N c #C26464",
"B c #C46060",
"V c #C46161",
"C c #C46262",
"Z c #C56262",
"A c #9F9D9D",
"S c gray62",
"D c #9F9E9E",
"F c #9F9F9F",
"G c #AD8787",
"H c #AF8585",
"J c #AE8686",
"K c #AE8787",
"L c #AB8989",
"P c #AB8A8A",
"I c #AB8B8B",
"U c #A98E8E",
"Y c #AB8C8C",
"T c #AC8888",
"R c #A79191",
"E c #A69393",
"W c #A49696",
"Q c #A49797",
"! c #A19B9B",
"~ c #A39898",
"^ c #A39999",
"/ c #A09C9C",
"( c #A09D9D",
") c #A19C9C",
"_ c #A09E9E",
"` c #B08181",
"' c #B18080",
"] c #B08383",
"[ c gray75",
/* pixels */
"[[[[[[[[[[[[[",
"[SSE%8vy*YSS[",
"[SIB<56><8]F[",
"[QN>5vB0zh0Y[",
"[Jh50Y!!Idv*[",
"[#6gI!SS!&80[",
"[B>uEFSS!IB8[",
"[+>zI!SS!]BB[",
"[Tk1NES!YBy&[",
"[^#k3y .8uNQ[",
"[FE#z3gz7XIS[",
"[F!^I#n#]QFF[",
"[[[[[[[[[[[[["
};
