/* XPM */
static char *biped_183_159_OnK1[] = {
/* columns rows colors chars-per-pixel */
"11 11 17 1",
"  c #FFE166",
". c #FFE266",
"X c #FFE366",
"o c #FFE466",
"O c #FFE566",
"+ c #FFE966",
"@ c #FFEA66",
"# c #FFEB66",
"$ c #FFED66",
"% c #FFEE66",
"& c #FFF766",
"* c #FFF866",
"= c #FFF966",
"- c #FFFA66",
"; c #FFFC66",
": c #FFFF66",
"> c gray75",
/* pixels */
">>>>>>>>>>>",
">::*@X@*::>",
">:*$XXX$::>",
">:$X XXX$*>",
">$X     X$>",
">XX     XX>",
">X      XX>",
">@X     X@>",
">*@X   X$&>",
">:&@XXXX&:>",
">>>>>>>>>>>"
};
