/* XPM */
static char *biped_126_159_OnK1[] = {
/* columns rows colors chars-per-pixel */
"11 11 15 1",
"  c #FFE166",
". c #FFE366",
"X c #FFE466",
"o c #FFE966",
"O c #FFEA66",
"+ c #FFEB66",
"@ c #FFED66",
"# c #FFEE66",
"$ c #FFF766",
"% c #FFF866",
"& c #FFF966",
"* c #FFFA66",
"= c #FFFC66",
"- c #FFFF66",
"; c gray75",
/* pixels */
";;;;;;;;;;;",
";--%O.O%--;",
";-%@...@%-;",
";-@. ...@-;",
";@.     .@;",
";..     ..;",
";.      ..;",
";O.     .O;",
";$O.   .@%;",
";-$O . .$-;",
";;;;;;;;;;;"
};
