/* XPM */
static char *biped_18_98_OnK0[] = {
/* columns rows colors chars-per-pixel */
"10 10 31 1",
"  c #6FD644",
". c #70D744",
"X c #70D944",
"o c #71DB44",
"O c #71DC44",
"+ c #72DE44",
"@ c #73E144",
"# c #73E244",
"$ c #73E344",
"% c #75EB44",
"& c #76ED44",
"* c #76EE44",
"= c #77F144",
"- c #7AFB44",
"; c #7BFC44",
": c #7CFF44",
"> c #7DFF44",
", c #7EFF44",
"< c #81FF44",
"1 c #82FF44",
"2 c #83FF44",
"3 c #84FF44",
"4 c #86FF44",
"5 c #87FF44",
"6 c #89FF44",
"7 c #8AFF44",
"8 c #8BFF44",
"9 c #8DFF44",
"0 c #8EFF44",
"q c #8FFF44",
"w c gray75",
/* pixels */
"wwwwwwwwww",
"w;<5>XO@$w",
"w5808-OO@w",
"w50005=OOw",
"w5q000<% w",
"w500000> w",
"w>00qq0<*w",
"w>8qq008>w",
"w*5000005w",
"wwwwwwwwww"
};
