/* XPM */
static char *biped_250_43_OffK1[] = {
/* columns rows colors chars-per-pixel */
"21 21 93 2",
"   c #CD7B7B",
".  c #D07C7C",
"X  c #D17C7C",
"o  c #D17D7D",
"O  c #D27D7D",
"+  c #D37E7D",
"@  c #D37E7E",
"#  c #D47E7E",
"$  c #D57E7E",
"%  c #D77F7F",
"&  c gray75",
"*  c #D98080",
"=  c #DA8080",
"-  c #DB8181",
";  c #DC8181",
":  c #DD8181",
">  c #DD8282",
",  c #DE8282",
"<  c #DF8282",
"1  c #E08282",
"2  c #E18383",
"3  c #E28383",
"4  c #E28484",
"5  c #E38484",
"6  c #E48484",
"7  c #E78585",
"8  c #E98686",
"9  c #EB8787",
"0  c #EC8787",
"q  c #EE8888",
"w  c #F28989",
"e  c #F28A8A",
"r  c #F38A8A",
"t  c #F58B8B",
"y  c #F68B8B",
"u  c #F88C8C",
"i  c #FA8D8D",
"p  c #FC8E8D",
"a  c #FC8E8E",
"s  c #FD8E8E",
"d  c #FE8E8E",
"f  c #FF8F8F",
"g  c #FF8F90",
"h  c #FF908F",
"j  c #FF9090",
"k  c #FF9191",
"l  c #FF9292",
"z  c #FF9293",
"x  c #FF9494",
"c  c #FF9595",
"v  c #FF9696",
"b  c #FF9697",
"n  c #FF9797",
"m  c #FF9898",
"M  c #FF9899",
"N  c #FF9998",
"B  c #FF9999",
"V  c #FF9A9A",
"C  c #FF9A9B",
"Z  c #FF9B9B",
"A  c #FF9B9C",
"S  c #FF9C9C",
"D  c #FF9D9D",
"F  c #FF9E9E",
"G  c #FF9E9F",
"H  c #FF9F9E",
"J  c #FF9F9F",
"K  c #FF9FA0",
"L  c #FFA0A0",
"P  c #FFA0A1",
"I  c #FFA1A0",
"U  c #FFA1A1",
"Y  c #FFA1A2",
"T  c #FFA2A1",
"R  c #FFA2A2",
"E  c #FFA2A3",
"W  c #FFA3A3",
"Q  c #FFA3A4",
"!  c #FFA4A3",
"~  c #FFA4A4",
"^  c #FFA4A5",
"/  c #FFA5A4",
"(  c #FFA5A5",
")  c #FFA6A6",
"_  c #FFA6A7",
"`  c #FFA7A7",
"'  c #FFA8A8",
"]  c #FFA8A9",
"[  c #FFA9A8",
"{  c #FFA9A9",
"}  c #FFA9AA",
"|  c #FFAAA9",
" . c #FFAAAA",
/* pixels */
"& & & & & & & & & & & & & & & & & & & & & ",
"& > O 0 N E W _ _ E S i = = 5 5 5 5 5 5 & ",
"& = g F ` ' ' E h 6 > > : 5 5 < = + o O & ",
"& b E '  .' ' S >     o o + % : 9 t h N & ",
"& _  . . . .' E d w r u d h b N S I W _ & ",
"& '  . . . .' ' E F E E E _ ` ' _ E F b & ",
"&  . . . . . . .' '  . .' ' _ S b h 0 : & ",
"& '  . . . . . . . . . . .` S h 0 < > : & ",
"&  . . . . . . . . . . . .' W S N N N b & ",
"&  . . . . . . . . . . . . .' ' ' ` ' ' & ",
"&  . . . . . . . . . . . .` _ W E E I F & ",
"&  . . . . . . . . . . . .` N i 0 < % + & ",
"&  . . . . . . . . . . . .' W I N h w < & ",
"&  . . . . . . . . . . . . . .` _ W E I & ",
"&  . . . . . . . . . . .` E S S F E _ ' & ",
"& `  . . . . . . . . . . .S p 0 0 y d h & ",
"& N S I W ` ` ' ' ' ' ' ' _ b y > o   + & ",
"& 5 9 t h x N S N N N F I _ _ G b y 4 > & ",
"& > = % o o O % % o + 5 w h A E _ E N w & ",
"& 5 5 5 5 5 5 5 5 5 5 > % X + 9 h F W E & ",
"& & & & & & & & & & & & & & & & & & & & & "
};
