/* XPM */
static char *biped_234_221_OffK1[] = {
/* columns rows colors chars-per-pixel */
"13 13 55 1",
"  c #FF5656",
". c #FF5757",
"X c #FF5858",
"o c #FF5959",
"O c #FF5A5A",
"+ c #FF5B5B",
"@ c #FF5C5C",
"# c #FF5E5E",
"$ c #FF5F5F",
"% c #EA7F7F",
"& c #EB7F7F",
"* c #EC7E7E",
"= c #EC7F7F",
"- c #EE7D7D",
"; c #EF7C7C",
": c #EF7D7D",
"> c #FF6060",
", c #FF6161",
"< c #FF6262",
"1 c #FF6363",
"2 c #FF6464",
"3 c #FF6565",
"4 c #FF6666",
"5 c #FF6767",
"6 c #FF6868",
"7 c #FF6969",
"8 c #FF6A6A",
"9 c #FF6B6B",
"0 c #FF6C6C",
"q c #FF6D6D",
"w c #FF6E6E",
"e c #FF6F6F",
"r c #F07B7B",
"t c #F17B7B",
"y c #F27B7B",
"u c #F37A7A",
"i c #F07C7C",
"p c #F57878",
"a c #F67878",
"s c #F87777",
"d c #F97676",
"f c #FA7575",
"g c #FD7373",
"h c #FF7070",
"j c #FF7171",
"k c gray75",
"l c #E38484",
"z c #E48383",
"x c #E58383",
"c c #E68282",
"v c #E68383",
"b c #E48484",
"n c #E88181",
"m c #E88282",
"M c #EA8080",
/* pixels */
"kkkkkkkkkkkkk",
"klz-h5<8sMzbk",
"kbp8$O..O9-bk",
"k-8$<88<OO9Mk",
"kh<8tzzi8.$ik",
"k88szzbzt<.9k",
"k89tllbb&5O9k",
"k98pzbbbt<Ohk",
"ks59-bbM9O<tk",
"kM958998$<hMk",
"kbih5<<$5hMbk",
"kbbMp99htMbbk",
"kkkkkkkkkkkkk"
};
