/* XPM */
static char *biped_85_9_OffK1[] = {
/* columns rows colors chars-per-pixel */
"21 22 36 1",
"  c #FF4444",
". c #FF4545",
"X c #FF4A4A",
"o c #FF4C4C",
"O c #FF4D4D",
"+ c #FF4E4E",
"@ c #FF4F4F",
"# c #FF5151",
"$ c #FF5454",
"% c #FF5656",
"& c #EB7F7F",
"* c #EC7E7E",
"= c #ED7E7E",
"- c #EE7D7D",
"; c #EE7E7E",
": c #FF6363",
"> c #FF6767",
", c #FF6868",
"< c #FF6C6C",
"1 c #FF6D6D",
"2 c #FF6E6E",
"3 c #F17B7B",
"4 c #F47979",
"5 c #F57979",
"6 c #F67878",
"7 c #FA7575",
"8 c #FF7070",
"9 c #FF7272",
"0 c gray75",
"q c #E38484",
"w c #E68282",
"e c #E68383",
"r c #E48484",
"t c #E88181",
"y c #E98181",
"u c #EA8080",
/* pixels */
"000000000000000000000",
"0qqqqqqru22wqqqqqqqq0",
"0qqqqqqr4oo&qqqqqqqq0",
"0qqqqqqr4 .*qqqqqqqq0",
"0qqqqqqr6  *qqqqqqqq0",
"0qqqqqqr6  *qqqqqqqq0",
"0qqqqqqr6  *qqqqqqqq0",
"0qqqqqqr6 .*qqqqqqqq0",
"0wqwqwqw6 .*wwqqwqqq0",
"0*******9 .4*******u0",
"0$######o. o######$20",
"0X........ .......o>0",
"09999929>  2299299930",
"0uwuuuuw7  3uuuuuuww0",
"0qwqrrrq6 .*rqqqrrqw0",
"0qqqqqqw6 .&qqqqqqqq0",
"0qqqqqqr6  *qqqqqqqq0",
"0qqqqqqr6  *qqqqqqqq0",
"0qqqqqqr6 .*qqqqqqqq0",
"0qqqqqqr4XX&qqqqqqqq0",
"0qqqqqqr*::uqqqqqqqq0",
"000000000000000000000"
};
