/* XPM */
static char *biped_288_10_OnK0[] = {
/* columns rows colors chars-per-pixel */
"24 18 2 1",
"  c #73E344",
". c gray75",
/* pixels */
"........................",
".                      .",
".                      .",
".                      .",
".                      .",
".                      .",
".                      .",
".                      .",
".                      .",
".                      .",
".                      .",
".                      .",
".                      .",
".                      .",
".                      .",
".                      .",
".                      .",
"........................"
};
