/* XPM */
static char *biped_123_225_OnK0[] = {
/* columns rows colors chars-per-pixel */
"15 13 40 1",
"  c #6ED244",
". c #6ED344",
"X c #6FD444",
"o c #6FD544",
"O c #6FD744",
"+ c #70D844",
"@ c #70D944",
"# c #70DA44",
"$ c #71DB44",
"% c #71DC44",
"& c #71DD44",
"* c #72DE44",
"= c #72DF44",
"- c #72E144",
"; c #73E244",
": c #73E344",
"> c #73E444",
", c #75E844",
"< c #75EA44",
"1 c #76ED44",
"2 c #76EE44",
"3 c #79F644",
"4 c #79F744",
"5 c #7AF944",
"6 c #7EFF44",
"7 c #7FFF44",
"8 c #80FF44",
"9 c #82FF44",
"0 c #83FF44",
"q c #84FF44",
"w c #85FF44",
"e c #86FF44",
"r c #88FF44",
"t c #89FF44",
"y c #8BFF44",
"u c #8CFF44",
"i c #8DFF44",
"p c #8EFF44",
"a c #8FFF44",
"s c gray75",
/* pixels */
"sssssssssssssss",
"s:::*oo<79ywwys",
"s::$*17wyaaaaas",
"s:$*39aaaaaaaas",
"s:o3waaaaaaaaas",
"s*>9aaaaaaaaaas",
"s$<waaaaaaaaaas",
"sO19aaaaaaaaaas",
"sO1waaaaaaaaaas",
"s$<9aayayaayyas",
"s**57797777797s",
"s:o...........s",
"sssssssssssssss"
};
