/* XPM */
static char *biped_103_73_OffK0[] = {
/* columns rows colors chars-per-pixel */
"34 18 2 1",
"  c gray62",
". c gray75",
/* pixels */
"..................................",
".                                .",
".                                .",
".                                .",
".                                .",
".                                .",
".                                .",
".                                .",
".                                .",
".                                .",
".                                .",
".                                .",
".                                .",
".                                .",
".                                .",
".                                .",
".                                .",
".................................."
};
