/* XPM */
static char *biped_141_80_OnK0[] = {
/* columns rows colors chars-per-pixel */
"38 18 26 1",
"  c #73E244",
". c #73E444",
"X c #77EF44",
"o c #77F044",
"O c #77F144",
"+ c #78F344",
"@ c #78F544",
"# c #79F644",
"$ c #79F744",
"% c #7AF844",
"& c #7AFA44",
"* c #7AFD44",
"= c #7BFD44",
"- c #7BFF44",
"; c #7CFF44",
": c #7DFF44",
"> c #81FF44",
", c #85FF44",
"< c #88FF44",
"1 c #89FF44",
"2 c #8BFF44",
"3 c #8CFF44",
"4 c #8DFF44",
"5 c #8EFF44",
"6 c #8FFF44",
"7 c gray75",
/* pixels */
"77777777777777777777777777777777777777",
"72666666666666666666666666666666666647",
"72466666666666666666666666666666666627",
"72446666666666666666666666666666666627",
"7,4666666666666666666666666666666664,7",
"7>4666666666666666666666666666666664>7",
"7:4666666666666666666666666666666644:7",
"7%4666666666666666666666666666666664%7",
"7#4666666666666666666666666666666664O7",
"7+4666666666666666666666666666666664O7",
"7#4466666666666666666666666666666644#7",
"7#4666666666666666666666666666666664%7",
"7:4666666666666666666666666666666664*7",
"7:4666666666666666666666666666666664:7",
"7*4466666666666666666666666666666644:7",
"7X4466666666666666666666666666666644O7",
"7 4666666666666666666666666666664664 7",
"77777777777777777777777777777777777777"
};
