/* XPM */
static char *biped_107_146_OffK0[] = {
/* columns rows colors chars-per-pixel */
"15 15 50 1",
"  c #0E00EF",
". c #0F00EE",
"X c blue",
"o c #0B00F2",
"O c #0C02F3",
"+ c #1207EF",
"@ c #1B05E4",
"# c #1C06E4",
"$ c #5130C0",
"% c #6B45AF",
"& c #6D47AE",
"* c #6E48AD",
"= c #714BAB",
"- c #714CAB",
"; c #6B6BBE",
": c #6D6ABB",
"> c #6C69BC",
", c #6F6CBB",
"< c #6C6CBD",
"1 c #6D6DBC",
"2 c #6E6EBC",
"3 c #7260B3",
"4 c #7367B4",
"5 c #706DB9",
"6 c #716CB8",
"7 c #716DB8",
"8 c #706DBA",
"9 c #716EB9",
"0 c #786DB2",
"q c #796EB1",
"w c #786EB2",
"e c #7A6FB0",
"r c #554AC7",
"t c #564BC6",
"y c gray62",
"u c #9E9E9F",
"i c #9183A2",
"p c #918EA5",
"a c #928FA5",
"s c #958AA1",
"d c #958BA0",
"f c #968BA0",
"g c #9696A3",
"h c #9796A3",
"j c #9595A4",
"k c #9695A4",
"l c #9696A4",
"z c #9896A1",
"x c #9996A1",
"c c gray75",
/* pixels */
"ccccccccccccccc",
"cyyyyg5+2gyyyyc",
"cyyyyj;X>gyyyyc",
"cyyyyj;X>jyyyyc",
"cyyyyj2X2gyyyyc",
"cxxxxp>X:aujjuc",
"cq00q4rXr4q00qc",
"c#....oXo....@c",
"c-*&*%$X$%*&*=c",
"cdssdi3X3idsffc",
"cuuuuh5X5hyuuuc",
"cyyyyj>X2jyyyyc",
"cyyyyj;X>juuuuc",
"cyyyyj2O5juuuuc",
"ccccccccccccccc"
};
