/* XPM */
static char *biped_261_80_OffK0[] = {
/* columns rows colors chars-per-pixel */
"11 15 86 1",
"  c gray56",
". c gray57",
"X c #939392",
"o c #939393",
"O c #959594",
"+ c #959595",
"@ c gray60",
"# c #9A9A99",
"$ c #9B9B9B",
"% c gray62",
"& c #A2A2A2",
"* c #A4A4A4",
"= c #AAAAA9",
"- c gray67",
"; c #B1B1B0",
": c #B7B6B6",
"> c #B8B8B7",
", c gray72",
"< c #BBBABA",
"1 c #BBBBBB",
"2 c gray",
"3 c gray75",
"4 c #C1C0C0",
"5 c #C2C3C2",
"6 c #C7C7C6",
"7 c gray80",
"8 c #CDCCCD",
"9 c LightGray",
"0 c #D5D4D4",
"q c #D7D7D7",
"w c #D8D9D8",
"e c #DAD9D9",
"r c #DADADA",
"t c #DBDBDA",
"y c #DEDEDD",
"u c gray87",
"i c #E0DFE0",
"p c #E1E1E1",
"a c #E4E4E3",
"s c #E4E4E4",
"d c #E5E5E6",
"f c #E5E6E6",
"g c #E6E6E5",
"h c #E9EAE9",
"j c #ECEBEB",
"k c #ECEDEC",
"l c #EDEDEC",
"z c #F1F1F0",
"x c #F3F2F4",
"c c #F4F3F2",
"v c #F6F6F5",
"b c #F7F6F8",
"n c #FAFBFB",
"m c #FBFAFB",
"M c #FCFCFB",
"N c #FCFDFB",
"B c gray99",
"V c #FDFCFC",
"C c #FDFCFD",
"Z c #FDFDFC",
"A c #FDFDFD",
"S c #FCFDFE",
"D c #FDFDFE",
"F c #FDFDFF",
"G c #FCFEFD",
"H c #FDFEFD",
"J c #FDFFFD",
"K c #FDFEFE",
"L c #FDFEFF",
"P c #FDFFFE",
"I c #FDFFFF",
"U c #FEFDFD",
"Y c #FFFDFD",
"T c #FEFDFE",
"R c #FFFDFF",
"E c #FEFEFD",
"W c #FEFFFC",
"Q c #FEFFFD",
"! c #FFFEFD",
"~ c #FFFFFD",
"^ c #FEFEFE",
"/ c #FEFEFF",
"( c #FEFFFE",
") c #FFFEFE",
"_ c #FFFFFE",
"` c gray100",
/* pixels */
"33333333333",
"3%o$<31=@+3",
"3@@>hkjw; 3",
"3.-wN!!v6+3",
"3.3z!!GGq*3",
"3&0S!!!Gd,3",
"3:sG!!GSx73",
"35k!!!!!Sw3",
"37c!!!GG!u3",
"30b!GG!G!i3",
"3rSmGGG!!s3",
"3um!!!G!!f3",
"3u!!m!!!Gf3",
"3um!!!mS!d3",
"33333333333"
};
