/* XPM */
static char *biped_18_98_OffK1[] = {
/* columns rows colors chars-per-pixel */
"10 10 35 1",
"  c #D67F7F",
". c #D77F7F",
"X c gray75",
"o c #D98080",
"O c #DB8181",
"+ c #DC8181",
"@ c #DE8282",
"# c #E18383",
"$ c #E28484",
"% c #E38484",
"& c #EA8787",
"* c #ED8888",
"= c #EE8888",
"- c #F18989",
"; c #FB8E8E",
": c #FC8E8E",
"> c #FF9090",
", c #FF9292",
"< c #FF9797",
"1 c #FF9898",
"2 c #FF9A9A",
"3 c #FF9B9B",
"4 c #FF9C9B",
"5 c #FF9E9D",
"6 c #FF9F9F",
"7 c #FFA2A2",
"8 c #FFA3A2",
"9 c #FFA5A4",
"0 c #FFA6A7",
"q c #FFA7A7",
"w c #FFA8A7",
"e c #FFA8A8",
"r c #FFA9A9",
"t c #FFAAA9",
"y c #FFAAAA",
/* pixels */
"XXXXXXXXXX",
"X:33:O+#$X",
"X3qw7:++$X",
"X6yyy6-++X",
"X4yyyy<& X",
"X3yyyyq:OX",
"X<qyyyw3=X",
"X>7yyyy7:X",
"X=3yyyyw3X",
"XXXXXXXXXX"
};
