/* XPM */
static char *biped_67_85_OnK0[] = {
/* columns rows colors chars-per-pixel */
"10 13 31 1",
"  c #6ED144",
". c #6FD444",
"X c #70D844",
"o c #70D944",
"O c #70DA44",
"+ c #71DC44",
"@ c #72DF44",
"# c #72E044",
"$ c #73E244",
"% c #73E344",
"& c #74E744",
"* c #75EA44",
"= c #77F044",
"- c #79F644",
"; c #7AFB44",
": c #7BFC44",
"> c #7CFF44",
", c #7FFF44",
"< c #80FF44",
"1 c #81FF44",
"2 c #83FF44",
"3 c #84FF44",
"4 c #85FF44",
"5 c #87FF44",
"6 c #89FF44",
"7 c #8AFF44",
"8 c #8BFF44",
"9 c #8DFF44",
"0 c #8EFF44",
"q c #8FFF44",
"w c gray75",
/* pixels */
"wwwwwwwwww",
"w%%.  ..%w",
"w%.%;>;&+w",
"wo%>666>*w",
"wX>6qqq9>w",
"w*3qqq992w",
"w>99qqq92w",
"w3qqqqqq2w",
"w3qqqqqq3w",
"w9qqqqq93w",
"w9qqqqq92w",
"wqqqqqq92w",
"wwwwwwwwww"
};
