/* XPM */
static char *biped_292_98_OffK0[] = {
/* columns rows colors chars-per-pixel */
"10 10 61 1",
"  c gray57",
". c #929292",
"X c #939393",
"o c #959595",
"O c gray59",
"+ c #979797",
"@ c #989898",
"# c gray60",
"$ c gray61",
"% c #9D9D9D",
"& c gray62",
"* c #A7A7A8",
"= c #A8A8A9",
"- c #ACABAB",
"; c #AEAEAE",
": c #B7B8B7",
"> c #B9BAB9",
", c #BEBDBE",
"< c #BEBEBF",
"1 c gray75",
"2 c #C0BFBF",
"3 c #C1C1C1",
"4 c #D0D0D0",
"5 c #D3D3D2",
"6 c gray83",
"7 c #D5D4D4",
"8 c #D7D6D6",
"9 c #D8D8D8",
"0 c #D8D8D9",
"q c #D9DADA",
"w c #DADAD9",
"e c gray87",
"r c #E1E1E2",
"t c #E5E5E4",
"y c #E7E8E8",
"u c #EBEAEA",
"i c gray92",
"p c #F2F1F2",
"a c #F6F5F6",
"s c gray97",
"d c #F8F7F7",
"f c #F8F8F9",
"g c #FAFBFA",
"h c #FAFCFC",
"j c #FCFBFA",
"k c gray99",
"l c #FCFDFC",
"z c #FDFDFC",
"x c #FDFDFD",
"c c #FDFEFD",
"v c #FDFFFC",
"b c #FDFFFD",
"n c #FDFEFE",
"m c #FEFDFE",
"M c #FEFEFD",
"N c #FEFFFC",
"B c #FEFFFD",
"V c #FFFFFD",
"C c #FEFEFE",
"Z c #FEFFFE",
"A c #FFFEFF",
/* pixels */
"1111111111",
"1&&oo155:1",
"1&o@:ydsw1",
"1@o;thxxr1",
"1 =7gxxxe1",
"1 1pxxxxw1",
"1=9jxxxd41",
"11ixxxxi11",
"1wfxxxxw-1",
"1111111111"
};
