/* XPM */
static char *biped_138_141_OffK1[] = {
/* columns rows colors chars-per-pixel */
"20 41 51 1",
"  c #CF7C7C",
". c #D07C7C",
"X c #D17C7C",
"o c #D17D7D",
"O c #D27D7D",
"+ c #D47E7E",
"@ c #D57E7E",
"# c #D87F7F",
"$ c gray75",
"% c #DB8181",
"& c #E18383",
"* c #EA8787",
"= c #F08989",
"- c #F38A8A",
"; c #F68B8B",
": c #FC8E8E",
"> c #FF8F90",
", c #FF9091",
"< c #FF9393",
"1 c #FF9394",
"2 c #FF9595",
"3 c #FF9696",
"4 c #FF9797",
"5 c #FF9999",
"6 c #FF9A9A",
"7 c #FF9B9B",
"8 c #FF9B9C",
"9 c #FF9C9C",
"0 c #FF9D9D",
"q c #FF9D9E",
"w c #FF9E9E",
"e c #FF9F9F",
"r c #FF9FA0",
"t c #FFA09F",
"y c #FFA0A1",
"u c #FFA1A1",
"i c #FFA1A2",
"p c #FFA2A2",
"a c #FFA3A3",
"s c #FFA4A4",
"d c #FFA4A5",
"f c #FFA5A4",
"g c #FFA5A5",
"h c #FFA6A6",
"j c #FFA6A7",
"k c #FFA7A7",
"l c #FFA8A8",
"z c #FFA8A9",
"x c #FFA9A9",
"c c #FFA9AA",
"v c #FFAAAA",
/* pixels */
"$$$$$$$$$$$$$$$$$$$$",
"$rxxxvvvvvvvvvvvvvv$",
"$txxvvvvvvvvvvvvvvv$",
"$qxxvvvvvvvvvvvvvvv$",
"$qxvvvvvvvvvvvvvvvv$",
"$qxxvvvvvvvvvvvvvvv$",
"$5kxvvvvvvvvvvvvvvv$",
"$3xvvvvvvvvvvvvvvvv$",
"$3hxvvvvvvvvvvvvvvv$",
"$3hxvvvvvvvvvvvvvvv$",
"$3hxvvvvvvvvvvvvvvv$",
"$3kvvvvvvvvvvvvvvvv$",
"$3hxvvvvvvvvvvvvvvv$",
"$3kvvvvvvvvvvvvvvvv$",
"$3hvvvvvvvvvvvvvvvv$",
"$3hxvvvvvvvvvvvvvvv$",
"$3kxvvvvvvvvvvvvvvv$",
"$<hxvvvvvvvvvvvvvvv$",
"$>hxvvvvvvvvvvvvvvv$",
"$>hvvvvvvvvvvvvvvvv$",
"$>hxvvvvvvvvvvvvvvv$",
"$:hxvvvvvvvvvvvvvvv$",
"$-axvvvvvvvvvvvvvvv$",
"$*axvvvvvvvvvvvvvvv$",
"$&akxxvvvvvvvvvvvvv$",
"$%axxxvvvvvvvvvvvvv$",
"$#qxvvvvvvvvvvvvvvv$",
"$+qxvvvvvvvvvvvvvvv$",
"$o7xvvvvvvvvvvvvvvv$",
"$o5xvvvvvvvvvvvvvvv$",
"$o5xvvvvvvvvvvvvvvx$",
"$oqxvvvvvvvvvvvvvvx$",
"$oqkvvvvvvvvvvvvvvv$",
"$o7xvvvvvvvvvvvvvvx$",
"$.5kvvvvvvvvvvvvvvx$",
"$ 3kvvvvvvvvvvvvvvk$",
"$.1dxxvvvvvvvvvvvvx$",
"$o:avxvvvvvvvvvvvvx$",
"$+;avvvvvvvvvvvvvvx$",
"$#-rvvvvvvvvvvvvxxx$",
"$$$$$$$$$$$$$$$$$$$$"
};
