/* XPM */
static char *biped_252_221_OffK1[] = {
/* columns rows colors chars-per-pixel */
"13 13 48 1",
"  c #FF5757",
". c #FF5A5A",
"X c #FF5B5B",
"o c #FF5C5C",
"O c #FF5D5D",
"+ c #FF5E5E",
"@ c #FF5F5F",
"# c #EB7F7F",
"$ c #EC7F7F",
"% c #EE7D7D",
"& c #EF7C7C",
"* c #EF7D7D",
"= c #FF6060",
"- c #FF6161",
"; c #FF6262",
": c #FF6363",
"> c #FF6464",
", c #FF6565",
"< c #FF6666",
"1 c #FF6767",
"2 c #FF6868",
"3 c #FF6969",
"4 c #FF6A6A",
"5 c #FF6B6B",
"6 c #FF6C6C",
"7 c #FF6D6D",
"8 c #FF6E6E",
"9 c #FF6F6F",
"0 c #F17B7B",
"q c #F27A7A",
"w c #F27B7B",
"e c #F37A7A",
"r c #F07C7C",
"t c #F57878",
"y c #F67878",
"u c #F97676",
"i c #FA7575",
"p c #FF7070",
"a c #FF7171",
"s c #FF7272",
"d c gray75",
"f c #E38484",
"g c #E58383",
"h c #E78282",
"j c #E48484",
"k c #E88181",
"l c #E98181",
"z c #E88282",
/* pixels */
"ddddddddddddd",
"dfg*s1:3i#ffd",
"dgy3+.. .6*fd",
"d*3+:361.+6#d",
"ds:30gg#6.+wd",
"d31ygfff*:+6d",
"d13yffffg1.6d",
"d33igfff*1.sd",
"di110gg#6++wd",
"d#6:1661.+s#d",
"df06:+++:s#fd",
"dff#y63sw#ffd",
"ddddddddddddd"
};
