/* XPM */
static char *biped_60_115_OnK1[] = {
/* columns rows colors chars-per-pixel */
"10 15 2 1",
"  c #FFFF66",
". c gray75",
/* pixels */
"..........",
".        .",
".        .",
".        .",
".        .",
".        .",
".        .",
".        .",
".        .",
".        .",
".        .",
".        .",
".        .",
".        .",
".........."
};
