/* XPM */
static char *biped_48_80_OnK1[] = {
/* columns rows colors chars-per-pixel */
"11 15 7 1",
"  c #FFF566",
". c #FFF766",
"X c #FFF866",
"o c #FFF966",
"O c #FFFB66",
"+ c #FFFF66",
"@ c gray75",
/* pixels */
"@@@@@@@@@@@",
"@O++++++O+@",
"@ ++++++++@",
"@O+++++++ @",
"@++++++++O@",
"@+++++++++@",
"@+++++++++@",
"@+++++++++@",
"@+++++++++@",
"@+++++++++@",
"@+++++++++@",
"@+++++++++@",
"@+++++++++@",
"@+++++++++@",
"@@@@@@@@@@@"
};
