/* XPM */
static char *biped_55_221_OnK1[] = {
/* columns rows colors chars-per-pixel */
"13 13 64 1",
"  c #FF9566",
". c #FF9B66",
"X c #FF9C66",
"o c #FF9D66",
"O c #FF9E66",
"+ c #FF9F66",
"@ c #FFA066",
"# c #FFA166",
"$ c #FFA466",
"% c #FFA566",
"& c #FFA766",
"* c #FFA966",
"= c #FFAC66",
"- c #FFAD66",
"; c #FFAE66",
": c #FFB066",
"> c #FFB166",
", c #FFB266",
"< c #FFB366",
"1 c #FFB466",
"2 c #FFB566",
"3 c #FFB666",
"4 c #FFB966",
"5 c #FFBA66",
"6 c #FFBC66",
"7 c #FFBD66",
"8 c #FFBE66",
"9 c #FFBF66",
"0 c #FFC066",
"q c #FFC266",
"w c #FFC366",
"e c #FFC566",
"r c #FFC666",
"t c #FFC766",
"y c #FFC966",
"u c #FFCA66",
"i c #FFCB66",
"p c #FFCC66",
"a c #FFCD66",
"s c #FFCF66",
"d c #FFD366",
"f c #FFD466",
"g c #FFD666",
"h c #FFD966",
"j c #FFDE66",
"k c #FFDF66",
"l c #FFE066",
"z c #FFE166",
"x c #FFE766",
"c c #FFEB66",
"v c #FFEC66",
"b c #FFED66",
"n c #FFF066",
"m c #FFF166",
"M c #FFF366",
"N c #FFF466",
"B c #FFF766",
"V c #FFF866",
"C c #FFF966",
"Z c #FFFC66",
"A c #FFFD66",
"S c #FFFE66",
"D c #FFFF66",
"F c gray75",
/* pixels */
"FFFFFFFFFFFFF",
"FDDCj9>9dNDDF",
"FDntO .O+9xDF",
"FDuOO3ut>*0NF",
"Fc&.iCDDc0>hF",
"FdO2NDDDDk90F",
"FuO0DDDDDc09F",
"FdO2nDDDDj9tF",
"Fc-+iCDDc02kF",
"FDd*&3it2>iCF",
"FDCd-+&&-unDF",
"FDDDcdtixDDDF",
"FFFFFFFFFFFFF"
};
