/* XPM */
static char *biped_189_91_OnK1[] = {
/* columns rows colors chars-per-pixel */
"17 17 27 1",
"  c #FF6666",
". c #FF6766",
"X c #FF6866",
"o c #FF6966",
"O c #FF6E66",
"+ c #FF7966",
"@ c #FF7F66",
"# c #FF8066",
"$ c #FF8566",
"% c #FF8666",
"& c #FF8E66",
"* c #FF8F66",
"= c #FF9566",
"- c #FF9666",
"; c #FF9766",
": c #FFB666",
"> c #FFB766",
", c #FFC766",
"< c #FFC866",
"1 c #FFDF66",
"2 c #FFE066",
"3 c #FFF666",
"4 c #FFF766",
"5 c #FFFC66",
"6 c #FFFD66",
"7 c #FFFF66",
"8 c gray75",
/* pixels */
"88888888888888888",
"87772>;%#%;>27778",
"873,=+OXXXO+=<378",
"87<&O     X O&,78",
"81=O         O=28",
"8:+           +:8",
"8=O           O=8",
"8$X           X$8",
"8#X           X#8",
"8%X           X$8",
"8=O           O;8",
"8>+           +>8",
"81=O         O=28",
"87,&O       O*,78",
"873<=+OX XO+=,378",
"87772:=$#$=:17778",
"88888888888888888"
};
