/* XPM */
static char *biped_181_46_OffK0[] = {
/* columns rows colors chars-per-pixel */
"34 20 188 2",
"   c gray54",
".  c #8A8B8B",
"X  c #8B8B8B",
"o  c #8C8B8B",
"O  c gray55",
"+  c #8C8D8C",
"@  c #8C8D8D",
"#  c #8D8C8C",
"$  c #8D8D8D",
"%  c gray56",
"&  c #8F8F90",
"*  c #908F90",
"=  c #909090",
"-  c gray57",
";  c #929291",
":  c #929292",
">  c #929293",
",  c #939293",
"<  c #939393",
"1  c gray58",
"2  c #969595",
"3  c gray59",
"4  c #969797",
"5  c #989898",
"6  c gray60",
"7  c #999A99",
"8  c #9A9A99",
"9  c #9A9B9A",
"0  c #9B9B9A",
"q  c #9B9B9B",
"w  c #9D9D9D",
"e  c #9D9E9E",
"r  c gray62",
"t  c gray63",
"y  c #A1A2A2",
"u  c #A2A1A2",
"i  c #A2A2A2",
"p  c #A3A3A2",
"a  c #A4A3A4",
"s  c #A4A4A3",
"d  c #A5A5A5",
"f  c gray66",
"g  c #A8A8A9",
"h  c gray67",
"j  c gray68",
"k  c #AEAEAE",
"l  c #AFAFAF",
"z  c #B1B1B1",
"x  c #B2B2B1",
"c  c #B3B4B4",
"v  c #B4B3B4",
"b  c #B4B4B4",
"n  c gray71",
"m  c #B6B6B6",
"M  c #B7B7B7",
"N  c #B9B9B9",
"B  c #BBBBBC",
"V  c gray74",
"C  c #BDBEBE",
"Z  c gray",
"A  c gray75",
"S  c #C0C0C0",
"D  c #C0C1C1",
"F  c #C1C1C1",
"G  c gray77",
"H  c #C5C6C5",
"J  c gray78",
"K  c #CBCCCB",
"L  c gray80",
"P  c #CDCDCD",
"I  c #CECECF",
"U  c gray82",
"Y  c #D1D2D2",
"T  c #D5D5D5",
"R  c gray84",
"E  c #D6D6D7",
"W  c #D7D7D7",
"Q  c #D7D8D7",
"!  c #D9D7D8",
"~  c #D8D8D7",
"^  c #D8D8D8",
"/  c #D8D8D9",
"(  c #D8D9D9",
")  c #D9DAD9",
"_  c #DAD9DB",
"`  c #DDDEDE",
"'  c #DEDEDF",
"]  c #DFDEDF",
"[  c #DFDFDE",
"{  c #DFDFDF",
"}  c #DFDFE0",
"|  c #E2E1E0",
" . c #E2E2E3",
".. c #E4E2E2",
"X. c #E4E3E4",
"o. c #E4E4E4",
"O. c #E5E5E4",
"+. c gray90",
"@. c #E5E6E5",
"#. c #E7E6E7",
"$. c #E7E7E7",
"%. c #E8E8E7",
"&. c gray91",
"*. c #E8E9E8",
"=. c #E9E9E9",
"-. c #E8EAEA",
";. c #E9EAEA",
":. c #EBECEC",
">. c #ECEBEA",
",. c #ECECEC",
"<. c #ECEDEC",
"1. c #ECEEEC",
"2. c #EEEDEE",
"3. c #EEEEED",
"4. c #EFEFEF",
"5. c gray94",
"6. c #F0F1F0",
"7. c #F0F1F1",
"8. c #F1F1F0",
"9. c #F2F4F3",
"0. c #F4F3F5",
"q. c #F4F4F4",
"w. c #F4F5F5",
"e. c #F5F4F5",
"r. c #F5F6F5",
"t. c #F6F7F6",
"y. c #F8F8F8",
"u. c #F8F9F8",
"i. c #F8F9F9",
"p. c #F9F9F9",
"a. c #F9F9FA",
"s. c #F9FAF9",
"d. c #FBF9F9",
"f. c #FAF9FA",
"g. c #FAFBFB",
"h. c #FBFAFB",
"j. c #FBFCFC",
"k. c #FDFDFB",
"l. c gray99",
"z. c #FCFCFD",
"x. c #FCFDFD",
"c. c #FDFCFC",
"v. c #FDFCFD",
"b. c #FDFDFC",
"n. c #FDFDFD",
"m. c #FCFDFE",
"M. c #FDFCFE",
"N. c #FDFCFF",
"B. c #FDFDFE",
"V. c #FDFDFF",
"C. c #FCFEFD",
"Z. c #FCFFFD",
"A. c #FDFEFC",
"S. c #FDFEFD",
"D. c #FDFFFD",
"F. c #FCFEFE",
"G. c #FCFFFE",
"H. c #FDFEFE",
"J. c #FDFEFF",
"K. c #FDFFFE",
"L. c #FDFFFF",
"P. c #FEFCFD",
"I. c #FEFDFD",
"U. c #FFFCFD",
"Y. c #FFFDFC",
"T. c #FFFDFD",
"R. c #FEFCFE",
"E. c #FEFCFF",
"W. c #FEFDFE",
"Q. c #FEFDFF",
"!. c #FFFCFE",
"~. c #FFFDFE",
"^. c #FFFDFF",
"/. c #FEFEFC",
"(. c #FEFEFD",
"). c #FEFFFC",
"_. c #FEFFFD",
"`. c #FFFEFD",
"'. c #FFFFFC",
"]. c #FFFFFD",
"[. c #FEFEFE",
"{. c #FEFEFF",
"}. c #FEFFFE",
"|. c #FEFFFF",
" X c #FFFEFE",
".X c #FFFEFF",
"XX c #FFFFFE",
"oX c gray100",
/* pixels */
"A A A A A A A A A A A A A A A A A A A A C S C C S A S S S S S A A A ",
"A S n l g s e 6 2 ; % # # # o o # # # # # X X X # # # ; < 2 4 4 5 A ",
"A 8.1.:.*.+.+.X.| | ` / W R R R W W / / R Y K H A N n j g a i i i A ",
"A [.[.[.G.[.[.[.N.N.z.z.g.g.g.g.g.g.d.g.g.q.q.8.1.>.*.+. .} { ] [ A ",
"C [.[.[.[.[.A.[.[.N.[.[.[.[.[.[.[.[.A.[.[.[.[.d.[.[.[.[.[.[.[.[.[.A ",
"C [.[.[.[.[.[.[.[.[.[.[.N.N.[.[.[.N.[.[.[.[.A.[.[.[.[.[.[.[.G.[.[.A ",
"C [.[.[.[.[.[.[.N.[.[.[.N.[.[.[.[.[.A.N.[.[.[.[.[.[.[.[.[.[.[.G.[.A ",
"S [.[.[.[.A.[.[.[.[.[.[.N.N.[.[.d.[.A.[.[.[.N.[.[.[.[.[.[.[.[.[.[.A ",
"S [.[.[.[.[.A.[.[.[.[.[.[.[.[.[.[.A.A.[.N.[.A.[.A.[.[.[.[.[.[.[.[.A ",
"C [.[.[.[.[.[.[.[.[.[.[.[.A.[.N.[.[.A.[.[.[.[.[.A.[.A.[.[.[.[.N.[.A ",
"A N.N.[.[.N.N.G.[.[.A.[.A.[.A.[.[.[.A.[.d.[.[.[.[.[.N.A.[.[.[.G.[.A ",
"A [.[.[.N.N.z.[.[.[.[.[.[.[.[.[.[.[.[.[.[.[.[.[.[.N.[.A.[.[.G.[.[.A ",
"A [.[.[.[.N.[.z.[.[.[.[.[.[.A.A.[.[.[.[.[.[.[.[.d.N.[.G.G.[.A.[.[.S ",
"A [.[.[.G.[.g.G.N.[.[.A.[.A.A.A.[.[.[.[.[.[.[.[.[.N.A.[.[.G.A.[.[.A ",
"A [.[.[.[.G.G.N.[.[.N.[.[.[.[.[.[.[.[.[.[.[.A.N.d.g.w.9.8.>.*.%. .A ",
"A [.[.[.z.[.[.[.N.N.[.[.[.[.[.N.g.e.1.#.{ ! I K J G A A A M v x j A ",
"A [.[.[.[.[.[.[.g.e.8.*.| [ ) R P J A v h p 0 3 , ; * * * * * * ; A ",
"A y.w.8.1.%. .] R P S M j i 6 , # # # % , 3 6 e e e r r e e r w e A ",
"A / P A x s 6 ; O O o # , 6 0 r e e r r e e e e r r r r r r r r e A ",
"A A A A A A A A A A A A A A A A S A A S A A A S A A A A A A A A A A "
};
