/* XPM */
static char *biped_189_91_OnK0[] = {
/* columns rows colors chars-per-pixel */
"17 17 26 1",
"  c #7EA644",
". c #7EA744",
"X c #7ABE44",
"o c #7ABF44",
"O c #76D544",
"+ c #76D644",
"@ c #75DB44",
"# c #75DC44",
"$ c #73E344",
"% c #8F4444",
"& c #8F4644",
"* c #8F4844",
"= c #8E4D44",
"- c #8C5744",
"; c #8B5E44",
": c #8C5844",
"> c #8A6444",
", c #8A6544",
"< c #886D44",
"1 c #886E44",
"2 c #877444",
"3 c #877544",
"4 c #877644",
"5 c #819544",
"6 c #819644",
"7 c gray75",
/* pixels */
"77777777777777777",
"7$$@o52>>,45o@$$7",
"7$+.2:=*&&=-4.+$7",
"7#.1=%%%%%&%=1.#7",
"7o2=%%%%%%%%%=2o7",
"75:%%%%%%%%%%%-57",
"72=%%%%%%%%%%%=27",
"7>*%%%%%%%%%%&&>7",
"7>%%%%%%%%%%%%&;7",
"7>*%%%%%%%%%%%&>7",
"72=%%%%%%%%%%%=47",
"75-%%%%%%%%%%&-57",
"7o2*%%%%%%%%%*2o7",
"7@.1=%%%%%%%=1.#7",
"7$+.2-=*%*=-2.+$7",
"7$$@o52>;>25o@$$7",
"77777777777777777"
};
