/* XPM */
static char *biped_26_180_OnK0[] = {
/* columns rows colors chars-per-pixel */
"50 16 2 1",
"  c #73E344",
". c gray75",
/* pixels */
"..................................................",
".                                                .",
".                                                .",
".                                                .",
".                                                .",
".                                                .",
".                                                .",
".                                                .",
".                                                .",
".                                                .",
".                                                .",
".                                                .",
".                                                .",
".                                                .",
".                                                .",
".................................................."
};
