/* XPM */
static char *biped_48_80_OffK0[] = {
/* columns rows colors chars-per-pixel */
"11 15 86 1",
"  c #908F90",
". c gray57",
"X c #929292",
"o c #939393",
"O c #959595",
"+ c #999899",
"@ c gray60",
"# c #9A999A",
"$ c #9B9B9B",
"% c gray62",
"& c #A1A2A1",
"* c #A5A5A5",
"= c #A9A9A9",
"- c #AAA9AA",
"; c #B0AFB0",
": c #B6B6B6",
"> c #B7B7B6",
", c #B9B9B9",
"< c #BABBBA",
"1 c #BBBBBB",
"2 c gray",
"3 c gray75",
"4 c #C0BFBF",
"5 c #C1C1C2",
"6 c #C7C6C6",
"7 c #CBCACA",
"8 c #CBCBCB",
"9 c LightGray",
"0 c gray83",
"q c #D7D7D7",
"w c #D8D7D7",
"e c #D8D9D9",
"r c gray85",
"t c #DAD9DA",
"y c #DDDDDD",
"u c gray87",
"i c #DEDFDE",
"p c #E2E1E1",
"a c #E5E4E4",
"s c #E5E5E4",
"d c #E6E5E5",
"f c #E6E6E5",
"g c #E6E6E6",
"h c #E9EAE8",
"j c gray92",
"k c #EBEDED",
"l c #ECEDEC",
"z c #F0EFEF",
"x c #F2F1F1",
"c c #F2F3F2",
"v c #F6F5F5",
"b c #F8F7F7",
"n c #FAFAF9",
"m c #FBFBFA",
"M c #FCFBFB",
"N c #FCFCFB",
"B c gray99",
"V c #FCFCFD",
"C c #FCFDFD",
"Z c #FDFCFD",
"A c #FDFDFC",
"S c #FDFDFD",
"D c #FDFDFE",
"F c #FDFDFF",
"G c #FCFEFC",
"H c #FDFEFD",
"J c #FDFFFD",
"K c #FCFEFE",
"L c #FCFEFF",
"P c #FCFFFE",
"I c #FDFEFE",
"U c #FDFFFE",
"Y c #FDFFFF",
"T c #FEFCFC",
"R c #FEFDFC",
"E c #FEFDFD",
"W c #FEFDFE",
"Q c #FEFDFF",
"! c #FFFDFF",
"~ c #FEFEFC",
"^ c #FEFEFD",
"/ c #FEFFFC",
"( c #FEFFFD",
") c #FEFEFE",
"_ c #FEFEFF",
"` c #FFFEFF",
/* pixels */
"33333333333",
"3O#=13<#X%3",
"3 ;tjlh>##3",
"3O6vPPNw- 3",
"4*wMPPPz4X3",
"4,aPPPNM0&3",
"47zPTPPTf:3",
"3tMMPTPPk43",
"3yNPTPPPz74",
"3pMPPTPPb04",
"4dNPTTPPMt4",
"4dNPPTTTTy4",
"4fPPPPTTTy3",
"4fPPPPPTPu3",
"43334444333"
};
