/* XPM */
static char *asBody[] = {
/* columns rows colors chars-per-pixel */
"32 32 99 2",
"   c black",
".  c #181818",
"X  c gray10",
"o  c #1D1D1D",
"O  c #272727",
"+  c gray16",
"@  c #2C2C2C",
"#  c #2F2F2F",
"$  c gray19",
"%  c gray20",
"&  c #343434",
"*  c #353535",
"=  c gray21",
"-  c gray22",
";  c #3C3C3C",
":  c gray24",
">  c #3E3E3E",
",  c #3F3F3F",
"<  c #414141",
"1  c gray26",
"2  c #4C4C4C",
"3  c #535353",
"4  c #6D6D6D",
"5  c #6F6F6F",
"6  c gray44",
"7  c gray47",
"8  c gray48",
"9  c #7B7B7B",
"0  c #7E7E7E",
"q  c #808080",
"w  c #818181",
"e  c gray51",
"r  c gray52",
"t  c gray53",
"y  c #8E8E8E",
"u  c gray56",
"i  c #909090",
"p  c gray57",
"a  c #929292",
"s  c #939393",
"d  c gray61",
"f  c #A0A0A0",
"g  c gray63",
"h  c #A2A2A2",
"j  c #A7A7A7",
"k  c #AFAFAF",
"l  c #B1B1B1",
"z  c #B4B4B4",
"x  c #B6B6B6",
"c  c #B7B7B7",
"v  c #B9B9B9",
"b  c gray73",
"n  c #BCBCBC",
"m  c gray",
"M  c #C0C0C0",
"N  c gray76",
"B  c gray77",
"V  c #C5C5C5",
"C  c #C6C6C6",
"Z  c gray79",
"A  c #CDCDCD",
"S  c #CECECE",
"D  c gray81",
"F  c #D2D2D2",
"G  c LightGray",
"H  c gray83",
"J  c #D7D7D7",
"K  c gray85",
"L  c #DADADA",
"P  c gray86",
"I  c #DDDDDD",
"U  c gray87",
"Y  c #E2E2E2",
"T  c gray89",
"R  c #E4E4E4",
"E  c #E6E6E6",
"W  c gray91",
"Q  c #EAEAEA",
"!  c gray92",
"~  c gray93",
"^  c #EEEEEE",
"/  c #EFEFEF",
"(  c gray94",
")  c #F1F1F1",
"_  c gray95",
"`  c #F3F3F3",
"'  c #F4F4F4",
"]  c gray96",
"[  c #F6F6F6",
"{  c gray97",
"}  c #F8F8F8",
"|  c #F9F9F9",
" . c gray98",
".. c #FBFBFB",
"X. c gray99",
"o. c #FDFDFD",
"O. c #FEFEFE",
"+. c gray100",
"@. c None",
/* pixels */
"@.@.@.@.@.@.@.@.@.@.@.@.@.@.@.@.@.@.@.@.@.@.@.@.@.@.@.@.@.@.@.@.",
"@.@.@.@.@.@.@.@.@.@.@.@.@.@.@.@.@.@.@.@.@.@.@.@.@.@.@.@.@.@.@.@.",
"@.@.@.@.@.@.@.@.@.@.@.@.@.@.@.@.@.@.@.@.@.@.@.@.@.@.@.@.@.@.@.@.",
"@.@.@.@.@.@.@.@.@.@.@.@.@.@.@.@.@.@.@.@.@.@.@.@.@.@.@.@.@.@.@.@.",
"@.@.@.@.@.@.@.@.@.@.@.@.@.@.@.@.@.@.@.@.@.@.@.@.@.@.@.@.@.@.@.@.",
"@.@.@.@.@.@.@.@.@.@.@.@.@.@.@.@.@.@.@.@.@.@.@.@.@.@.@.@.@.@.@.@.",
"@.@.@.@.@.@.@.@.@.@.@.@.@.@.@.@.@.@.@.@.@.@.@.@.@.@.@.@.@.@.@.@.",
"@.@.@.@.@.@.@.@.@.@.@.@.@.@.@.@.@.@.@.@.@.@.@.@.@.@.@.@.@.@.@.@.",
"@.@.@.@.@.@.@.@.@.@.@.@.@.@.@.@.@.@.@.@.@.@.@.@.@.@.@.@.@.@.@.@.",
"@.@.@.@.@.@.@.@.@.@.@.@.@.@.@.@.@.@.@.@.@.@.@.@.@.@.@.@.@.@.@.@.",
"@.@.@.@.@.@.@.@.@.@.@.@.@.@.@.@.@.@.@.@.@.@.@.@.@.@.@.@.@.@.@.@.",
"@.+.+.+.+.+.+.@.@.@.@.@.@.@.@.@.@.@.@.@.@.@.@.+.@.@.@.@.@.@.@.@.",
"@.+.+.G V V { } @.@.@.@.@.@.@.@.@.@.@.@.@.@.@.+.@.@.@.@.@.@.@.@.",
"@.+.}       3 +.e @.@.@.@.@.@.@.@.@.@.@.@.@.@.+.@.  @.@.@.@.@.@.",
"@.+.{       - +.9   @.@.+.+.@.@.@.@.@.@.+.+.@.+.< 6 d @.@.@.@.@.",
"@.+.{     @.@.+.e   @.+.+.+.+.~ @.@.@.+.+.+.+.+.: D ` @.@.@.+.+.",
"@.+.{ e e D +.} @.  z +.@.@.z +.9 @.+.+.@.@.K +.# u +.@.@.@.+.E ",
"@.+.+.+.+.+.+.G @.  ` { @.  . { k : +.Y @.  e +.+ < +.p   N +.@.",
"@.+.} z j b K +.0 * +.Y @.  @.Q Q e +.@.    f +.#   ~ m   G +.@.",
"@.+.{         Y V * +.b     @.{ ` e +.:   @.@.+.:   K `   ~ Y @.",
"@.+.{         b Q # +.f     @.+.{ t +.%   @.@.+.<   b } 2 +.k   ",
"@.+.{     @.@.~ ` X { N   @.@.+.` 9 +.4   @.@.+.<   @.+.Z +.<   ",
"@.+.{     @.@.+.`   I Y   @.@.+.G o ` p   @.{ +.<   @.} { I     ",
"@.+.} Q Q { +.+.@.  t +.z u ` +.@.  D { p m +.+.:   @.` +.f     ",
"@.+.+.+.+.+.{ V @.    D +.+.} K @.  : ` +.{ I +.*   @.@.+.4     ",
"@.@.@.% O +         @.@.9 0 *       @.@.u %   *     @.@.+.o     ",
"@.@.@.            @.@.@.@.@.      @.@.@.@.          @.} { @.  @.",
"@.@.@.@.@.@.@.@.@.@.@.@.@.@.@.@.@.@.@.@.@.@.@.@.@.@.{ +.Y @.  @.",
"@.@.@.@.@.@.@.@.@.@.@.@.@.@.@.@.@.@.@.@.@.@.@.@.@.@.+.+.@.    @.",
"@.@.@.@.@.@.@.@.@.@.@.@.@.@.@.@.@.@.@.@.@.@.@.@.@.@.@.@.    @.@.",
"@.@.@.@.@.@.@.@.@.@.@.@.@.@.@.@.@.@.@.@.@.@.@.@.@.@.@.@.    @.@.",
"@.@.@.@.@.@.@.@.@.@.@.@.@.@.@.@.@.@.@.@.@.@.@.@.@.@.@.@.@.@.@.@."
};
