/* XPM */
static char *asFaceSelector[] = {
/* columns rows colors chars-per-pixel */
"32 32 97 2",
"   c #25272A",
".  c gray17",
"X  c #2C2B2B",
"o  c gray20",
"O  c #313535",
"+  c #363435",
"@  c #373736",
"#  c #444444",
"$  c #4F4A42",
"%  c gray29",
"&  c gray30",
"*  c #545049",
"=  c #5A554F",
"-  c #535353",
";  c #555555",
":  c #585858",
">  c #5B5B5B",
",  c #5F5F5F",
"<  c #66615C",
"1  c #6A635E",
"2  c gray38",
"3  c gray39",
"4  c #676767",
"5  c #696360",
"6  c #6B6661",
"7  c #6A6A6A",
"8  c #6F6F6F",
"9  c gray45",
"0  c #747071",
"q  c #757373",
"w  c #737374",
"e  c #777777",
"r  c gray47",
"t  c #797979",
"y  c #7B7B7B",
"u  c gray49",
"i  c #7F7F7F",
"p  c #808080",
"a  c #848280",
"s  c gray52",
"d  c gray53",
"f  c #898786",
"g  c #8D8B87",
"h  c #898989",
"j  c gray55",
"k  c #8D8D8D",
"l  c #939393",
"z  c #959595",
"x  c #989391",
"c  c #9B9B9B",
"v  c gray61",
"b  c #9F9F9F",
"n  c gray64",
"m  c #A5A2A0",
"M  c gray65",
"N  c #A7A7A7",
"B  c #ABA8A6",
"V  c gray66",
"C  c gray67",
"Z  c gray68",
"A  c #AFAFAF",
"S  c gray70",
"D  c #B6B6B6",
"F  c #B7B7B7",
"G  c #B8B7B7",
"H  c gray72",
"J  c #BBBBBB",
"K  c #BCBCBC",
"L  c gray75",
"P  c #C0C0C0",
"I  c gray78",
"U  c #CACACA",
"Y  c #CDCDCC",
"T  c #D0D0D0",
"R  c #D4D3D1",
"E  c #D6D5D3",
"W  c gray83",
"Q  c #D7D6D6",
"!  c #DADADA",
"~  c gray86",
"^  c #DDDDDD",
"/  c #E0E1E1",
"(  c #E0E1E2",
")  c #E2E2E2",
"_  c #E4E2E2",
"`  c gray90",
"'  c #E7E7E7",
"]  c #E8E7E6",
"[  c #E9E9E9",
"{  c #EFEFEF",
"}  c gray95",
"|  c gray96",
" . c gray97",
".. c #F8F8F8",
"X. c gray98",
"o. c #FBFBFB",
"O. c gray99",
/* pixels */
"P P P P P P P P P P P P P P P P P P P P P P P P P P P P P P P P ",
"P P P P P P P P P P P P P P P P P P P P P P P P P P P P P P P P ",
"P P P P P P P P P P P P P P P P P P P P P P L L P P P P P P P P ",
"P P P P P P P P P P P P P P P P P P P P P P P L P P P P P P P P ",
"P P P P P P P P P P P P P P P P L L L L L L L L L L P P P P P P ",
"P P P P P P P P P P P P c u u n H c e p z D H H H L L L P P P P ",
"P P P P P P P P P P V p S O.X.O.O.O.O.O.C e C S D H H L L L P P ",
"P P P P P P P P P C l O.O.X. .}  . . .X.O.{ 7 C Z S D H L L P P ",
"P P P P P P P P L u O.O. . . . . .}  . . .O.} 3 v C Z H H P L L ",
"P P P P P P P P v Z O. . . . .|  . . . . .X.O.n s c n Z D H L L ",
"P P P P P P P P s X.O. .X. . . . . .X. . . .O.I 3 l c n Z D H L ",
"P P P P P P P P e O.O.O.O.O.O.X. . .O.O.O.O.O.Q : s l c C D H L ",
"P P P P P P P L u O.m 9 e 9 f ' X.' a e w q B ] , u h z m S F L ",
"P P P P P P P P t O.g 5 < = * R X.E $ = 1 6 x ~ ; t p l v Z D H ",
"P P P P P P P l t O.} e o + Y X.O.O.H @ . r { ) > 4 u k v Z S H ",
"P P P P P P P 7 n X.) 9 O   Z [ [ ' n     0 '  .c , u h z n D H ",
"P P P P P P L d % L O.O.( [ O.L c H O.' ) X.O.U . 7 u s z n S D ",
"P P P P P P P S 3 E O. .O.O.O.L D m o.o.X. .O.Q # 8 t s z n Z H ",
"P P P P P P P L r o. . .X. .' E  .H ' X. . .X.} - 9 r s z n S D ",
"P P P P P P P L n j X.X. .O.C v Q t n o. .X.X.% 2 e t h z n Z H ",
"P P P P P P P L P t ~ O. .X.X.U ' U X.X. .o.Y 3 w r u h v N S D ",
"P P P P P P P P P l Y O. .{ D V D n L } X.O.3 8 9 t p k v V D H ",
"P P P P P P P P L F w X.O.~ t t s e t ~ X.Y ; 8 9 t s z n Z D K ",
"P P P P P P P P L L Z t { O.T h l s Q X.^ - 8 w t p k v N S H L ",
"P P P P P P P P P L H v s D o.O.{ O.O.Z , , 8 e u d z n C D H L ",
"P P P P P P P P P L L D L u s ~ [ Y t 9 c 8 9 t p k v C S H L L ",
"P P P P P P P P L P L H D L C h k s Z c 9 e t p k z n Z D K L L ",
"P P P P P P P P L L L L H S C n v l s u t t p h z n C S H L P P ",
"P P P P P P P P P P P L L H D n b l k h s h k z v N S H L L L P ",
"P P P P P P P P P P P L L H D S C n c z z z v n C S D K L L P P ",
"P P P P P P P P P P L L L L J F S Z C n n n C Z S D H L L P P P ",
"P P P P P P P P P P P L L L L H H D D Z Z Z S D H H L L P P P P "
};
