/* XPM */
static char *asPoser[] = {
/* columns rows colors chars-per-pixel */
"32 32 127 2",
"   c #555555",
".  c #585858",
"X  c gray35",
"o  c #5B5B5B",
"O  c #5D5D5D",
"+  c gray37",
"@  c #5F5F5F",
"#  c gray38",
"$  c #626262",
"%  c gray39",
"&  c #646464",
"*  c #656565",
"=  c gray40",
"-  c #676767",
";  c #686868",
":  c DimGray",
">  c #6A6A6A",
",  c gray42",
"<  c #6C6C6C",
"1  c #6D6D6D",
"2  c gray43",
"3  c #6F6F6F",
"4  c gray44",
"5  c #727272",
"6  c gray45",
"7  c #747474",
"8  c gray46",
"9  c #767676",
"0  c #777777",
"q  c gray47",
"w  c gray48",
"e  c #7B7B7B",
"r  c #7C7C7C",
"t  c gray49",
"y  c #7E7E7E",
"u  c gray50",
"i  c #808080",
"p  c #818181",
"a  c gray51",
"s  c #838383",
"d  c #848484",
"f  c #868686",
"g  c gray53",
"h  c #888888",
"j  c #898989",
"k  c #8B8B8B",
"l  c gray55",
"z  c #8D8D8D",
"x  c #8E8E8E",
"c  c gray56",
"v  c #909090",
"b  c gray57",
"n  c #929292",
"m  c #939393",
"M  c gray58",
"N  c #959595",
"B  c gray59",
"V  c #979797",
"C  c #989898",
"Z  c gray60",
"A  c #9A9A9A",
"S  c #9B9B9B",
"D  c gray61",
"F  c #9D9D9D",
"G  c gray62",
"H  c #9F9F9F",
"J  c #A0A0A0",
"K  c gray63",
"L  c gray64",
"P  c #A4A4A4",
"I  c gray65",
"U  c #A9A9A9",
"Y  c #AAAAAA",
"T  c gray67",
"R  c gray69",
"E  c #B1B1B1",
"W  c #B2B2B2",
"Q  c gray70",
"!  c #B4B4B4",
"~  c gray71",
"^  c #B6B6B6",
"/  c gray72",
"(  c gray73",
")  c #BBBBBB",
"_  c #BCBCBC",
"`  c gray74",
"'  c gray",
"]  c gray75",
"[  c #C0C0C0",
"{  c #C1C1C1",
"}  c gray76",
"|  c #C3C3C3",
" . c gray77",
".. c #C5C5C5",
"X. c gray78",
"o. c gray79",
"O. c #CACACA",
"+. c #CBCBCB",
"@. c gray80",
"#. c #CECECE",
"$. c gray82",
"%. c #D2D2D2",
"&. c LightGray",
"*. c #D5D5D5",
"=. c gray84",
"-. c #D7D7D7",
";. c #D8D8D8",
":. c gray85",
">. c #DADADA",
",. c gray86",
"<. c gray87",
"1. c #E1E1E1",
"2. c gray89",
"3. c #E4E4E4",
"4. c #E7E7E7",
"5. c #EAEAEA",
"6. c gray92",
"7. c #ECECEC",
"8. c gray93",
"9. c #EEEEEE",
"0. c #EFEFEF",
"q. c #F4F4F4",
"w. c gray96",
"e. c #F6F6F6",
"r. c gray97",
"t. c #F8F8F8",
"y. c gray100",
/* pixels */
"J J J J J J J J J J J J J J J J J J J J J J J J J J J J J J J J ",
"J J J J J J J J J J J J J J J J J J J J J J J J J J J J J J J J ",
"J J J J J J J J J J J J J J J J J J J J J J J J J J J J J J J J ",
"J J J J J J J J J J J J J J J J J J J J J J J J J J J J J J J J ",
"J J J J J J J J J J J J J J J J J J J J J J J J J J J J J J J J ",
"J J J J J J J J J J J J J J J J J J J J J J J J J J J J J J J J ",
"J J J J J J J J J J J J J J J J J J J J J J J J J J J J J J J J ",
"J J J J J J J J J J J J J J J J J J J J J J J J J J J J J J J J ",
"J J J J J J J J J J J J J J J J J J J J J J J J J J J J J J J J ",
"J J J J J J J J J J J J J J J J J J J J J J J J J J J J J J J J ",
"J J J J H J J J J J J J J J J J J J J J J J J J J J J J J J J J ",
"H 6.t.y.y.6.( A H H J J J J J J J J J J J J J J J J J J J J J J ",
"H y.4._ { 0.y.E B H H H J J J J J J J J J J J J J J J J J J J J ",
"B y.X.; - 6 e.4.f B H J J J J J J J J J J J J J J J J J J J J J ",
"B y.{ @ $ - @.y.8 l A J J J J J H H J J J J J J J J H J H H J J ",
"n y.{ $ 3 8 @.e.3 a P <.t.y.2.P H H H X.t.y.6.P A H $.t.y.4.P H ",
"n y.{ ; y l e.-.; l e.t.+.X.e.t.H B ~ y.-._ <.n n -.t.{ ~ 0.0.l ",
"B y.2.E { e.y.n ; +.y.B 6 ; k y.$.k $.y.w 3 6 w J y.~ w 3 B y.T ",
"n y.y.y.e.-.l - ; 0.-.3 - - ; -.e.w E y.-.a 3 w _ y.T P P J y.X.",
"n y.{   $ ; ; ; 6 y.X.- 3 8 8 X.y.; 6 E y.y.-.y @.y.y.y.y.y.y._ ",
"n y._   . ; 6 w y 0.-.- w k l -.6.- 3 3 3 ~ y.~ { y.- . - - @ @ ",
"B y.{ @ ; y f l l @.y.k y n T y.{ - 8 w 6 - y.{ n y.P . $ - - ; ",
"n y.{ - w l A A B n e.0.{ +.e.e.6 ; +.-._ -.y.k @ $.y.+.E _ -.y ",
"n y.{ 3 a A H H A f f -.y.e.$.a - 3 ( 0.y.0.J @ $ ; E e.y.e.-.k ",
"B a 3 6 f A J J H l y ; ; ; ; ; ; w a a 8 ; $ - 6 6 3 - - 3 8 a ",
"B k y y l A J J H B l y 3 3 ; 6 y k k a 8 3 3 w f f y 6 3 ; 6 y ",
"A B l l B H J J J H A l f a a k n B B l f a f l B B n k a a f k ",
"H A A A H H J J J J H H A B B B A H H A A B B A A H H A B n B A ",
"J J J J H H J J J J J J J J J J J J J J J J J J J J J J J J J J ",
"J J J J H H J J J J J J J J J J J J J J J J J J J J J J J J J J ",
"J J J J J J J J J J J J J J J J J J J J J J J J J J J J J J J J ",
"J J J J J J J J J J J J J J J J J J J J J J J J J J J J J J J J "
};
