/* XPM */
static char *asWalkDesigner[] = {
/* columns rows colors chars-per-pixel */
"32 32 149 2",
"   c black",
".  c #010101",
"X  c #030302",
"o  c #060403",
"O  c #0C0C0B",
"+  c #120F04",
"@  c #141412",
"#  c #22211D",
"$  c #25241D",
"%  c #2B261C",
"&  c #312A16",
"*  c #232322",
"=  c #212224",
"-  c #2A2927",
";  c #272829",
":  c #3A3327",
">  c #393731",
",  c #3D3E3C",
"<  c #433C35",
"1  c #49423D",
"2  c #70673E",
"3  c #454444",
"4  c #484747",
"5  c #5B5743",
"6  c #5F594D",
"7  c #565657",
"8  c #5F5B51",
"9  c #626252",
"0  c #676157",
"q  c #61615D",
"w  c #6B675B",
"e  c #69665F",
"r  c #606162",
"t  c #6D6962",
"y  c #6D6B67",
"u  c #746F60",
"i  c #797679",
"p  c #807E7E",
"a  c #8E8265",
"s  c #868076",
"d  c #8E877D",
"f  c #7F7F82",
"g  c #848485",
"h  c #8C8C89",
"j  c #8C8D8B",
"k  c #8D8D8E",
"l  c #918F8D",
"z  c #97948B",
"x  c #908F91",
"c  c #979696",
"v  c #97979B",
"b  c #A49F97",
"n  c #A7A49C",
"m  c #ADA89A",
"M  c #B1AA92",
"N  c #BBB49B",
"B  c #AAAAA7",
"V  c #AEACA5",
"C  c #A8A7A8",
"Z  c gray66",
"A  c #A9AAA9",
"S  c #B3B4B9",
"D  c #B7B8B8",
"F  c #BBBBBD",
"G  c #C8BE9D",
"H  c #C1BBA6",
"J  c #C0BEBB",
"K  c #D1C7AE",
"L  c #CEC9B8",
"P  c #C0C1C1",
"I  c #C3C2C1",
"U  c #C6C5C3",
"Y  c #CCCAC1",
"T  c #CEC9C2",
"R  c #C8C9CC",
"E  c #C8CBCC",
"W  c #CACACC",
"Q  c #CDCECC",
"!  c #D3D1CA",
"~  c #D6D3C9",
"^  c #DCD8CF",
"/  c #CED1D5",
"(  c #D5D4D3",
")  c #DFDDD2",
"_  c #D8D9DA",
"`  c #DBDADB",
"'  c #E8E0C9",
"]  c #E7E6DE",
"[  c #ECE9DE",
"{  c #E2E1E0",
"}  c #E6E4E1",
"|  c #E7E5E2",
" . c #E1E2E4",
".. c #E4E5E5",
"X. c #E6E7E6",
"o. c #E8E7E5",
"O. c #ECEBE7",
"+. c #E6E7E9",
"@. c #E6E7EB",
"#. c gray91",
"$. c #E9E9E9",
"%. c #E9EAE9",
"&. c #EAEAEA",
"*. c #ECECEB",
"=. c #EBEBEC",
"-. c #ECECEC",
";. c #ECECED",
":. c #EDEFED",
">. c #EDEDEE",
",. c #EEEFEF",
"<. c #F9F5EA",
"1. c #EFEFF0",
"2. c #EEEFF3",
"3. c #F1F1F0",
"4. c #F3F3F1",
"5. c #F1F2F3",
"6. c #F3F3F3",
"7. c #F4F2F2",
"8. c #F4F4F3",
"9. c #F3F4F7",
"0. c #F4F4F5",
"q. c #F6F6F5",
"w. c #F5F7F6",
"e. c #F6F6F6",
"r. c #F7F8F7",
"t. c #F9F9F4",
"y. c #F8F9F6",
"u. c #F5F7FC",
"i. c #F7F8FA",
"p. c #F8F8F8",
"a. c #F9F9F9",
"s. c #F8F9FB",
"d. c gray98",
"f. c #FBFBFA",
"g. c #FAFAFB",
"h. c #FAFBFB",
"j. c #FBFBFB",
"k. c #FCFDFB",
"l. c #FAFBFF",
"z. c gray99",
"x. c #FCFDFD",
"c. c #FDFDFD",
"v. c #FDFDFE",
"b. c #FEFEFE",
"n. c #FFFFFE",
"m. c #FEFEFF",
"M. c #FEFFFF",
"N. c gray100",
"B. c None",
/* pixels */
"B.B.B.B.B.B.B.B.B.B.B.B.B.B.B.B.B.B.B.B.B.B.B.B.B.B.B.B.B.B.B.B.",
"B.B.B.B.B.B.B.B.B.B.B.B.B.B.B.B.B.B 5.x B.B.B.B.B.B.B.B.B.B.B.B.",
"B.B.B.B.B.B.B.B.B.B.B.B.B.B.B.B.B.k.N.N.y B.B.B.B.B.B.B.B.B.B.B.",
"B.B.B.B.B.B.B.B.B.B.B.B.B.B.B.B.B.q.N.N.w B.B.B.B.B.B.B.B.B.B.B.",
"B.B.B.B.B.B.B.B.B.B.B.B.B.B.B.B.B.y.N.N.$ B.B.B.B.B.B.B.B.B.B.B.",
"B.B.B.B.B.B.B.B.B.B.B.B.B.B.B.^ y.N.X.q . B.B.B.B.B.B.B.B.B.B.B.",
"B.B.B.B.B.B.B.B.B.B.B.B.B.B.F N.f.N.D . B.B.B.B.B.B.B.B.B.B.B.B.",
"B.B.B.B.B.B.B.B.B.B.B.B.B.@.a.$.$.*.o.= B.B.B.B.B.B.B.B.B.B.B.B.",
"B.B.B.B.B.B.B.B.B.B.B.n N.o.c $.$.$.7.f B.B.B.B.B.B.B.B.B.B.B.B.",
"B.B.B.B.B.B.B.B.B.B.B.l.z % * :.$.$.:.5.M m [ r.B.B.B.B.B.B.B.B.",
"B.B.B.B.B.B.B.B.B.B.Z E . B.B.p.a.p.W v S k 0 4 B.B.B.B.B.B.B.B.",
"B.B.B.B.B.B.B.B.B.B.O.2 B.B.B.0.N.N.a . . B.B.B.B.B.B.B.B.B.B.B.",
"B.B.B.B.B.B.B.B.B.B.) B.B.B.B.:.a.N.u B.B.B.B.B.B.B.B.B.B.B.B.B.",
"B.B.B.B.B.B.B.B.B.:.J B.B.B.N 2.$.1.5 B.B.B.B.B.B.B.B.B.B.B.B.B.",
"B.B.B.B.B.B.B.B.B.y.9 B.B.B.} =.:.! + B.B.B.B.B.B.B.B.B.B.B.B.B.",
"B.B.B.B.B.B.B.B.B.B.B.B.B.B.T 5.:._ & B.B.B.B.B.B.B.B.B.B.B.B.B.",
"B.B.B.B.B.B.B.B.B.B.B.B.B.B.<.N.l.u.G B.B.B.B.B.B.B.B.B.B.B.B.B.",
"B.B.B.B.B.B.B.B.B.B.B.B.B.' N.N.N.N.u.; B.B.B.B.B.B.B.B.B.B.B.B.",
"B.B.B.B.B.B.B.B.B.B.B.B.B.N.N.H L N.N.i B.B.B.B.B.B.B.B.B.B.B.B.",
"B.B.B.B.B.B.B.B.B.B.B.B./ N.@.O @ } N.` B.B.B.B.B.B.B.B.B.B.B.B.",
"B.B.B.B.B.B.B.B.B.B.B.K N.N.> . B.6 N.x.: B.B.B.B.B.B.B.B.B.B.B.",
"B.B.B.B.B.B.B.B.B.B.B.a.i.< . B.B.B.T N.t B.B.B.B.B.B.B.B.B.B.B.",
"B.B.B.B.B.B.B.B.B.B.u.4., . B.B.B.B.B.k.V B.B.B.B.B.B.B.B.B.B.B.",
"B.B.B.B.B.B.B.B.B.[ k.p . B.B.B.B.B.B.I q.- B.B.B.B.B.B.B.B.B.B.",
"B.B.B.B.B.B.B.B.B.N.~ o B.B.B.B.B.B.B.j N.g B.B.B.B.B.B.B.B.B.B.",
"B.B.B.B.B.B.B.B.I 0.# B.B.B.B.B.B.B.B.B. .} B.B.B.B.B.B.B.B.B.B.",
"B.B.B.B.B.B.B.b a.8 . B.B.B.B.B.B.B.B.B.d N.1 B.B.B.B.B.B.B.B.B.",
"B.B.B.B.B.B.C N.Z . B.B.B.B.B.B.B.B.B.B.B.{ U 3 B.B.B.B.B.B.B.B.",
"B.B.B.B.B.B.B.N.r B.B.B.B.B.B.B.B.B.B.B.B.l N.N.N.B.B.B.B.B.B.B.",
"B.B.B.B.B.B.B.h E B.B.B.B.B.B.B.B.B.B.B.B.B.( Q 7 B.B.B.B.B.B.B.",
"B.B.B.B.B.B.B.B.p e B.B.B.B.B.B.B.B.B.B.B.B.B.B.B.B.B.B.B.B.B.B.",
"B.B.B.B.B.B.B.B.B.B.B.B.B.B.B.B.B.B.B.B.B.B.B.B.B.B.B.B.B.B.B.B."
};
